<svg fill="none" viewBox="0 0 335 291">
  <path fill="#E6E6E6" d="M1.87656 66.6339c-.65598.178-1.212007.5998-1.546087 1.1729-.33407924.573-.4189417 1.2505-.2359674 1.8839L43.0633 217.751c.1845.633.6217 1.17 1.2156 1.492.594.323 1.2961.404 1.9525.228l158.4046-42.796c.656-.178 1.212-.599 1.546-1.172.334-.573.419-1.251.236-1.884L163.45 25.5579c-.185-.6329-.622-1.1694-1.216-1.4917-.594-.3224-1.296-.4042-1.953-.2277L1.87656 66.6339Z"/>
  <path fill="#fff" d="m48.2188 212.479 150.9502-40.781-40.882-140.8683L7.33737 71.611 48.2188 212.479Z"/>
  <path fill="#E6E6E6" d="M27.3015 90.421c-1.0072.2721-1.4224 1.8862-.9256 3.5979.4968 1.7118 1.7204 2.8831 2.7275 2.6111l68.846-18.5998c1.0071-.2721 1.4223-1.8862.9255-3.5979-.4968-1.7118-1.7203-2.8831-2.7275-2.6111L27.3015 90.421Zm5.5411 19.105c-1.0071.272-1.4223 1.886-.9256 3.598.4968 1.712 1.7204 2.883 2.7275 2.611L103.49 97.1352c1.008-.2721 1.423-1.8862.926-3.598-.497-1.7117-1.72-2.883-2.727-2.611L32.8426 109.526Zm5.477 18.884c-1.0071.272-1.4224 1.886-.9256 3.598.4968 1.712 1.7204 2.883 2.7275 2.611l68.8455-18.6c1.008-.272 1.423-1.886.926-3.598-.497-1.711-1.72-2.883-2.727-2.611l-68.8464 18.6Zm5.5491 19.105c-1.0071.272-1.4223 1.886-.9256 3.597.4968 1.712 1.7204 2.884 2.7275 2.611l68.8464-18.599c1.007-.272 1.422-1.886.925-3.598-.497-1.712-1.72-2.883-2.727-2.611l-68.8463 18.6Zm87.2163-84.9125c-.423.1138-.819.3069-1.164.5683-.346.2614-.635.5859-.85.9551-.216.3691-.354.7756-.406 1.1963-.053.4206-.019.8471.099 1.2551.119.408.319.7895.591 1.1226.271.3331.608.6114.991.8189.382.2075.804.3402 1.24.3904.436.0502.878.017 1.301-.0977l12.87-3.4771c.853-.2306 1.577-.7788 2.011-1.524.435-.7452.545-1.6264.306-2.4498-.239-.8234-.807-1.5214-1.58-1.9406-.772-.4192-1.685-.5252-2.539-.2946l-12.87 3.4771Zm5.437 18.7344c-.423.1138-.819.3069-1.165.5683-.345.2614-.634.5859-.849.955-.216.3692-.354.7757-.406 1.1964-.053.4206-.019.8471.099 1.2551.119.408.319.7894.591 1.1226.271.3331.608.6114.99.8189.383.2075.805.3401 1.241.3903.436.0503.878.0171 1.301-.0976l12.87-3.4771c.853-.2306 1.577-.7788 2.011-1.524.435-.7452.545-1.6265.306-2.4498-.239-.8234-.807-1.5214-1.58-1.9406-.772-.4192-1.686-.5252-2.539-.2946l-12.87 3.4771Zm5.433 18.7341c-.423.114-.818.307-1.163.569-.345.261-.633.586-.848.955-.216.369-.353.775-.406 1.195-.052.421-.018.847.1 1.255.119.407.319.789.59 1.122.271.333.607.611.99.818.382.208.803.341 1.239.391.435.051.877.018 1.3-.096l12.87-3.477c.853-.231 1.577-.779 2.011-1.524.435-.745.545-1.6266.306-2.45-.239-.8234-.807-1.5214-1.58-1.9406-.772-.4192-1.685-.5252-2.539-.2946l-12.87 3.4772Zm5.441 18.734c-.852.232-1.575.78-2.008 1.525-.434.745-.544 1.625-.305 2.448.239.823.806 1.52 1.578 1.94.771.419 1.684.526 2.537.296l12.87-3.477c.853-.231 1.575-.78 2.009-1.524.434-.745.543-1.626.304-2.449-.238-.822-.806-1.52-1.578-1.939-.771-.42-1.684-.526-2.537-.297l-12.87 3.477Z"/>
  <path fill="#F1893C" d="M152.596 151.278c-.539.145-1.043.391-1.483.724-.44.333-.808.747-1.083 1.217-.275.471-.45.989-.517 1.525-.067.536-.024 1.079.127 1.599s.406 1.006.752 1.43c.346.425.775.779 1.262 1.044.488.264 1.025.433 1.581.497s1.119.022 1.657-.124l16.4-4.431c1.087-.294 2.009-.992 2.563-1.942.553-.949.693-2.072.389-3.121-.305-1.049-1.029-1.939-2.013-2.473-.984-.534-2.148-.669-3.235-.375l-16.4 4.43Z"/>
  <path fill="#E6E6E6" d="M169.469 135.3 48.114 168.086l.302 1.04 121.355-32.785-.302-1.041Z"/>
  <path fill="#A0616A" d="m291.363 275.231-9.733 2.271-13.707-35.141 14.364-3.351 9.076 36.221Z"/>
  <path fill="#2F2E41" d="m264.838 290.926-.066-.262c-.772-3.094-.24-6.357 1.479-9.072 1.719-2.716 4.484-4.663 7.688-5.414l19.043-4.442 2.989 11.928-31.133 7.262Z"/>
  <path fill="#A0616A" d="m248.282 281.629-10.013-.001-4.764-37.265 14.778.001-.001 37.265Z"/>
  <path fill="#2F2E41" d="m250.7 290.87-32.03-.001v-.27c0-3.183 1.311-6.236 3.643-8.487 2.333-2.25 5.497-3.515 8.796-3.515l19.592.001-.001 12.272Zm-17.208-23.789-9.722-111.795 40.247-7.158.159-.028 11.779 7.306-4.1 41.144 18.878 64.146-16.3 4.139-18.908-59.492-4.327-18.091-2.218 23.508 1.647 57.974-17.135-1.653Z"/>
  <path fill="#F1893C" d="m222.529 157.821-.106-.13L236.33 56.6575l.018-.1324.098-.0946c.205-.1978 5.078-4.8437 10.09-4.8437.725 0 1.414-.0177 2.075-.0339 3.835-.0962 6.865-.1731 10.465 3.3015 3.669 3.5392 15.638 16.4634 15.638 34.1643 0 17.1333 1.617 70.3763 1.633 70.9123l.023.752-.653-.411c-.162-.1-16.26-9.99-29.762-.796-4.219 2.874-8.01 3.881-11.251 3.881-7.543 0-12.11-5.456-12.175-5.536Z"/>
  <path fill="#A0616A" d="M254.025 43.2501c9.721-5.1273 13.294-16.8874 7.979-26.267-5.314-9.37955-17.502-12.82667-27.224-7.69933-9.721 5.12733-13.294 16.88753-7.979 26.26703 5.314 9.3796 17.502 12.8267 27.224 7.6993ZM213.688 179.534c.95-.709 1.726-1.611 2.275-2.642.548-1.03.856-2.164.902-3.322.045-1.157-.173-2.31-.639-3.378-.467-1.067-1.17-2.023-2.061-2.8l11.392-25.927-14.916 2.649-8.532 24.214c-1.253 1.531-1.881 3.451-1.765 5.399.116 1.947.969 3.785 2.396 5.167 1.427 1.381 3.33 2.209 5.348 2.327 2.018.118 4.011-.482 5.6-1.687Z"/>
  <path fill="#F1893C" d="m202.688 159.366 3.668-7.472c-.226-.132-.413-.319-.541-.542-3.428-5.731 17.275-53.3234 18.655-56.4802-.211-1.7169-2.384-19.9111-.795-26.0438 1.871-7.2193 5.711-10.5839 12.843-11.2503 7.865-.7126 9.986 9.5919 10.007 9.6966l.007 26.4909-9.026 30.4938-20.585 40.517-14.233-5.41Z"/>
  <path fill="#2F2E41" d="M246.964 33.5589c-2.404.3019-4.218-2.072-5.06-4.2665-.841-2.1944-1.482-4.7491-3.573-5.9345-2.856-1.6195-6.511.3283-9.777-.206-3.689-.6034-6.087-4.3754-6.275-7.9808-.188-3.6054 1.299-7.07296 2.758-10.39708l.509 4.13112c-.068-1.40014.237-2.79373.887-4.04746.65-1.25374 1.622-2.32568 2.824-3.1133l-.657 6.0618c.412-3.39597 4.203-6.02739 7.671-5.32364l-.103 3.61183c4.26-.48881 8.558-.97831 12.831-.60591 4.274.37241 8.577 1.6769 11.815 4.39219 4.845 4.06165 6.614 10.74965 6.02 16.91555-.594 6.1659-3.232 11.9583-5.981 17.5538-.692 1.4078-1.648 2.9964-3.253 3.1758-1.441.1611-2.76-1.0013-3.208-2.3328-.448-1.3315-.229-2.778.039-4.1538.406-2.0783.917-4.2026.535-6.2851-.381-2.0826-1.933-4.1405-4.109-4.3958-2.176-.2552-4.402 2.1444-3.356 4.0028l-.537-.8022Z"/>
  <path fill="#3F3D56" d="M334.786 290.914H190.427v-1.138H335l-.214 1.138Z"/>
</svg>
