<svg fill="none" viewBox="0 0 335 201">
  <path fill="#F2F2F2" d="M256.484 198.018c-4.289-3.624-6.894-9.349-6.211-14.922.683-5.573 4.915-10.697 10.404-11.88 5.489-1.184 11.746 2.092 13.413 7.454.917-10.337 1.975-21.108 7.471-29.911 4.976-7.971 13.595-13.675 22.937-14.695 9.341-1.021 19.177 2.833 25.003 10.206 5.826 7.373 7.252 18.092 3.172 26.557-3.006 6.236-8.544 10.877-14.346 14.652-18.749 12.098-41.236 17.017-63.324 13.854l1.481-1.315Z"/>
  <path fill="#fff" d="M320.263 137.111c-7.708 6.278-14.779 13.3-21.111 20.963-9.91 11.953-17.929 25.353-23.778 39.736-.429 1.049 1.275 1.506 1.699.468 9.57-23.374 24.848-43.976 44.436-59.921.879-.717-.374-1.957-1.246-1.246Z"/>
  <path fill="#F2F2F2" d="M107.842 197.034c5.891-4.978 9.469-12.841 8.531-20.496-.939-7.655-6.751-14.692-14.29-16.318-7.5388-1.626-16.1328 2.874-18.4226 10.239-1.2602-14.199-2.7124-28.992-10.2612-41.083-6.8352-10.949-18.6739-18.783-31.5045-20.184-12.8305-1.402-26.3394 3.892-34.34139 14.019-8.001939 10.127-9.96118 24.849-4.35683 36.476 4.12853 8.565 11.73472 14.939 19.70412 20.125 25.4252 16.544 56.9651 23.444 86.9754 19.027"/>
  <path fill="#fff" d="M20.2413 113.377C30.828 122 40.5403 131.645 49.2376 142.17c8.6986 10.516 16.3568 21.85 22.867 33.843 3.6389 6.728 6.9079 13.65 9.7922 20.734.5881 1.441-1.752 2.069-2.3336.644-5.1089-12.49-11.4295-24.449-18.8713-35.706-7.4056-11.215-15.8817-21.686-25.3093-31.266-5.3323-5.415-10.9583-10.533-16.8525-15.331-1.2082-.983.513-2.686 1.7112-1.711Z"/>
  <path fill="#F2F2F2" d="M240.468 199.845H99.9224V55.6408C99.9224 24.9603 124.883 0 155.563 0h29.265c30.68 0 55.64 24.9603 55.64 55.6408V199.845Z"/>
  <path fill="#CCC" d="M211.204 199.845H99.9223V55.6408c-.0307-11.7561 3.6917-23.215 10.6257-32.7085.256-.3484.511-.6923.774-1.0324 3.354-4.3989 7.345-8.2729 11.842-11.4942.254-.1848.509-.3664.768-.54804 3.763-2.60398 7.833-4.73268 12.118-6.33766.255-.09645.514-.19309.773-.28579 3.876-1.3831 7.893-2.33051 11.978-2.824749.254-.034598.514-.061671.774-.088744 3.981-.42567 7.996-.42567 11.977 0 .259.027073.519.054143.776.089114 4.084.494272 8.101 1.441569 11.975 2.824399.259.0927.518.18933.774.28597 4.232 1.58473 8.255 3.68167 11.977 6.24403.259.17767.518.35927.773.54087 2.521 1.7993 4.888 3.8038 7.079 5.9931 1.756 1.756 3.393 3.6278 4.899 5.6029.262.339.517.6828.773 1.0307 6.934 9.4935 10.657 20.9527 10.626 32.709V199.845Z"/>
  <path fill="#F1893C" d="M202.155 135.348c3.403 0 6.161-2.759 6.161-6.161 0-3.403-2.758-6.161-6.161-6.161-3.403 0-6.161 2.758-6.161 6.161 0 3.402 2.758 6.161 6.161 6.161Z"/>
  <path fill="#FFB8B8" d="M228.955 195.526h-4.721l-2.246-18.209h6.968l-.001 18.209Z"/>
  <path fill="#2F2E41" d="M220.862 194.177h9.104v5.732H215.13c0-.753.148-1.498.436-2.194.288-.695.71-1.327 1.243-1.859.532-.533 1.164-.955 1.859-1.243.696-.288 1.441-.436 2.194-.436Z"/>
  <path fill="#FFB8B8" d="M252.443 195.526h-4.72l-2.246-18.209h6.967l-.001 18.209Z"/>
  <path fill="#2F2E41" d="M244.35 194.177h9.105v5.732h-14.837c0-.753.148-1.498.437-2.194.288-.695.71-1.327 1.242-1.859.532-.533 1.164-.955 1.86-1.243.695-.288 1.441-.436 2.193-.436Z"/>
  <path fill="#FFB8B8" d="M205.273 130.407c-.339-.5-.565-1.069-.661-1.666-.096-.597-.06-1.208.105-1.789.166-.582.457-1.12.853-1.577.396-.457.888-.822 1.44-1.068l16.048-44.2305 7.896 4.3094-18.323 42.2681c.353.955.343 2.006-.028 2.955-.371.948-1.077 1.727-1.984 2.19-.907.462-1.952.576-2.937.32-.985-.257-1.842-.866-2.409-1.712Zm44.759 8.311c-.525-.3-.977-.713-1.325-1.207-.348-.495-.584-1.059-.69-1.655-.106-.595-.08-1.206.075-1.791.156-.584.438-1.127.826-1.591l-4.971-46.7881 8.986.4106 2.066 46.0225c.736.704 1.188 1.653 1.27 2.668.083 1.014-.21 2.024-.822 2.838-.612.813-1.502 1.374-2.5 1.575-.998.202-2.035.03-2.915-.482Zm-14.336-66.8341c5.223 0 9.457-4.2342 9.457-9.4574 0-5.2232-4.234-9.4574-9.457-9.4574-5.223 0-9.457 4.2342-9.457 9.4574 0 5.2232 4.234 9.4574 9.457 9.4574Z"/>
  <path fill="#F1893C" d="M249.972 128.077h-28.513l.035-.222c.051-.331 5.081-33.2836 1.371-44.064-.372-1.0594-.34-2.2191.092-3.2558.431-1.0367 1.231-1.8772 2.245-2.3597 5.303-2.4972 15.482-5.5722 24.074 1.8903 1.264 1.1162 2.252 2.5113 2.884 4.0748.632 1.5636.892 3.2528.758 4.934l-2.946 39.0024Z"/>
  <path fill="#F1893C" d="m226.935 99.4413-12.836-2.6042 6.017-14.2586c.36-1.381 1.253-2.5628 2.483-3.2862 1.231-.7234 2.698-.9294 4.079-.5726 1.382.3567 2.566 1.247 3.293 2.4755.726 1.2286.936 2.695.582 4.0778l-3.618 14.1683Zm16.441 4.8357-.772-17.6903c-.585-3.3255 1.318-6.4691 4.246-6.983 2.929-.5119 5.788 1.7945 6.376 5.1443l2.901 16.53-12.751 2.999Z"/>
  <path fill="#2F2E41" d="M249.023 125.959c4.588 17.473 5.088 39.688 3.85 63.92l-6.161-.77-11.166-46.207-6.161 46.977-6.931-.385c-2.071-25.425-4.087-47.252-.77-61.609l27.339-1.926Zm-7.096-56.2236c-1.764 1.8794-5.041.8705-5.27-1.697-.018-.1993-.017-.3999.003-.599.119-1.1373.776-2.1698.619-3.3707-.036-.2988-.147-.5836-.324-.8274-1.406-1.8827-4.706.8421-6.033-.8623-.813-1.045.143-2.6904-.481-3.8585-.824-1.5416-3.265-.7811-4.796-1.6253-1.703-.9394-1.601-3.5523-.48-5.1416 1.367-1.9382 3.764-2.9724 6.131-3.1215 2.368-.1491 4.719.4908 6.929 1.3521 2.511.9786 5.001 2.331 6.546 4.5389 1.879 2.6851 2.06 6.2949 1.12 9.4346-.572 1.9099-2.523 4.243-3.964 5.7777Z"/>
  <path fill="#3F3D56" d="M323.441 200.093H39.1556c-.1213-.001-.2376-.049-.3233-.135-.0857-.086-.1338-.202-.1338-.324 0-.121.0481-.238.1338-.324.0857-.086.202-.134.3233-.134H323.441c.122 0 .238.048.324.134.085.086.133.203.133.324 0 .122-.048.238-.133.324-.086.086-.202.134-.324.135Z"/>
  <path fill="#fff" d="M180.592 158.066h-50.058c-.659.004-1.293-.254-1.762-.717-.469-.464-.735-1.094-.741-1.753V43.864c.006-.6593.272-1.2896.741-1.7527.469-.4631 1.103-.7211 1.762-.7176h50.058c.659-.0035 1.293.2545 1.762.7176.469.4631.736 1.0934.741 1.7527v111.732c-.005.659-.272 1.289-.741 1.753-.469.463-1.103.721-1.762.717Z"/>
  <path fill="#CCC" d="M183.095 77.5466h-55.064v.7701h55.064v-.7701Zm.192 43.9394h-55.063v.77h55.063v-.77Z"/>
  <path fill="#CCC" d="M146.129 41.3937h-.77V158.451h.77V41.3937Zm19.253 0h-.77V158.451h.77V41.3937Z"/>
</svg>
