<svg fill="none" viewBox="0 0 335 175">
  <path fill="#E6E6E6" d="M312.163 170.6c-.432 1.118-.97 2.191-1.607 3.206-.177.28-.362.556-.56.824H293.58c-.116-.086-.227-.177-.342-.264-.577-.045-1.15-.103-1.71-.164.057-.05.119-.099.177-.149-.297.025-.593.05-.89.062.235.029.474.058.713.087-.177.144-.359.288-.544.428h-.717l.482-.515c-.383.012-.762.021-1.145.012l1.199-.321 1.293-.346c.05.041.103.082.153.124 2.208-1.941 4.004-4.306 5.28-6.955 1.276-2.648 2.006-5.526 2.148-8.463.141-2.936-.309-5.871-1.325-8.63-1.015-2.759-2.575-5.285-4.587-7.429 3.238 2.172 6.011 4.968 8.158 8.222 2.147 3.255 3.625 6.905 4.348 10.736.372 1.873.427 3.795.165 5.687.144-.161.288-.322.428-.486 2.087-2.529 3.592-5.486 4.407-8.661.814-3.176.919-6.492.307-9.713 1.598 3.557 2.473 7.397 2.574 11.295.1 3.899-.576 7.778-1.989 11.413Z"/>
  <path fill="#2F2E41" d="M230.272 32.785c6.391 0 11.572-5.1806 11.572-11.5712 0-6.3906-5.181-11.57122-11.572-11.57122-6.39 0-11.571 5.18062-11.571 11.57122s5.181 11.5712 11.571 11.5712Z"/>
  <path fill="#FFB8B8" d="M267.797 169.807h-5.052l-2.403-19.485h7.456l-.001 19.485Z"/>
  <path fill="#2F2E41" d="M259.136 168.363h9.743v6.134h-15.877c0-.805.159-1.603.467-2.347.308-.744.76-1.42 1.33-1.99.569-.57 1.245-1.022 1.99-1.33.744-.308 1.542-.467 2.347-.467Z"/>
  <path fill="#FFB8B8" d="m216.264 169.146-4.877-1.316 2.751-19.439 7.199 1.942-5.073 18.813Z"/>
  <path fill="#2F2E41" d="m208.278 165.498 9.407 2.536-1.597 5.923-15.329-4.134c.423-1.57 1.453-2.909 2.863-3.72 1.411-.811 3.085-1.029 4.656-.605Zm17.559-85.8497-15.042 85.2407 7.714 1.543 24.3-60.17 18.128 59.785 9.257-1.158s-4.243-85.6264-17.743-92.9548l-26.614 7.7141Z"/>
  <path fill="#FFB8B8" d="M201.982 110.142c.542-.27 1.019-.656 1.396-1.13.377-.474.646-1.024.787-1.614.141-.589.152-1.201.03-1.795-.121-.593-.371-1.153-.732-1.64l8.296-12.1648-7.65-.1188-6.706 11.5706c-.777.66-1.284 1.583-1.427 2.593-.142 1.01.091 2.037.655 2.886.565.85 1.421 1.463 2.407 1.723s2.034.15 2.944-.31Zm54.769-15.0428c.542-.2699 1.019-.6554 1.396-1.1294.377-.4739.646-1.0248.787-1.6139.142-.589.152-1.2019.031-1.7954-.121-.5935-.371-1.1532-.732-1.6397l8.296-12.1652-7.651-.1188-6.705 11.5705c-.777.6605-1.285 1.5831-1.427 2.593-.142 1.0099.091 2.0369.655 2.8864.564.8495 1.421 1.4625 2.407 1.7229.986.2603 2.033.1499 2.943-.3104Zm-26.183-60.0233c5.589 0 10.12-4.5311 10.12-10.1205 0-5.5893-4.531-10.1204-10.12-10.1204-5.59 0-10.121 4.5311-10.121 10.1204 0 5.5894 4.531 10.1205 10.121 10.1205Z"/>
  <path fill="#F1893C" d="M252.451 40.6921c-.385-1.5428-6.942-1.1571-6.942-1.1571s-7.384-1.6975-7.314-1.4852c-6.222-.4789-13.812 1.857-14.917 2.2112-2.262.624-6.583 2.5326-9.699 3.9364-.434.1955-.773.5543-.943.9984-.171.4441-.159.9376.032 1.3732l9.505 21.7011 1.35 14.0783 31.243-9.6426c-7.714-3.0857-1.929-30.4709-2.315-32.0137Z"/>
  <path fill="#F1893C" d="m249.752 41.0776 2.564-.644 14.021 27.6435.771 15.8142-8.871-6.9427v-6.1713l-9.257-11.957.772-17.7427Zm-33.751 2.1215-2.969 1.3196c-.155.0687-.29.1744-.394.3077-.104.1334-.174.2903-.203.4569l-5.884 33.5936-5.785 16.9711 7.714 3.8571 8.871-21.2139 3.086-15.4282-4.436-19.8639Z"/>
  <path fill="#2F2E41" d="M219.955 20.1847c2.054-.6745 4.221.3829 6.228 1.1878 1.977.7933 4.09 1.3649 6.217 1.24 2.127-.125 4.278-1.0233 5.564-2.7222 1.286-1.6989 1.513-4.2451.24-5.9538-.838-1.1248-2.176-1.7666-3.514-2.1845-2.861-.8929-6.063-.9238-8.783.3359-2.719 1.2598-4.851 3.921-5.075 6.9096"/>
  <path fill="#2F2E41" d="M229.964 12.1232c-.69-4.67105 1.869-9.5209 5.361-11.260674 3.492-1.739779 7.589-.713468 10.735 1.877284 3.146 2.59075 5.44 6.57195 7.147 10.80399 1.706 4.2321 2.888 8.7649 4.279 13.1786 1.235 3.9199 2.685 7.8422 5.031 10.8402 2.346 2.9979 5.757 4.9488 9.026 4.1251-2.685 3.6107-7.626 2.9855-10.691-.1029-3.065-3.0884-4.658-7.9156-5.912-12.6145-1.254-4.6988-2.346-9.6153-4.772-13.5092-4.316-6.92721-12.786-9.00838-18.835-4.6279"/>
  <path fill="#3F3D56" d="M335 173.806H0v.824h335v-.824ZM175.757 94.7361H29.5504c-1.1707-.0013-2.2931-.467-3.1209-1.2948-.8278-.8278-1.2935-1.9502-1.2947-3.1209V55.4859c.0012-1.1707.4669-2.293 1.2947-3.1209.8278-.8278 1.9502-1.2934 3.1209-1.2947H175.757c1.171.0013 2.293.4669 3.121 1.2947.828.8279 1.293 1.9502 1.295 3.1209v34.8345c-.002 1.1707-.467 2.2931-1.295 3.1209-.828.8278-1.95 1.2935-3.121 1.2948ZM29.5504 52.0516c-.9105.0011-1.7834.3633-2.4273 1.0071-.6438.6438-1.006 1.5167-1.0071 2.4272v34.8345c.0011.9105.3633 1.7834 1.0071 2.4273.6439.6438 1.5168 1.006 2.4273 1.0071H175.757c.911-.0011 1.783-.3633 2.427-1.0071.644-.6439 1.006-1.5168 1.007-2.4273V55.4859c-.001-.9105-.363-1.7834-1.007-2.4272-.644-.6438-1.516-1.006-2.427-1.0071H29.5504Z"/>
  <path fill="#E6E6E6" d="M168.644 87.3768H36.6659c-.0646.0002-.1285-.0124-.1882-.037-.0597-.0246-.114-.0607-.1597-.1062-.0457-.0456-.0819-.0998-.1067-.1594-.0247-.0596-.0375-.1235-.0375-.1881 0-.0645.0128-.1284.0375-.1881.0248-.0596.061-.1137.1067-.1593.0457-.0456.1-.0817.1597-.1063.0597-.0245.1236-.0371.1882-.0369H168.644c.065-.0002.129.0124.189.0369.059.0246.113.0607.159.1063.046.0456.082.0997.107.1593.025.0597.037.1236.037.1881 0 .0646-.012.1285-.037.1881-.025.0596-.061.1138-.107.1594-.046.0455-.1.0816-.159.1062-.06.0246-.124.0372-.189.037Z"/>
  <path fill="#F1893C" d="M50.6482 71.186H39.8544c-.1298.0004-.2543.0523-.346.1443-.0917.0919-.1432.2165-.1432.3464s.0515.2544.1432.3464c.0917.092.2162.1438.346.1442h4.9063v8.6756c-.0086.6288.2228 1.2372.6472 1.7013.4244.4641 1.0098.7489 1.6368.7964.0307.0014.0623.0019.0944.0019.3857-.0072.7638-.1082 1.1017-.2944.3379-.1862.6253-.4519.8373-.7741.0779-.1041.1112-.2348.0927-.3634-.0185-.1287-.0873-.2447-.1913-.3227-.1039-.0779-.2346-.1114-.3633-.0931-.1286.0183-.2448.087-.3229.1908-.125.2079-.3022.3795-.514.4979-.2118.1183-.4508.1792-.6934.1768-.3749-.0348-.7225-.211-.9721-.4929-.2496-.2819-.3826-.6482-.3718-1.0245v-8.6756h4.9062c.0646.0002.1285-.0124.1882-.037.0597-.0245.114-.0606.1597-.1062.0457-.0456.082-.0997.1067-.1594.0247-.0596.0375-.1235.0375-.188 0-.0646-.0128-.1285-.0375-.1881-.0247-.0596-.061-.1138-.1067-.1594-.0457-.0455-.1-.0817-.1597-.1062-.0597-.0246-.1236-.0371-.1882-.037Z"/>
  <path fill="#E6E6E6" d="M87.4445 113.871c2.1678 0 3.9251-1.758 3.9251-3.925 0-2.168-1.7573-3.925-3.9251-3.925-2.1677 0-3.925 1.757-3.925 3.925 0 2.167 1.7573 3.925 3.925 3.925Z"/>
  <path fill="#F1893C" d="M102.654 113.871c2.167 0 3.925-1.758 3.925-3.925 0-2.168-1.758-3.925-3.925-3.925-2.168 0-3.9255 1.757-3.9255 3.925 0 2.167 1.7575 3.925 3.9255 3.925Z"/>
  <path fill="#E6E6E6" d="M117.864 113.871c2.168 0 3.925-1.758 3.925-3.925 0-2.168-1.757-3.925-3.925-3.925-2.167 0-3.925 1.757-3.925 3.925 0 2.167 1.758 3.925 3.925 3.925Z"/>
  <path fill="#3F3D56" d="M52.9388 82.9765c.1603-.0055.3121-.0731.4234-.1884.1114-.1153.1737-.2693.1737-.4297 0-.1603-.0623-.3143-.1737-.4296-.1113-.1153-.2631-.1829-.4234-.1884-.1602.0055-.312.0731-.4234.1884-.1113.1153-.1736.2693-.1736.4296 0 .1604.0623.3144.1736.4297.1114.1153.2632.1829.4234.1884Zm3.9258 0c.1602-.0055.3121-.0731.4234-.1884.1114-.1153.1737-.2693.1737-.4297 0-.1603-.0623-.3143-.1737-.4296-.1113-.1153-.2632-.1829-.4234-.1884-.1602.0055-.312.0731-.4234.1884-.1114.1153-.1736.2693-.1736.4296 0 .1604.0622.3144.1736.4297.1114.1153.2632.1829.4234.1884Zm3.9238 0c.1603-.0055.3121-.0731.4234-.1884.1114-.1153.1737-.2693.1737-.4297 0-.1603-.0623-.3143-.1737-.4296-.1113-.1153-.2631-.1829-.4234-.1884-.1602.0055-.312.0731-.4234.1884-.1113.1153-.1736.2693-.1736.4296 0 .1604.0623.3144.1736.4297.1114.1153.2632.1829.4234.1884Z"/>
</svg>
