<svg fill="none" viewBox="0 0 335 202">
  <path fill="#F1F1F1" d="M17.4783 200.966c-.0224-.099-2.1898-9.983 2.2366-18.192 4.4265-8.208 13.875-11.828 13.97-11.864l.4318-.162.102.45c.0224.099 2.1898 9.982-2.2366 18.191-4.4262 8.209-13.875 11.829-13.9699 11.865l-.432.162-.1019-.45Zm16.0462-29.12c-1.8926.815-9.3623 4.378-13.1008 11.311-3.7389 6.933-2.6108 15.133-2.2511 17.16 1.8918-.812 9.3585-4.369 13.1007-11.31 3.7387-6.933 2.6111-15.132 2.2512-17.161Z"/>
  <path fill="#F1F1F1" d="M28.5995 186.51c-7.9545 4.786-11.0181 14.291-11.0181 14.291s9.8333 1.747 17.7878-3.039c7.9545-4.786 11.018-14.291 11.018-14.291s-9.8332-1.747-17.7877 3.039Z"/>
  <path fill="#9F616A" d="M149.06 109.791c.122-.626.104-1.271-.051-1.89s-.444-1.196-.846-1.691c-.402-.495-.908-.895-1.482-1.174-.573-.278-1.201-.427-1.839-.437l-3.684-9.2631-6.175.8656 5.386 13.0085c.055 1.073.501 2.088 1.255 2.853.753.765 1.761 1.227 2.833 1.298 1.071.072 2.131-.252 2.98-.91.849-.658 1.426-1.604 1.623-2.66Z"/>
  <path fill="#F1893C" d="m137.683 106.536-1.913-4.563-11.924-22.6972.648-41.9984.125-.0165c7.63-1.0081 12.792 34.1473 13.008 35.6444l7.534 25.7662 1.793 5.6795-9.271 2.185Z"/>
  <path fill="#9F616A" d="M119.362 195.096h5.797l2.758-22.362-8.556.001.001 22.361Z"/>
  <path fill="#2F2E41" d="m117.883 193.204 11.417-.001h.001c1.929 0 3.78.767 5.144 2.131 1.365 1.365 2.132 3.215 2.132 5.145v.237h-18.694v-7.512Z"/>
  <path fill="#9F616A" d="m66.0555 186.263 4.7569 3.315 15.0479-16.769-7.0203-4.892-12.7845 18.346Z"/>
  <path fill="#2F2E41" d="m65.9246 183.865 9.3674 6.527.0004.001c1.5831 1.103 2.6631 2.79 3.0024 4.69.3394 1.899-.0897 3.856-1.1929 5.439l-.1352.194-15.3371-10.687 4.295-6.164Zm50.2504 5.975-.25-41.949-3.648-26.377-6.801 23.196-.013.019-24.6459 35.78-9.5899-4.858.0525-.125c.5861-1.394 14.3959-34.134 18.1078-34.134.3242.023.649-.033.9465-.164s.5587-.332.7612-.586c1.0895-1.455.2023-4.542.1932-4.573-1.0626-4.406 1.6091-5.907 2.1413-6.157l1.4312-29.546.1484.011 38.8007 2.721-1.627 36.94-3.502 48.399-.12.013-12.386 1.39Z"/>
  <path fill="#F1893C" d="m134.403 109.645-.168-.014-41.7292-3.363.103-13.8076 2.0424-36.0512.0116-.025 8.3182-18.0576 5.896-2.6699 8.602-.4527.021.0052 7.851 1.9451 8.167 58.6261.885 13.8646Z"/>
  <path fill="#9F616A" d="M118.827 30.5761c5.324-2.9105 7.281-9.5862 4.371-14.9105-2.911-5.3243-9.587-7.28108-14.911-4.3705-5.324 2.9105-7.281 9.5862-4.37 14.9105 2.91 5.3243 9.586 7.2811 14.91 4.3705Z"/>
  <path fill="#2F2E41" d="M102.508 23.6936v-4.2808s-3.4525-4.0659.345-5.09c0 0 1.036-10.24192 10.011-5.46238 0 0 12.428-2.04837 11.047 5.12098 0 0 3.107-1.8717 2.072 2.9078l-2.003 7.699s.967-5.0857-2.14-5.7685l-1.726-1.0242s-4.833 4.7795-12.083-1.0242c0 0-3.107-.7415-2.762 2.331.346 3.0726-2.761 4.5913-2.761 4.5913Z"/>
  <path fill="#9F616A" d="M112.413 99.3341c.007-.6377-.126-1.2692-.389-1.85-.264-.5808-.652-1.0967-1.136-1.5115-.484-.4147-1.054-.7182-1.668-.8891-.615-.1708-1.259-.2048-1.888-.0996l-5.287-8.4522-5.9194 1.9597 7.6324 11.8316c.247 1.045.869 1.963 1.747 2.58.879.618 1.953.892 3.02.77s2.052-.631 2.768-1.431c.717-.799 1.116-1.834 1.12-2.9079Z"/>
  <path fill="#F1893C" d="m98.76 96.6698-9.5635-19.4166.0085-.0472c.0385-.215 3.8882-21.5899 6.8324-29.4467 2.963-7.9066 7.0186-9.4941 7.1896-9.5578l.086-.0318 3.636 3.4881-5.037 33.6234 5.43 16.216-8.582 5.1726Z"/>
  <path fill="#F1F1F1" d="M335 0h-18.517v18.517H335V0ZM190.084 72.0554h-18.517v18.5171h18.517V72.0554Z"/>
  <path fill="#fff" d="M181.96 82.4583h146.395V8.34631H181.96V82.4583Z"/>
  <path fill="#E5E5E5" d="M329.563 83.666H180.752V7.13867h148.811V83.666Zm-146.395-2.4153h143.98V9.55394h-143.98V81.2507Z"/>
  <path fill="#E5E5E5" d="M312.167 34.3434H199.532v3.7353h112.635v-3.7353Zm0 9.0586H199.532v3.7353h112.635V43.402Z"/>
  <path fill="#F1893C" d="M312.167 56.7771h-20.932v3.2416h20.932v-3.2416Z"/>
  <path fill="#CBCBCB" d="M153.772 201.399H.402545c-.106762 0-.209151-.042-.284643-.117C.0424105 201.206 0 201.104 0 200.997c0-.107.0424105-.209.117902-.285.075492-.075.177881-.118.284643-.118H153.772c.107 0 .209.043.285.118.075.076.118.178.118.285 0 .107-.043.209-.118.285-.076.075-.178.117-.285.117Z"/>
</svg>
