<svg xmlns="http://www.w3.org/2000/svg">

    <symbol id="close" viewBox="0 0 20 20">
        <path d="M19.4494 16.7994 12.65 10l6.7994-6.79943c.7341-.73409.7341-1.91592 0-2.650004-.7341-.734088-1.9159-.734088-2.65 0L10 7.34999 3.20057.550566c-.73409-.734088-1.91592-.734088-2.650004 0-.734088.734084-.734088 1.915914 0 2.650004L7.34999 10 .550566 16.7994c-.734088.7341-.734088 1.9159 0 2.65.734084.7341 1.915914.7341 2.650004 0L10 12.65l6.7994 6.7994c.7341.7341 1.9159.7341 2.65 0 .7289-.7341.7289-1.9211 0-2.65Z"/>
    </symbol>

    <symbol id="add" viewBox="0 0 20 20">
        <circle cx="10" cy="10" r="10"/>
        <path fill="#fff" d="M12.1465 9.04v1.2256h-4.873V9.04h4.873Zm-1.7676-1.9287v5.1758h-1.333V7.1113h1.333Z"/>
    </symbol>

    <symbol id="alcool" viewBox="0 0 21 25">
        <path d="M16.6464 9.8548h-1.7345v-.546c.5791-.66.8927-1.4021.8927-2.1747 0-1.2516-.6474-2.4629-1.8247-3.4176a4.6788 4.6788 0 0 0-4.1922-2.633c-.073 0-.1451.0036-.2265.009a5.1963 5.1963 0 0 0-8.3746 3.7948C.4096 5.5557 0 6.3303 0 7.1341c0 .778.3232 1.5117.8913 2.1581V20.829c0 .01.0004.02.0014.03C.92 23.1451 4.054 25 7.9023 25c3.8014 0 6.9058-1.8099 7.0071-4.0577a.2948.2948 0 0 0 .0026-.0387v-.1147h1.7344a3.908 3.908 0 0 0 3.9041-3.9041v-3.1259a3.9088 3.9088 0 0 0-3.9041-3.904ZM14.3285 20.829c0 1.9783-2.8828 3.5876-6.4262 3.5876-3.5434 0-6.4262-1.6093-6.4262-3.5876a.2833.2833 0 0 0-.0013-.0282V9.8553c.2749.2265.5676.4304.8753.6097l.0012 10.364c0 1.2803 2.374 2.7124 5.551 2.7124 3.1771 0 5.5509-1.4321 5.5509-2.7124V10.4776a6.5407 6.5407 0 0 0 .8753-.6047v10.956Zm-9.3482.0194v-7.5469a.2917.2917 0 1 1 .5835 0v7.5469a.2917.2917 0 1 1-.5835 0Zm2.6302.3591V13.571a.2916.2916 0 0 1 .4034-.2695.2922.2922 0 0 1 .1801.2695v7.6364a.2917.2917 0 1 1-.5835 0Zm2.6289-.3586v-4.0311a.2917.2917 0 1 1 .5835 0v4.031a.2922.2922 0 0 1-.4034.2696.2926.2926 0 0 1-.1579-.1579.291.291 0 0 1-.0222-.1117v.0001Zm2.3645-10.5818a1.596 1.596 0 0 0-.9012 1.4404v2.4316a.9486.9486 0 1 1-1.8972 0v-1.911a1.0043 1.0043 0 0 0-.32-.7394 1.0382 1.0382 0 0 0-.7744-.277 12.8424 12.8424 0 0 1-.8088.0255c-1.9814 0-3.7803-.4444-5.0994-1.1639a.2791.2791 0 0 0-.0674-.036C1.4068 9.2939.5835 8.2669.5835 7.1342c0-.6568.371-1.3067 1.0728-1.8793a.2916.2916 0 0 0 .1071-.2159 4.613 4.613 0 0 1 7.5212-3.421.3683.3683 0 0 0 .2343.0625c.089-.0066.1781-.0134.2688-.0134a4.0925 4.0925 0 0 1 3.693 2.3586.2918.2918 0 0 0 .0831.1051c1.0687.8482 1.6573 1.9148 1.6573 3.0034 0 1.2023-.954 2.344-2.6172 3.1329Zm2.308 2.3438h1.7345a1.1494 1.1494 0 0 1 1.1482 1.1481v3.1259a1.1494 1.1494 0 0 1-1.1482 1.1482h-1.7345v-5.4222Zm5.0551 4.274a3.3243 3.3243 0 0 1-3.3206 3.3206h-1.7317v-1.5889h1.7317a1.7333 1.7333 0 0 0 1.2239-.5078 1.7333 1.7333 0 0 0 .5078-1.2239V13.759a1.7334 1.7334 0 0 0-1.7317-1.7316h-1.7317v-1.589h1.7317a3.3243 3.3243 0 0 1 3.3206 3.3206v3.1259Z"/>
    </symbol>

    <symbol id="annulée" viewBox="0 0 25 25">
        <path d="M17.8571 7.1429H3.5714v1.7857h14.2857V7.1429Zm3.5715 3.141V0H0v21.4286h10.2839c1.4411 2.1526 3.8938 3.5705 6.6804 3.5714 4.4384-.0018 8.0339-3.5973 8.0357-8.0357-.0009-2.7866-1.4188-5.2393-3.5714-6.6804ZM10.283 12.5c-.3678.55-.6634 1.1509-.8875 1.7857h-5.824v1.7857h5.4089c-.0322.2938-.0518.5902-.0518.8929 0 .9411.1696 1.8402.467 2.6786h-7.61V1.7857H19.643v7.6098c-.8384-.2973-1.7375-.467-2.6786-.467-1.9134 0-3.667.6706-5.0464 1.7858H3.5714V12.5h6.7116Zm6.6813 10.6098c-3.3938-.008-6.1393-2.7535-6.1473-6.1455.008-3.3938 2.7535-6.1393 6.1473-6.1464 3.392.0071 6.1375 2.7526 6.1455 6.1464-.008 3.392-2.7535 6.1375-6.1455 6.1455Z"/>
        <path d="m13.3929 18.7501 1.7857 1.7857 1.7857-1.7857 1.7857 1.7857 1.7857-1.7857-1.7857-1.7857 1.7857-1.7857-1.7857-1.7858-1.7857 1.7858-1.7857-1.7858-1.7857 1.7858 1.7857 1.7857-1.7857 1.7857Z"/>
    </symbol>

    <symbol id="cuisinier" viewBox="0 0 17 25">
        <path d="M12.9292 11.2068V6.8965H3.4464v4.3103a2.5862 2.5862 0 0 0 2.5862 2.5862h4.3104a2.5861 2.5861 0 0 0 2.5862-2.5862ZM10.343 7.7586h.862v1.724h-.862v-1.724Zm-4.3104 1.724h-.862v-1.724h.862v1.724ZM9.912 11.638a1.293 1.293 0 0 1-1.293 1.2931h-.8621a1.2932 1.2932 0 0 1-1.2931-1.2931v-.4311h.862v.4311a.4312.4312 0 0 0 .431.431h.8621a.4311.4311 0 0 0 .431-.431v-.4311h.8621v.4311ZM14.6563 0H1.7253v1.7241h12.931V0Zm-.8624 8.6207v1.7242h.4311a.431.431 0 0 0 .431-.431v-.8621a.4311.4311 0 0 0-.431-.431h-.4311Zm-.8647-6.0345H3.4464v3.4483h9.4828V2.5862ZM8.19 17.0646l1.2932-1.2931v-1.1163H6.897v1.1163l1.293 1.2931Zm7.4521.0517a2.496 2.496 0 0 0-1.7759-.737h-3.7759l-4.056 4.056V25h7.7586v-4.7414h.8621V25h1.7241v-6.1078a2.496 2.496 0 0 0-.737-1.7759Zm-7.8837 7.0216h-.862v-.8621h.862v.8621Zm0-1.7241h-.862v-.8621h.862v.8621ZM2.1563 10.3449h.431V8.6207h-.431a.431.431 0 0 0-.431.431v.8621a.431.431 0 0 0 .431.4311Z"/>
        <path d="M6.2888 16.3793H2.5129A2.5171 2.5171 0 0 0 0 18.8922V25h1.7242v-4.7414h.8621V25h2.5862v-4.7414a.4313.4313 0 0 1 .125-.3061l2.2845-2.2801-1.2931-1.2931Z"/>
    </symbol>

    <symbol id="dashboard" viewBox="0 0 25 25">
        <path d="M0 13.8889h11.1111V0H0v13.8889ZM0 25h11.1111v-8.3333H0V25Zm13.8889 0H25V11.1111H13.8889V25Zm0-25v8.3333H25V0H13.8889Z"/>
    </symbol>

    <symbol id="deconnexion" viewBox="0 0 25 25">
        <path d="M18.3374 23.4127H1.63V1.5873h16.7074V0H0v25h18.3374v-1.5873Z"/>
        <path d="M9.5761 11.7063h-1.63v1.5873h1.63v-1.5873Zm8.7207 7.3018 6.7033-6.508-6.7033-6.508-1.141 1.1112 4.7066 4.6032H11.6138v1.5873h10.2486l-4.7066 4.6031 1.141 1.1112Z"/>
    </symbol>

    <symbol id="desserts" viewBox="0 0 15 25">
        <path d="M8.0375 18.489c-.4332.0301-.8852.039-1.3238.0262a.2732.2732 0 1 0-.016.546 14.0613 14.0613 0 0 0 1.3777-.0272.2729.2729 0 0 0 .2529-.2914.273.273 0 0 0-.2908-.2536Z"/>
        <path d="M14.0485 11.1708c0-.5681-.3785-1.0985-1.0345-1.5484-.3476.4425-.863.8398-1.5295 1.171-1.2003.597-2.7845.9257-4.4605.9257a12.171 12.171 0 0 1-1.819-.1341.2732.2732 0 0 1 .0416-.5433c.014 0 .028.001.0418.003.5745.0862 1.1547.129 1.7356.1281 2.7234 0 5.0202-.9073 5.7348-2.1468v-.0005a.4494.4494 0 0 1 .0129-.0248 1.6158 1.6158 0 0 0 .2165-.794c0-.6993-.4866-1.3414-1.3011-1.8484-.0005.0004 0 .0004.0005.001-.2642.4474-.6798.8521-1.2311 1.1873-.0178.0105-.0357.0214-.0536.0318a.2734.2734 0 1 1-.2786-.4703c.5756-.3396 1.0007-.7727 1.2088-1.2594a.0136.0136 0 0 0-.0005.0045.411.411 0 0 1 .0223-.083 1.7043 1.7043 0 0 0-.0248-1.3234c-.2637-.6416-.8105-1.4605-1.4148-2.2461A24.1405 24.1405 0 0 0 8.1513.1572a.528.528 0 0 0-.8994.3034c-.0655.4638-.2587.9197-.656 1.2147-.1.0717-.2083.1307-.3228.1758-1.319.5392-2.557 1.4744-2.557 1.4744a2.9424 2.9424 0 0 0-.8388.8253 1.8068 1.8068 0 0 0-.3059.9878 1.722 1.722 0 0 0 .1222.6316.3757.3757 0 0 1 .0213.0785c.4986 1.1646 2.2387 2.0247 4.309 2.0247.4004.0003.8-.0328 1.195-.0989a.2734.2734 0 0 1 .0893.5394 7.7727 7.7727 0 0 1-1.2842.1057c-1.2877 0-2.5069-.3104-3.432-.873-.5513-.3352-.967-.74-1.2311-1.1874l.001-.001c-.815.5065-1.3022 1.1491-1.3022 1.8484.0027.279.0775.5525.217.794a.385.385 0 0 1 .013.0249v.0005c.3113.5403.9247 1.017 1.7416 1.384a.2732.2732 0 0 1-.221.4996 8.2578 8.2578 0 0 1-.2463-.1162c-.667-.3313-1.182-.7285-1.5296-1.171.0005-.0005.0015-.001.002-.002C.3794 10.0713 0 10.6022 0 11.1708c.0044.2784.09.5496.2465.78v3.8603c0 .812.6612 1.5654 1.8627 2.1237 2.0818 1.3279 2.075 5.5354 2.0747 5.5804C4.184 24.3617 5.405 25 7.024 25c1.6194 0 2.8406-.6383 2.8406-1.4875a12.0507 12.0507 0 0 1 .2593-2.325c.2372-1.1078.7443-2.5684 1.814-3.2521 1.2022-.5583 1.8639-1.3121 1.8639-2.1243v-3.8606a1.4282 1.4282 0 0 0 .2467-.7797Zm-3.7072-6.1062a.3404.3404 0 0 1-.2595.4585.341.341 0 0 1-.337-.532.3407.3407 0 0 1 .5965.0735ZM8.481 2.9565a3.493 3.493 0 0 0-.1251-.1083.6857.6857 0 0 0-.0343-.0253.3477.3477 0 0 1 .434-.5433c.017.0149.1788.1842.2091.2205.0611.072.1185.1455.1723.2205.1072.1486.2054.3035.294.4638.0417.081.233.4892.233.4892.0367.0824.0645.1678.0963.2517.0298.084.0556.1699.083.2548a.227.227 0 0 1-.4217.1659l-.006-.0134c-.0347-.074-.0665-.149-.1023-.2215-.0377-.072-.0715-.1455-.1132-.215a4.2922 4.2922 0 0 0-.2568-.4073 4.0776 4.0776 0 0 0-.299-.368 2.9964 2.9964 0 0 0-.1633-.1643Zm4.6752 12.8547c0 .5425-.5507 1.1068-1.5109 1.5483a.3224.3224 0 0 0-.0525.0303c-2.3838 1.52-2.3753 5.9402-2.3738 6.1254 0 .3422-.8551.8393-2.195.8393-1.3396 0-2.1945-.4971-2.1945-.8366.0012-.1509.0066-3.0322-1.2267-4.948a9.9677 9.9677 0 0 0 1.781.3888.2733.2733 0 0 0 .251-.4374.2734.2734 0 0 0-.1807-.1044c-1.0726-.1391-2.008-.4143-2.6342-.7748a.2802.2802 0 0 0-.0456-.0204 3.315 3.315 0 0 0-.3065-.2238.3268.3268 0 0 0-.0616-.0369C1.444 16.9193.8921 16.3545.8921 15.8112V13.012c1.3312.8915 3.6314 1.4457 6.132 1.4457a16.2736 16.2736 0 0 0 2.1591-.142v.801a.4378.4378 0 0 0 .7476.3096.438.438 0 0 0 .1283-.3096v-.9459c.3242-.0642.6367-.1386.9352-.2224v1.6483a.4379.4379 0 0 0 .8758 0v-1.9368a6.531 6.531 0 0 0 1.2861-.6479v2.7992Z"/>
    </symbol>

    <symbol id="edit" viewBox="0 0 26 25">
        <path d="M19.3089 25H3.8618a3.8632 3.8632 0 0 1-2.7307-1.1303A3.8574 3.8574 0 0 1 0 21.1411V5.7054a3.858 3.858 0 0 1 1.131-2.7287 3.8632 3.8632 0 0 1 2.7308-1.1303h5.149c.3414 0 .6688.1356.9102.3768a1.286 1.286 0 0 1 .3771.9095 1.286 1.286 0 0 1-.377.9096 1.2877 1.2877 0 0 1-.9103.3768h-5.149c-.3414 0-.6688.1355-.9103.3767a1.2858 1.2858 0 0 0-.377.9096V21.141c0 .3411.1356.6683.377.9095.2415.2412.5689.3768.9103.3768h15.4471c.3414 0 .6688-.1356.9102-.3768a1.2857 1.2857 0 0 0 .377-.9095v-5.1453a1.2874 1.2874 0 0 1 2.5746 0v5.1453a3.8575 3.8575 0 0 1-1.1311 2.7286A3.8634 3.8634 0 0 1 19.3089 25Z"/>
        <path d="m16.2184 4.2518-6.372 6.4316a.5271.5271 0 0 0-.1673.2958L8.392 15.8929a.6172.6172 0 0 0 .1673.6174.6054.6054 0 0 0 .4506.1287.4137.4137 0 0 0 .1673 0l4.9173-1.2863a.5282.5282 0 0 0 .2961-.1672l6.3719-6.393-4.544-4.5407Zm8.2382-1.8265L22.5901.5602a1.9573 1.9573 0 0 0-2.7418 0l-1.828 1.8651 4.5698 4.5664 1.8665-1.8266a1.9544 1.9544 0 0 0 0-2.7398Z"/>
    </symbol>

    <symbol id="en_préparation" viewBox="0 0 29 25">
        <path d="M28.7768 14.6513a.4798.4798 0 0 0-.0639-.195.4802.4802 0 0 0-.3287-.2296.4806.4806 0 0 0-.205.0071 22.301 22.301 0 0 0-3.1023 1.0851l.9543-8.5346a.48.48 0 0 0-.2808-.492l-1.1418-1.3702a4.3163 4.3163 0 0 0-3.3241-1.5567h-2.5254V1.923A1.9256 1.9256 0 0 0 16.836 0h-4.8077a1.925 1.925 0 0 0-1.9231 1.923v1.4424H7.5798a4.3158 4.3158 0 0 0-3.3241 1.5569L3.1139 6.2924a.4803.4803 0 0 0-.2808.492l.9543 8.5346a22.3141 22.3141 0 0 0-3.1022-1.085.481.481 0 0 0-.5977.4174c-.0214.2122-.506 5.2199 1.0559 7.4552a6.2575 6.2575 0 0 0 2.9118 2.3339 4.102 4.102 0 0 0 1.3956.2596 3.288 3.288 0 0 0 .3589-.0253A.4756.4756 0 0 0 6.259 25h16.3461a.476.476 0 0 0 .4494-.3253c.1191.015.2389.0234.3589.0253a4.1127 4.1127 0 0 0 1.3956-.2596 6.2577 6.2577 0 0 0 2.9118-2.3339c1.5618-2.2353 1.0772-7.243 1.0559-7.4552Zm-17.71-12.7282a.9628.9628 0 0 1 .9615-.9615h4.8077a.9628.9628 0 0 1 .9615.9615v1.4423h-.9615V1.923h-4.8077v1.4423h-.9615V1.923Zm4.8076 1.4423h-2.8846v-.4808h2.8846v.4808ZM4.9942 5.5384A3.3561 3.3561 0 0 1 7.5798 4.327h13.7047a3.3567 3.3567 0 0 1 2.5856 1.2116l.5931.7115H4.401l.5932-.7115ZM4.8034 15.754l-.955-8.5424h21.1675l-.9616 8.5986a7.118 7.118 0 0 0-2.5123 1.9802 6.2557 6.2557 0 0 0-1.1893 3.5363 3.4078 3.4078 0 0 0 1.1358 2.6916c.0079.0072.0168.0132.0247.0203h-5.1575a5.7223 5.7223 0 0 0 1.4082-2.009 5.7233 5.7233 0 0 0 .4372-2.4141c0-2.7273-3.2652-6.5547-3.4042-6.7164a.4969.4969 0 0 0-.7291 0c-.139.1615-3.4041 3.9889-3.4041 6.7164a5.722 5.722 0 0 0 1.8454 4.4231H7.351c.008-.0071.0169-.0131.0247-.0203a3.4082 3.4082 0 0 0 1.1358-2.6916 6.256 6.256 0 0 0-1.1893-3.5363 7.1152 7.1152 0 0 0-2.512-1.98.4927.4927 0 0 0-.0068-.0566v.0002Zm19.7794 6.6545c-.6667.9535-1.7442 1.4005-2.3518.9759a1.16 1.16 0 0 1-.4258-.9878 2.768 2.768 0 0 1 .5336-1.5564c.4775-.6836 1.8482-1.246 2.7438-1.5376.0342.9414-.0224 2.4218-.4998 3.1059Zm-11.5193-.7489c0-.8338.8015-2.0799 1.3686-2.8317.5673.7517 1.3686 1.9977 1.3686 2.8317 0 1.1639-.6267 2.147-1.3686 2.147-.7418 0-1.3683-.9831-1.3683-2.147h-.0003Zm1.7332-3.9152a.4963.4963 0 0 0-.3646-.1591.4973.4973 0 0 0-.3645.1591c-.2012.2338-1.9656 2.3311-1.9656 3.9152 0 .1063.0041.2112.0115.3144a5.7028 5.7028 0 0 1-.4883-2.3585c0-1.8798 1.9736-4.5828 2.8072-5.6411.8336 1.0582 2.8071 3.7613 2.8071 5.6411a5.7019 5.7019 0 0 1-.4885 2.3586 4.3954 4.3954 0 0 0 .0115-.3144c0-1.5842-1.7644-3.6815-1.9656-3.9153h-.0002Zm-8.1635 5.6403c-.608.4254-1.6852-.022-2.3517-.9759-.4774-.6841-.534-2.165-.4998-3.1063.8952.2911 2.2652.8531 2.7438 1.5381.3316.4527.5177.9955.5337 1.5564a1.1597 1.1597 0 0 1-.426.9877Zm-4.7015-1.8284C.8552 20.0149.9246 16.6687 1.0023 15.324c1.2893.3897 4.455 1.4757 5.5317 3.0166a5.6345 5.6345 0 0 1 .951 2.235c-.0561-.0956-.1067-.1933-.1713-.2856-.907-1.2991-3.5546-2.0076-3.8536-2.0841a.481.481 0 0 0-.5976.4173c-.031.3071-.2763 3.0368.6308 4.3354.0613.0879.1277.1683.1936.2492a5.6406 5.6406 0 0 1-1.7552-1.6516Zm25.0009 0a5.6385 5.6385 0 0 1-1.7553 1.6516c.0658-.0811.1322-.1613.1936-.2492.9071-1.2986.6618-4.0283.6308-4.3354a.4807.4807 0 0 0-.3926-.4245.4807.4807 0 0 0-.205.0072c-.2989.0765-2.9466.785-3.8537 2.0841-.0646.0923-.1151.19-.1713.2856a5.6356 5.6356 0 0 1 .9511-2.235c1.0766-1.5409 4.2424-2.6269 5.5317-3.0166.0778 1.3447.1472 4.6909-.9293 6.2322Z"/>
        <path d="M20.6824 9.1346h2.8846a.4806.4806 0 0 0 .4808-.4807.4807.4807 0 0 0-.4808-.4808h-2.8846a.481.481 0 0 0-.4808.4808.481.481 0 0 0 .4808.4807Zm2.884.4808h-2.4039a.4806.4806 0 0 0-.4807.4807.4808.4808 0 0 0 .4807.4808h2.4039a.4808.4808 0 0 0 0-.9615Z"/>
    </symbol>

    <symbol id="entrées" viewBox="0 0 23 25">
        <path d="M13.2608 17.8139c-.5524-.2958-1.26-.4734-2.0315-.4734-1.7671 0-3.2001.9318-3.2001 2.0817 0 .9245.9262 1.7083 2.2081 1.9799.3263.0683.6587.1025.992.1018 1.7677 0 3.2006-.9317 3.2006-2.0817 0-.6482-.4551-1.2266-1.1691-1.6083Z"/>
        <path d="M21.9737 3.1385a2374.247 2374.247 0 0 1-1.2818-.8535.4139.4139 0 0 0-.2736-.0672h-.0032l-1.0351.1124a.4144.4144 0 0 0-.3434.1902 27.7659 27.7659 0 0 0-.844 1.3983c-.4507-.2347-.9013-.4695-1.352-.7045a.4137.4137 0 0 0-.2789-.0381h-.0006a.004.004 0 0 1-.0021.0005l-.2564.056c.1903-.566.4006-1.126.631-1.6801a.4147.4147 0 0 0-.2171-.5407C16.2457.807 15.775.6023 15.3046.3975a.4126.4126 0 0 0-.2816-.0177h-.0005c-.0006 0-.0011.0005-.0022.0005l-.998.293a.4145.4145 0 0 0-.3058.2482 27.8325 27.8325 0 0 0-.8834 2.4266A60.2169 60.2169 0 0 0 12.482.8269a.382.382 0 0 0-.2317-.2961 53.2536 53.2536 0 0 0-.7846-.475.3428.3428 0 0 0-.2467-.0506L9.2063.3647a.3579.3579 0 0 0-.2876.4139 56.172 56.172 0 0 1 .3649 2.4382A28.3454 28.3454 0 0 0 8.442.9215a.4149.4149 0 0 0-.3106-.2488c.0022.0005.0048.0005.007.001L7.1382.3804c-.001 0-.0016-.0005-.0021-.0005h-.0006a.4126.4126 0 0 0-.2816.0177 2771.73 2771.73 0 0 1-1.4118.6143.4147.4147 0 0 0-.2172.5407 24.917 24.917 0 0 1 .6024 1.5975l-.1447-.0135a.5954.5954 0 0 0-.2586.0327.897.897 0 0 0-.106.045c-.4507.2347-.9013.4694-1.3519.7044a27.698 27.698 0 0 0-.8442-1.3982.4131.4131 0 0 0-.3477-.1897c.001 0 .0027-.0006.0043-.0006l-1.0351-.1123h-.0032a.4137.4137 0 0 0-.2736.0672c-.4272.2843-.8545.5688-1.2818.8535a.4153.4153 0 0 0-.1188.5702A25.677 25.677 0 0 1 2.3512 8.164a1.6071 1.6071 0 0 0-.2843.8862c.001.1179.0135.2354.0371.351.009.034.0192.0736.0308.1164l2.4006 12.8379C4.7557 23.8316 7.651 25 11.1913 25c3.5409 0 6.4361-1.1684 6.6565-2.6444l2.4089-12.882a.8232.8232 0 0 0 .0176-.0557c.0253-.121.0386-.244.0398-.3676 0-.3778-.15-.7417-.4284-1.083a25.713 25.713 0 0 1 2.2068-4.2586.4156.4156 0 0 0-.1188-.5702Zm-9.0193 1.329a27.4265 27.4265 0 0 1 1.1533-3.367c.4617.2005.9233.4013 1.385.6025a26.0822 26.0822 0 0 0-1.4032 4.4822c.0533-.139-.5838 1.6163-.8679 2.658.0013-.0054.0022-.0111.0037-.0165a59.949 59.949 0 0 0-.2719-4.3653c.0002.0021.0008.004.001.0061Zm.5585 4.9533a27.7095 27.7095 0 0 1 2.0848-5.5896c.2222.1157.4443.2314.6664.3473l.6733.3508a26.0239 26.0239 0 0 0-2.6377 9.1157c-.4141.3322-.9563.5939-1.5781.7532a27.7093 27.7093 0 0 1 .7913-4.9774ZM12.066.9489a59.6382 59.6382 0 0 1 .7481 9.5906c.0009-.0041.0022-.008.0032-.0122a28.0963 28.0963 0 0 0-.5324 3.9635 5.8192 5.8192 0 0 1-.9702.0807c-.1851 0-.3669-.009-.545-.0254a57.797 57.797 0 0 0-.5718-13.285c.6223-.1042 1.245-.2083 1.8681-.3122Zm-4.0152.1516a27.6275 27.6275 0 0 1 1.514 4.8512 56.5724 56.5724 0 0 1 .1282 6.6627 28.0962 28.0962 0 0 0-1.6246-6.4288A26.069 26.069 0 0 0 6.6658 1.703c.4611-.201.9228-.4019 1.385-.6025ZM5.8927 4.1794l.6681-.3482a27.716 27.716 0 0 1 2.0727 5.5425c.409 1.5983.6744 3.23.7932 4.8755-.7684-.2827-1.6533-1.2074-1.6312-1.1747A26.0808 26.0808 0 0 0 5.221 4.5293c.2239-.1166.4477-.2332.6716-.35Zm-4.3815-.576c.4192-.2795.8384-.5586 1.2576-.8374.3433.5335.6682 1.0789.9747 1.636a.42.42 0 0 0 .0298.0785A25.716 25.716 0 0 1 6.18 11.9683a12.9773 12.9773 0 0 1-1.2556-.387 26.0563 26.0563 0 0 0-1.4913-4.4077 26.1888 26.1888 0 0 0-1.9219-3.5703ZM17.161 22.2271a.5515.5515 0 0 0-.0042.0252c-.0657.4401-.6984.9497-1.6511 1.33-1.1614.4636-2.6936.7189-4.3144.7189-1.6205 0-3.1526-.2553-4.3139-.7189-.9527-.3803-1.5853-.8899-1.651-1.33a.712.712 0 0 0-.0042-.0252l-1.994-10.6635c.8515.499 1.9915.9158 3.2985 1.2059a.7851.7851 0 0 1 .5235.4164c.324.6298.9112 1.1607 1.6981 1.5353.7542.3591 1.6416.5489 2.5664.5489.9369 0 1.834-.1943 2.5941-.562.7955-.3847 1.3821-.9286 1.6962-1.5727a.787.787 0 0 1 .5212-.4282c1.1925-.2854 2.2362-.6797 3.0288-1.1437l-1.994 10.6636Zm.0528-10.5589c-.3872.1325-.8034.2523-1.2444.358a25.7167 25.7167 0 0 1 2.4158-7.5459.4158.4158 0 0 0 .0297-.0777 27.7795 27.7795 0 0 1 .9749-1.6367c.419.2788.8381.5578 1.2574.8372a26.0556 26.0556 0 0 0-3.4334 8.0651Z"/>
    </symbol>

    <symbol id="gérant" viewBox="0 0 27 25">
        <path fill-rule="evenodd" d="M0 12.7921c.002.042.0053.0836.0082.1254.0026.0367.0046.0738.0078.1103.0044.0484.0103.0964.0159.1445.004.0348.0072.0698.0118.1044.007.0518.0156.103.0238.1543.0049.0305.0089.0614.0142.0917.0143.0806.0302.1606.0478.2401.0076.0343.0167.0679.0248.102.011.0456.0214.0914.0334.1366.0103.0386.022.0765.033.1149.0116.0401.0226.0803.035.1201.0123.0395.026.0785.0392.1177.0126.0377.0247.0757.0382.1131.0143.0399.03.0792.0451.1188.0138.0359.0271.072.0415.1075.0162.0399.0337.0791.0507.1186.015.0346.0295.0692.0451.1034.018.0395.0371.0784.056.1174.0161.0333.032.0668.0487.0998.0198.039.0406.0774.0612.1159.0172.0322.0343.0645.052.0963.0215.0384.044.0762.0663.1139.0184.0312.0366.0624.0555.0931.0232.0376.0472.0747.0712.1117.0195.03.0389.0602.0588.0897.0248.037.0504.0733.0761.1095.0205.029.041.0579.062.0864.0265.036.0536.0714.0808.1068.0216.0278.043.0557.065.083a6.463 6.463 0 0 0 .1535.1837c.027.031.0545.0615.0822.092l3.6427-3.6232L0 12.7921Z" clip-rule="evenodd"/>
        <path fill-rule="evenodd" d="M4.454 18.1637c.0624.015.1252.0292.1882.0422a3.442 3.442 0 0 1 .201-.2357l.0074-.008a3.9695 3.9695 0 0 1 .1809-.1809c.0116-.0109.0231-.0219.035-.0327a4.912 4.912 0 0 1 .076-.0683l.009-.0078c.4095-.3586.9437-.7019 1.6503-1.1006.4745-.2681 1.0253-.56 1.664-.896l.4939-.2605 1.4101-.7455c.088-.047.1772-.0948.2674-.1433l.1086-.0584.0003-.0001.0028-.0013c.0079-.0041.0161-.0073.0243-.0107a.2906.2906 0 0 1 .1732-.0153.2914.2914 0 0 1 .1294.0645l.2045.1784a5.7872 5.7872 0 0 0 .401-1.6531l.0018-.0228a5.5973 5.5973 0 0 0 .0121-.1683c.0007-.0136.0016-.0271.0024-.0407.003-.0591.005-.1183.0061-.1773.0004-.0184.0005-.0368.0007-.0553a5.9045 5.9045 0 0 0-.0002-.1458c-.0002-.0145-.0003-.0291-.0006-.0436a5.8278 5.8278 0 0 0-.4883-2.2087c-.0064-.0146-.0127-.0293-.0193-.0439a5.5502 5.5502 0 0 0-.1213-.2529c-.006-.0117-.0119-.0234-.018-.035-.54-1.0415-1.3861-1.9013-2.4193-2.4608l-.0014-.0007a6.0302 6.0302 0 0 0-.1227-.0646l-.0044-.0022a5.642 5.642 0 0 0-.1215-.0602l-.007-.0034a6.0324 6.0324 0 0 0-.1207-.0561l-.0092-.0041a5.8576 5.8576 0 0 0-.1202-.0524l-.0109-.0046a5.7594 5.7594 0 0 0-.1206-.0491l-.0117-.0046a5.7799 5.7799 0 0 0-.121-.046l-.013-.0047a5.7379 5.7379 0 0 0-.1216-.0427l-.0133-.0045a5.9358 5.9358 0 0 0-.1232-.04l-.013-.004a5.5203 5.5203 0 0 0-.1249-.037 5.6945 5.6945 0 0 0-.14-.038l-.0118-.0033a6.3166 6.3166 0 0 0-.1299-.0316l-.0102-.0023a5.522 5.522 0 0 0-.1337-.0291l-.0076-.0016a6.3168 6.3168 0 0 0-.1426-.0273 5.8899 5.8899 0 0 0-.7428-.0838l.0035 5.8215c0 .0021-.0005.004-.0006.006a.2842.2842 0 0 1-.0049.0499c0 .0005 0 .001-.0002.0016a.2956.2956 0 0 1-.0148.0489c-.0018.0046-.004.009-.006.0136a.2833.2833 0 0 1-.018.0335c-.0026.0043-.0051.0087-.008.0129a.287.287 0 0 1-.0314.0382c-.0005.0005-.0009.0012-.0015.0017 0 .0002-.0002.0002-.0002.0003l-.0004.0004-4.1395 4.1174a5.8212 5.8212 0 0 0 2.154 1.233l.0129.004c.0552.0173.1108.0336.1666.0492.0124.0035.0248.0068.0373.0102.0549.015.11.0296.1655.043.0002.0005.0007.0006.0012.0008Z" clip-rule="evenodd"/>
        <path fill-rule="evenodd" d="M5.5597 6.678C2.8635 6.81.6408 8.7641.112 11.3258l-.0003.0015a5.7486 5.7486 0 0 0-.067.3958 5.9465 5.9465 0 0 0-.0228.1916 6.4499 6.4499 0 0 0-.0056.0632 5.9627 5.9627 0 0 0-.0162.2244c0 .002 0 .004-.0002.006l5.563-.0004-.0033-5.53Zm9.884 5.5309c1.8662 0 3.1182-1.4269 3.8399-2.624.8422-1.3971 1.3865-3.2245 1.3865-4.6553C20.6701 2.2114 18.3255 0 15.4437 0c-2.8819 0-5.2264 2.2114-5.2264 4.9296 0 1.4309.5442 3.2582 1.3864 4.6553.7216 1.1971 1.9736 2.624 3.84 2.624Zm10.2152 6.5523c-.6108-.9224-1.9025-1.6098-4.4761-2.9794-.3983-.2119-.844-.4491-1.3187-.704l-4.3181 3.7606a.2919.2919 0 0 1-.3833-.0002l-3.9595-3.4542c-.0003-.0003-.0008-.0005-.0011-.0009l-.3499-.3053-.1306.0701-.0278.015-.0085.0044-.0016.0009-.0068.0037-.0161.0086-.0135.0072-.0119.0063-.2633.1403c-.0035.002-.008.0043-.0105.0056l-.0194.0103c-.465.2473-.895.4733-1.2892.6805a78.8623 78.8623 0 0 1-.1503.079l-.0034.0018-.0341.0179c-.2085.1096-.407.2142-.5964.3144l-.0045.0024-.0322.017-.1727.0917-.0121.0065c-.0525.0279-.104.0555-.155.0828l-.0731.0392-.089.0479-.0167.009-.1317.0713-.0843.046-.0306.0169c-.6146.3365-1.0669.6062-1.4175.8486a6.8725 6.8725 0 0 0-.2161.1556l-.0023.0017a6.6291 6.6291 0 0 0-.1286.0998c-.012.0095-.0242.0191-.0356.0284a5.2192 5.2192 0 0 0-.156.133l-.0033.0028-.0043.0038a3.155 3.155 0 0 0-.0865.0803l-.0062.0059-.0168.0164a3.7376 3.7376 0 0 0-.0684.0684l-.0122.0125a2.9478 2.9478 0 0 0-.0681.0731l-.0187.0211a3.247 3.247 0 0 0-.0566.0662c-.005.006-.0098.0117-.0146.0177-.0064.0079-.0129.0158-.0191.0237a3.641 3.641 0 0 0-.0546.0706 2.9788 2.9788 0 0 0-.052.0725c-.0037.0054-.0077.0107-.0114.0161-.0021.0031-.0046.0059-.0068.0088a2.5293 2.5293 0 0 0-.05.0768c-.5492.8827-.5351 2.1353-.5071 4.6308.0053.4773.0113 1.0093.0138 1.591h21.7699c-.0013-.5869.0015-1.1227.004-1.6034.0133-2.4804.02-3.7251-.5829-4.6355Zm-9.7425 4.8623h-1.1245v-1.113h1.1245v1.113Zm0-2.2239h-1.1245v-1.1133h1.1245v1.1133Z" clip-rule="evenodd"/>
    </symbol>

    <symbol id="hamburger_menu" viewBox="0 0 31 20">
        <rect width="30.2588" height="3.5294" rx="1.7647"/>
        <rect width="21.1765" height="3.5294" y="16.4706" rx="1.7647"/>
    </symbol>

    <symbol id="menus" viewBox="0 0 44 25">
        <path d="M25.4587 11.0407a3.3694 3.3694 0 0 1-1.0383-.2733c-.1116-.0737-.4814-.3627-.1637-.8056.4362-.7528.1847-1.9631-1.2413-2.253a7.878 7.878 0 0 0-1.2607-2.4845c-.7708-1.0107-1.7859-1.808-3.0172-2.3695-1.4592-.6656-3.235-1.003-5.2778-1.003-2.0429 0-3.8186.3374-5.2778 1.003-1.2313.5615-2.2464 1.3588-3.0172 2.3695a7.8669 7.8669 0 0 0-1.2455 2.4345c-1.7338.15-2.0613 1.4926-1.591 2.303.3702.5156-.1942.8246-.1947.8246a3.3952 3.3952 0 0 1-.9965.2543c-1.579.1565-1.7622 2.9961 1.0604 3.5636v1.5355c0 .5725.4267 1.1136 1.1847 1.5924.0016.9103.0417 2.6756 1.2692 4.2587 1.549 1.9968 4.4577 3.009 8.6465 3.009s7.0976-1.0122 8.646-3.009c1.1966-1.5425 1.2654-3.2574 1.2692-4.1866.8312-.4961 1.3023-1.0627 1.3023-1.6645v-1.561c2.6995-.6217 2.5001-3.3838.9434-3.5381Zm-11.999-8.484c8.9523 0 9.2108 6.6197 9.2108 7.3745 0 .6272-.9553 1.3053-2.5554 1.814-1.7726.5636-4.1362.874-6.6554.874-2.5192 0-4.8828-.3104-6.6554-.874-1.6001-.5087-2.5554-1.1868-2.5554-1.814 0-.7548.2585-7.3746 9.2108-7.3746Zm5.8432 13.2955a9.3568 9.3568 0 0 0-.6365 1.1464c-.0602.1225-.1166.2418-.1703.3546-.0553.116-.1062.2234-.1523.3177l-.7205 1.4644a.574.574 0 0 1-.1933.2261.574.574 0 0 1-.2806.0987.5809.5809 0 0 1-.5237-.2381l-.5422-.7427c-.1415-.1947-.3101-.4685-.488-.7585a48.8169 48.8169 0 0 0-.1935-.3134c-.3825-.6153-.8004-1.241-1.2707-1.6317a3.411 3.411 0 0 0 1.3916-.5814 1.0642 1.0642 0 0 1 1.2551.0162c.3996.2933 1.0562.5791 2.1177.6365.1431.0076.2784.0089.4072.0052ZM2.9543 14.6951a7.3527 7.3527 0 0 0 1.3403-.0663 1.075 1.075 0 0 1 .9824.3811c.3323.4104 1.0268.9114 2.423.8371 1.0675-.0574 1.7246-.3464 2.1236-.6408a1.0773 1.0773 0 0 1 1.2638-.0287c.1717.121.354.2261.5448.3141l-.0021.0057.0743.0267c.1488.0648.3017.1197.4578.1644l1.1877.4265c.4061.1458.8528.7346 1.2432 1.3337a30.8003 30.8003 0 0 1-1.2367.0244c-3.1365 0-5.9568-.4543-7.9097-1.177a10.1147 10.1147 0 0 1-.8344-.3508c-.7753-.3715-1.346-.7943-1.658-1.2501Zm9.6732 4.9852-.4113.2404c-.7164.2998-1.2435.8863-1.7063 1.4762l-.6951.8841a.5907.5907 0 0 1-.9775-.0737l-.8658-1.5269c-.0526-.093-.113-.2061-.1771-.3258-.2307-.4315-.5048-.9433-.8185-1.3041 1.6217.36 3.5578.5868 5.6516.6298Zm8.7595 1.8785c-1.408 1.8157-4.1297 2.7363-8.0892 2.7363-3.9594 0-6.6811-.9206-8.0891-2.7363-.932-1.2015-1.0898-2.5563-1.1164-3.4401.2626.124.5499.2423.8584.3545l1.3177.8692c.3094.2316.6672.9007.9044 1.3445.0662.1237.1286.2405.1856.3411l.8659 1.5272a1.294 1.294 0 0 0 1.1276.656 1.2917 1.2917 0 0 0 1.0171-.4947l.6952-.8843c.4082-.5203.8654-1.034 1.4418-1.2687a.3527.3527 0 0 0 .0449-.0221l1.471-.86a33.8154 33.8154 0 0 0 1.997-.0956l.0375.0515a1.2786 1.2786 0 0 0 1.0393.5297c.0379 0 .0764-.0016.1149-.0049a1.2788 1.2788 0 0 0 1.0453-.7162l.0629-.1274c1.6775-.2651 3.1153-.6609 4.1823-1.145-.0314.8843-.2011 2.2082-1.1141 3.3853Zm.6468-5.5822c-.257.1204-.5351.235-.8344.3438a15.2855 15.2855 0 0 1-1.6466.4874c.2169-.405.4565-.7878.6843-.9749l.2738-.2248a2.0816 2.0816 0 0 0 .8072-.5982 1.0757 1.0757 0 0 1 .4417-.3191 1.0757 1.0757 0 0 1 .5413-.062c.484.0695.9739.0895 1.4619.0597-.3197.4714-.916.9076-1.7292 1.2881Z"/>
        <path d="M9.9051 6.5266c.223.1287.4682.2217.6488.2217.1061 0 .19-.0322.2338-.108.1185-.2052-.1857-.5033-.5397-.7076-.354-.2044-.7642-.3188-.8826-.1137-.04.0694-.0533.1907.111.3745.1251.1322.2697.2445.4287.333Zm8.2342.8741c.1562.0934.3258.1625.5029.2047a.7179.7179 0 0 0 .1467.0169c.1373 0 .2023-.0548.233-.108.0401-.0694.0534-.1906-.1109-.3744a1.9895 1.9895 0 0 0-.9317-.538c-.2414-.0504-.3397.0218-.3797.0912-.04.0694-.0533.1907.111.3744a1.787 1.787 0 0 0 .4287.3332Zm-3.2327-.9212c.1897 0 .4495-.21.656-.4607.2599-.3155.4403-.7013.2574-.8519-.1828-.1506-.5269.1004-.7867.4158-.2599.3156-.4402.7013-.2574.852a.1996.1996 0 0 0 .1307.0448Zm-1.8855 1.7751c-.0403.0699-.0536.1922.1124.378a2.016 2.016 0 0 0 .9441.545.7307.7307 0 0 0 .1485.0171c.1386 0 .2041-.0552.235-.1087.0404-.07.0537-.1923-.1123-.378a1.811 1.811 0 0 0-.4345-.3376c-.3584-.207-.7736-.323-.8932-.1158Zm-4.222.9401a.7333.7333 0 0 0 .1485-.017 1.8121 1.8121 0 0 0 .5096-.2076c.3584-.2069.6665-.5084.5469-.7156-.1196-.2071-.5347-.0911-.8931.1159-.3584.207-.6665.5084-.547.7155.031.0536.0965.1088.2351.1088Zm3.2085-4.4678c.1828 0 .4313-.0943.6573-.2248.3583-.207.6664-.5084.5468-.7156-.0403-.0699-.1396-.1424-.3835-.0917a2.0165 2.0165 0 0 0-.9441.5452c-.166.1857-.1527.308-.1124.378.0442.0765.1288.1089.2359.1089Zm26.378 4.5357a.3677.3677 0 0 0-.3721.3632c.0007-.0029.0009.0073.0013.0123.0005.0056.0003.014.0005.0208a2.9206 2.9206 0 0 1-.0049.1413 2.4679 2.4679 0 0 1-.0224.1986 3.4398 3.4398 0 0 1-.0865.4015 3.7737 3.7737 0 0 1-.1367.3953c-.0246.066-.0563.1289-.0845.1937-.0299.064-.0634.1265-.095.1902l-.0072.0144a.2402.2402 0 0 0 .4126.2433c.045-.065.0919-.1291.1355-.1956.0419-.0675.2414-.4144.2414-.4144.0383-.0707.0703-.1449.1048-.2181a4.0425 4.0425 0 0 0 .17-.4594c.0243-.079.045-.1598.0634-.2426.0091-.0415.042-.2507.0431-.2724a.3678.3678 0 0 0-.3633-.3721Zm-.9289 3.2456a.3752.3752 0 1 0-.5717-.4861.3752.3752 0 0 0 .5717.4861Z"/>
        <path d="M42.5134 0h-2.853a2.7019 2.7019 0 0 0-2.6364 2.1503l-.0292.1476a17.5238 17.5238 0 0 0-3.0808-.2619c-3.8789 0-7.0237 1.1597-7.0237 2.5901h-.0014s-.3522 2.9586 1.1222 5.8645c1.293 2.548 1.9818 5.2622 1.7337 7.4912a6.2202 6.2202 0 0 1-.2421 1.1305c-.1158.3787-.2329 1.2652.0995 2.3785l.0014-.0004c.1981.9295 2.0522 1.6577 4.3104 1.6577 2.2582 0 4.1122-.7282 4.3108-1.6577.3324-1.1134.2153-1.9994.0996-2.3781a6.2562 6.2562 0 0 1-.2422-1.1305c-.2481-2.229.4408-4.9432 1.7337-7.4912 1.4749-2.9059 1.1222-5.8645 1.1222-5.8645h-.0005c0-.87-1.1634-1.64-2.9479-2.1096l.0328-.1662a1.6803 1.6803 0 0 1 1.6379-1.3318h2.853a.5092.5092 0 1 0 0-1.0185Zm-8.5995 2.7373a18.7825 18.7825 0 0 1 2.9504.2219l-.0001.0003-.6698 3.3906c.0013-.0002.0025 0 .0038-.0002a19.6172 19.6172 0 0 1-2.2842.1294c-3.4466 0-6.2408-.838-6.2408-1.8712 0-1.0333 2.7942-1.8708 6.2408-1.8708h-.0001Zm1.6932 6.5845c-.4826.4077-1.0224.8168-1.8195 1.183-1.0837.4978-2.2606.5625-3.4981.1923a6.1659 6.1659 0 0 1-1.4303-.6354.4056.4056 0 0 1 .0865-.1373c.1859-.2016.7569-.5262 2.4915-.4347 1.8642.0984 3.2405-.0036 4.1739-.188l-.004.0201Zm-7.9978-2.575a.5754.5754 0 0 1 .83-.5824 6.491 6.491 0 0 0 .956.3727c1.2152.374 2.8202.5796 4.5187.5796a19.6501 19.6501 0 0 0 2.1551-.1154l-.0034.0006-.3278 1.6584a7.823 7.823 0 0 1-.6465.1216c-.9721.1437-2.2247.1806-3.6225.1069-1.55-.0817-2.5593.1425-2.9999.6666a1.0157 1.0157 0 0 0-.1319.2002c-.4058-.9856-.6177-2.1214-.7278-3.0088Zm11.6701 3.4711c-1.4101 2.7794-2.048 5.5603-1.7953 7.8301.0495.4207.1381.8359.2648 1.2402.0259.0856.2454.8707-.1009 2.0299l-.0069.0232-.0051.0236c-.0403.1898-.369.493-1.0115.7416-.7324.2833-1.6953.4398-2.7105.4398s-1.9777-.1565-2.7105-.4398c-.6425-.2486-.9708-.5518-1.0115-.7416l-.1273-.512c-.1741-.9009-.0088-1.4911.0134-1.5648a6.7952 6.7952 0 0 0 .2648-1.2402c.2375-2.1329-.3112-4.7172-1.5488-7.3275a6.8569 6.8569 0 0 0 1.3017.5469 5.9752 5.9752 0 0 0 1.733.2643 5.2635 5.2635 0 0 0 2.2101-.48 7.774 7.774 0 0 0 1.3883-.8192l-1.9127 9.6815c-1.6455.0632-2.9213.5108-2.9213 1.0539 0 .5865 1.4868 1.0619 3.3209 1.0619s3.3209-.4754 3.3209-1.0619c0-.5168-1.1549-.9471-2.6845-1.0421l2.1178-10.7212c.7694-.6438 1.5907-1.1795 3.3845-1.4107-.1562.8097-.3982 1.6851-.7734 2.4241Zm.9379-3.4688a17.1197 17.1197 0 0 1-.059.4279.3012.3012 0 0 0-.0374.0017c-1.5993.187-2.5251.6045-3.2513 1.1102a.3271.3271 0 0 0-.0194-.0053l.284-1.4368h-.0003a11.298 11.298 0 0 0 1.2992-.3097 6.4406 6.4406 0 0 0 .9579-.3722.5744.5744 0 0 1 .7813.2818.5747.5747 0 0 1 .045.3024Zm-.062-2.141c0 .6639-1.1537 1.247-2.8929 1.5792.0008-.0001.0016-.0005.0023-.0006l.5981-3.0272v-.0001c1.3992.343 2.2925.8645 2.2925 1.4487Z"/>
    </symbol>

    <symbol id="payée" viewBox="0 0 25 25">
        <path d="M14.281 5.7584h4.0741a.379.379 0 0 1 0 .7577H14.281a.3787.3787 0 1 1 0-.7577Zm-2.4887.7577h.47a.379.379 0 0 0 .3788-.3788.379.379 0 0 0-.3788-.379h-.47a.379.379 0 0 0 0 .7578Zm2.4887-2.5253h4.0741a.3786.3786 0 0 0 .3583-.3783.3787.3787 0 0 0-.3583-.3783H14.281a.3791.3791 0 0 0-.3584.3783.379.379 0 0 0 .3584.3783Zm-2.4887 5.0495h3.0631a.3786.3786 0 0 0 .3583-.3783.3787.3787 0 0 0-.3583-.3783h-3.0631a.3786.3786 0 0 0-.3583.3783.3787.3787 0 0 0 .3583.3783Zm0 2.5243h2.0532a.379.379 0 0 0 0-.7566h-2.0532a.3787.3787 0 0 0 0 .7566Zm0 2.5253h2.0532a.379.379 0 0 0 0-.7577h-2.0532a.379.379 0 0 0-.2679.1109.3792.3792 0 0 0 0 .5358.3787.3787 0 0 0 .2679.111Zm3.4442 2.1454a.379.379 0 0 0-.3789-.3778h-3.0653a.3775.3775 0 0 0-.281.1033.3776.3776 0 0 0-.1184.275.378.378 0 0 0 .2483.3556.3775.3775 0 0 0 .1511.0227h3.0631a.379.379 0 0 0 .2679-.1109.3792.3792 0 0 0 .1109-.2679h.0023ZM11.7923 3.9908h.47a.3786.3786 0 0 0 .3583-.3783.3787.3787 0 0 0-.3583-.3783h-.47a.3787.3787 0 0 0-.2545.6388.3786.3786 0 0 0 .2545.1178Zm6.5628 16.9152H14.281a.3789.3789 0 1 0 0 .7577h4.0741a.3787.3787 0 1 0 0-.7577Zm-6.0928 0h-.47a.379.379 0 0 0-.2679.1109.379.379 0 0 0 .2679.6468h.47a.379.379 0 0 0 0-.7577Zm1.6409-2.1454a.3774.3774 0 0 0 .3778.3777h4.0741a.3792.3792 0 0 0 .281-.1032.378.378 0 0 0 .1183-.2751.3799.3799 0 0 0-.1183-.275.3783.3783 0 0 0-.281-.1033H14.281a.3768.3768 0 0 0-.2675.1111.3768.3768 0 0 0-.1103.2678Zm-1.6409-.3789h-.47a.3788.3788 0 0 0-.2545.6389.3782.3782 0 0 0 .2545.1177h.47a.3787.3787 0 0 0 0-.7566Zm8.1859-.9832v7.2149a.3807.3807 0 0 1-.3855.3766.3799.3799 0 0 1-.19-.0533l-2.3009-1.3954c-.0444 0-2.5109 1.5821-2.4987 1.451.0067.1277-2.4509-1.4443-2.4975-1.451l-2.302 1.3954a.3805.3805 0 0 1-.3803.0037.3805.3805 0 0 1-.1941-.327v-6.7638h-6.895A2.8076 2.8076 0 0 1 0 15.0454V6.6339a.3822.3822 0 0 1 .58-.3211l2.222 1.3899 2.0476-1.2788V2.8064A2.8242 2.8242 0 0 1 7.6526 0h9.9925a2.8063 2.8063 0 0 1 2.8031 2.8042v4.7885a4.9205 4.9205 0 0 1 4.5028 4.9029 4.9207 4.9207 0 0 1-4.5028 4.9029ZM4.8496 15.0454V7.3171L2.9997 8.4704a.3789.3789 0 0 1-.401 0L.7577 7.317v7.7283a2.0458 2.0458 0 0 0 .5821 1.4778 2.0474 2.0474 0 0 0 1.4639.6163 2.0472 2.0472 0 0 0 1.4638-.6163 2.0466 2.0466 0 0 0 .582-1.4778ZM9.6992 2.8042A2.0488 2.0488 0 0 0 7.6527.7577a2.0476 2.0476 0 0 0-2.0454 2.0465v12.2412a2.7951 2.7951 0 0 1-.8888 2.0465h4.9807V2.8042Zm9.9913 14.5943a4.9209 4.9209 0 0 1-4.5028-4.9029 4.9209 4.9209 0 0 1 4.5028-4.903V2.8043A2.0475 2.0475 0 0 0 17.6451.7577H9.567a2.794 2.794 0 0 1 .8888 2.0465v21.1359a21.6234 21.6234 0 0 1 2.1187-1.2221c-.0089-.1311 2.4531 1.4443 2.4975 1.4443l2.3032-1.3865a.3766.3766 0 0 1 .3921 0l1.9232 1.1655v-6.5428Zm.3789-9.0659a4.1662 4.1662 0 0 0-2.946 7.1123 4.1659 4.1659 0 0 0 5.892 0 4.1663 4.1663 0 0 0-2.946-7.1123Zm0 3.7875c-.6166 0-.9288-.2733-.9288-.81-.0223-.8954 1.4943-1.0988 1.8009-.2766a.3786.3786 0 0 0 .4961.2027.3785.3785 0 0 0 .2027-.496 1.6385 1.6385 0 0 0-1.1976-.9544c.0189-.2944.0122-.6921-.3789-.6977-.3911-.0056-.3977.4033-.3788.6966a1.5564 1.5564 0 1 0 .3788 3.0897c.62 0 .9333.2733.9333.81.0222.8954-1.4943 1.0988-1.801.2766a.3776.3776 0 0 0-.4955-.2022c-.7122.4855.4333 1.3754.9844 1.4443-.0178.2933-.0123.6911.3788.6977.3911.0067.3978-.4021.3789-.6955a1.5551 1.5551 0 0 0 .7532-2.7554 1.5557 1.5557 0 0 0-1.1287-.3321l.0022.0023Z"/>
    </symbol>

    <symbol id="plats" viewBox="0 0 29 25">
        <path d="M27.4954 9.924a3.641 3.641 0 0 1-1.1213-.2951c-.1206-.0796-.52-.3917-.1768-.8701.471-.813.1994-2.1202-1.3407-2.4332a8.5063 8.5063 0 0 0-1.3615-2.6833c-.8325-1.0916-1.9288-1.9526-3.2586-2.559C18.6606.3643 16.7428 0 14.5365 0s-4.1241.3644-5.7 1.0832c-1.3298.6065-2.4262 1.4675-3.2586 2.5591a8.4963 8.4963 0 0 0-1.3452 2.6292c-1.8725.1621-2.2261 1.612-1.7183 2.4873.4.5568-.2096.8906-.2102.8906a3.6662 3.6662 0 0 1-1.0762.2746c-1.7054.169-1.9032 3.2358 1.1453 3.8487v1.6583c0 .6184.4608 1.2028 1.2794 1.7198.0017.9831.045 2.8896 1.3707 4.5994C6.6964 23.9068 9.8378 25 14.3617 25s7.6653-1.0932 9.3376-3.2498c1.2923-1.6658 1.3667-3.5179 1.3708-4.5215.8976-.5358 1.4065-1.1477 1.4065-1.7977v-1.6859c2.9154-.6714 2.7001-3.6545 1.0188-3.821ZM14.5365.7612c9.6685 0 9.9476 7.1493 9.9476 7.9646 0 .6773-1.0317 1.4097-2.7597 1.9591-1.9145.6087-4.4672.9439-7.1879.9439s-5.2734-.3352-7.1879-.9439c-1.728-.5494-2.7598-1.2818-2.7598-1.9591 0-.8153.2792-7.9646 9.9477-7.9646Zm6.3106 14.3592a10.1036 10.1036 0 0 0-.6874 1.2382c-.065.1323-.1259.2611-.1838.3829-.0598.1253-.1148.2412-.1646.3431l-.7782 1.5816a.6188.6188 0 0 1-.5117.3507.6284.6284 0 0 1-.5657-.257l-.5855-.8022c-.1528-.2102-.3349-.5059-.527-.8192a58.2065 58.2065 0 0 0-.209-.3385c-.4131-.6645-.8644-1.3403-1.3724-1.7622a3.683 3.683 0 0 0 1.5029-.6279 1.1496 1.1496 0 0 1 1.3556.0175c.4315.3168 1.1406.6254 2.2871.6875.1545.0082.3007.0095.4397.0055ZM3.1907 13.8707a7.9263 7.9263 0 0 0 1.4474-.0716 1.1614 1.1614 0 0 1 1.061.4117c.359.4432 1.109.9843 2.6168.9041 1.153-.0621 1.8626-.3742 2.2936-.6922a1.1638 1.1638 0 0 1 1.3649-.031c.1854.1307.3823.2443.5884.3393l-.0023.0062.0803.0288c.1607.07.3258.1293.4943.1775l1.2828.4606c.4385.1575.921.7934 1.3426 1.4405-.438.0175-.8832.0263-1.3356.0263-3.3874 0-6.4334-.4907-8.5425-1.2712-.3232-.1201-.6236-.2463-.9011-.3789-.8373-.4012-1.4536-.8577-1.7906-1.3501Zm10.447 5.384-.4442.2597c-.7737.3238-1.3429.9573-1.8427 1.5943l-.7508.9549a.6372.6372 0 0 1-.5491.2414.6368.6368 0 0 1-.5067-.3211l-.935-1.649c-.0568-.1004-.1221-.2226-.1913-.3519-.2491-.466-.5451-1.0187-.884-1.4084 1.7516.3888 3.8425.6338 6.1038.6801Zm9.4603 2.0289c-1.5207 1.9609-4.4601 2.9552-8.7363 2.9552-4.2763 0-7.2157-.9943-8.7364-2.9552-1.0065-1.2976-1.1769-2.7609-1.2056-3.7153.2837.1339.5938.2616.927.3828l1.4232.9388c.334.25.7205.9727.9767 1.452.0715.1336.139.2598.2005.3684l.9351 1.6494a1.3975 1.3975 0 0 0 1.2178.7085 1.395 1.395 0 0 0 1.0985-.5344l.7509-.955c.4408-.5618.9345-1.1167 1.5571-1.3701a.3973.3973 0 0 0 .0485-.024l1.5887-.9287a36.4545 36.4545 0 0 0 2.1568-.1033l.0404.0557a1.3808 1.3808 0 0 0 1.1225.572c.041 0 .0825-.0017.1241-.0052a1.3818 1.3818 0 0 0 1.1289-.7735l.068-.1376c1.8116-.2864 3.3645-.7138 4.5168-1.2367-.0339.955-.2172 2.3849-1.2032 3.6562Zm.6985-6.0288c-.2775.13-.5779.2537-.9011.3712a16.4683 16.4683 0 0 1-1.7783.5264c.2342-.4374.493-.8508.7389-1.0528l.2958-.2428a2.2477 2.2477 0 0 0 .8718-.646 1.1623 1.1623 0 0 1 1.0616-.4117 7.771 7.771 0 0 0 1.5789.0645c-.3453.5092-.9893.9803-1.8676 1.3912Z"/>
        <path d="M10.6972 5.0487c.2408.139.5056.2395.7007.2395.1146 0 .2052-.0347.2525-.1167.1279-.2216-.2006-.5435-.5829-.7642s-.8253-.3443-.9532-.1227c-.0432.0749-.0576.2059.1198.4044.1352.1428.2913.264.4631.3597Zm8.8932.9441c.1687.101.3518.1755.5431.2211a.7747.7747 0 0 0 .1584.0182c.1483 0 .2185-.0591.2517-.1166.0432-.075.0576-.2059-.1198-.4044a2.1486 2.1486 0 0 0-1.0062-.581c-.2607-.0545-.3669.0236-.4101.0985-.0432.075-.0576.206.1198.4044.1351.1428.2913.2641.4631.3598Zm-3.4916-.9949c.2048 0 .4854-.2268.7085-.4976.2806-.3407.4754-.7574.278-.92-.1975-.1627-.5691.1084-.8497.4491-.2807.3407-.4754.7574-.278.92a.2155.2155 0 0 0 .1412.0485Zm-2.0362 1.917c-.0436.0755-.058.2076.1214.4082a2.1773 2.1773 0 0 0 1.0196.5887.7902.7902 0 0 0 .1604.0184c.1497 0 .2204-.0596.2538-.1174.0436-.0755.058-.2077-.1213-.4083a1.957 1.957 0 0 0-.4693-.3645c-.3871-.2235-.8354-.3489-.9646-.1251ZM9.5031 7.9302a.791.791 0 0 0 .1604-.0184 1.9579 1.9579 0 0 0 .5504-.2241c.387-.2235.7197-.5491.5906-.7728s-.5775-.0985-.9646.125c-.387.2236-.7198.5491-.5906.7729.0334.0579.1041.1174.2538.1174Zm3.465-4.8252c.1974 0 .4658-.1018.7098-.2427.3871-.2235.7198-.5491.5907-.7728-.0436-.0755-.1508-.1539-.4142-.099a2.178 2.178 0 0 0-1.0197.5887c-.1793.2006-.1649.3327-.1213.4082.0477.0827.139.1177.2547.1177Z"/>
    </symbol>

    <symbol id="prendre_commande" viewBox="0 0 26 25">
        <path d="M12.3946 24.0385H1.5498a9.0413 9.0413 0 0 0 1.939-5.6214V.9615h16.7305v9.2051a.4804.4804 0 0 0 .4808.4807.4804.4804 0 0 0 .4807-.4807V.4808A.4808.4808 0 0 0 20.7001 0H3.0081a.4806.4806 0 0 0-.4808.4808V18.417a8.0959 8.0959 0 0 1-2.3865 5.7622.4806.4806 0 0 0 .34.8207h11.9138a.4808.4808 0 0 0 0-.9615Z"/>
        <path d="M17.3686 6.0557H6.3398a.4808.4808 0 0 0 0 .9615h11.0288a.481.481 0 0 0 .4808-.4808.481.481 0 0 0-.4808-.4807Zm.4808 3.7381a.4801.4801 0 0 0-.1408-.34.4796.4796 0 0 0-.34-.1408H6.3398a.4808.4808 0 1 0 0 .9615h11.0288a.4796.4796 0 0 0 .4442-.2967.4801.4801 0 0 0 .0366-.184Zm-4.7936 3.2574a.4801.4801 0 0 0-.1408-.34.4801.4801 0 0 0-.34-.1408H6.3398a.481.481 0 0 0-.4808.4808.481.481 0 0 0 .4808.4808h6.2352a.4801.4801 0 0 0 .34-.1408.4801.4801 0 0 0 .1408-.34Zm-6.716 2.7767a.4806.4806 0 0 0-.34.8207.4806.4806 0 0 0 .34.1408h3.9215a.4806.4806 0 1 0 0-.9615H6.3398Zm17.2024-1.4373a6.2094 6.2094 0 0 0-9.0726.304 6.2083 6.2083 0 0 0-1.4403 3.0261l-.3821-.3821a.4808.4808 0 1 0-.6798.6799l1.1063 1.1062a.4821.4821 0 0 0 .6805 0l1.1065-1.1062a.4808.4808 0 0 0-.6798-.6799l-.1092.1092a5.248 5.248 0 0 1 1.8674-2.8131 5.2486 5.2486 0 1 1-.5058 7.8651.4811.4811 0 0 0-.6799 0 .4812.4812 0 0 0 0 .6799 6.2146 6.2146 0 0 0 8.7869-.0023 6.2149 6.2149 0 0 0 .002-8.7868h-.0001Z"/>
        <path d="M19.148 14.6226a.48.48 0 0 0-.4442.2967.4805.4805 0 0 0-.0366.184v3.6819a.4878.4878 0 0 0 .1413.3403l1.7424 1.7424a.4806.4806 0 0 0 .8184-.3406.4806.4806 0 0 0-.1386-.3392l-1.6019-1.602v-3.4828a.4805.4805 0 0 0-.4808-.4807Z"/>
    </symbol>

    <symbol id="serveur" viewBox="0 0 27 25">
        <path d="M3.3017 15.6203c-.4331-.4175-.6205-.517-.7393-.517-.052 0-.0907.0189-.1312.0388-.643.3214-2.2471 1.4401-2.3923 1.7511l-.0008.0018c-.0797.1681-.028.3165.0967.6363.067.1716.1428.366.202.603.2676 1.0706.2134 2.3244.161 3.537-.0535 1.2391-.104 2.4095.1849 3.2652.0121.0359.0243.0428.043.0497.12.0447.4336-.0171.779-.2195.33-.1951.9695-.501 1.71-.8552 1.1581-.554 3.3138-1.5852 3.5117-1.9359.1003-.226.0408-.5937-.1843-1.1189-.5398-1.2593-2.4468-4.4775-3.2404-5.2364Zm.3363 6.2322c-.3455.0376-.6608-.2102-.6984-.5557-.0451-.353.2102-.6684.5557-.7059.353-.0376.6683.2103.7059.5558.0375.3529-.2103.6682-.5632.7058ZM17.388 1.147 13.9472 0l-3.441 1.147v3.2154h6.8818V1.147Zm3.8734 8.846 1.5641-3.128H4.4434l1.564 3.128h15.254Zm4.5688 4.3243c-.4504-.3625-1.305-.496-1.8712-.4158-1.6202.2225-4.0551 1.5228-5.4199 2.618a1.2303 1.2303 0 0 1-.2722.3535c-.3989.3588-1.048.4938-1.8095.4938-1.2441 0-2.7884-.3604-4.0318-.6947-.0877-.0236-.1623-.0437-.2215-.059a.3127.3127 0 1 1 .157-.6056c.0606.0157.137.0362.2269.0605.5864.1575 1.678.4509 2.7716.5951 1.5897.2093 2.2309-.0232 2.489-.2552a.592.592 0 0 0 .1542-.2126c.0006-.0012.0008-.0023.0014-.0035.0057-.0131.0105-.0268.0155-.0405.003-.0088.006-.0175.0087-.0268l.0017-.0061c.0308-.1095.0412-.2521.0116-.4413-.0545-.3467-.3052-.6766-.7459-.9838-2.0532-1.4323-7.08-1.7716-8.5788-1.4706l-.0014.0003c-1.3105.2571-3.1273 1.3223-4.4538 2.1001l-.2498.1463a6.402 6.402 0 0 1 .0887.1081c.355.4419.784 1.0766 1.2092 1.7578l.0017.0027c.0345.0554.069.111.1035.1669l.0051.0084a35.511 35.511 0 0 1 .3192.5273l.0952.1609.0035.0061a43.0151 43.0151 0 0 1 .1901.3266l.018.0313c.0284.0494.0567.0986.0845.1476l.0126.0223c.025.044.0498.0878.0743.1313l.0174.0308c.026.0461.0515.0918.0767.1372l.0212.038a51.3087 51.3087 0 0 1 .091.165l.0619.1133.0179.033a40.1668 40.1668 0 0 1 .0877.1631c.022.0411.0436.0818.0647.1217.0052.0099.0103.0195.0153.0293.0186.0352.0367.07.0546.1043l.0145.0279c.02.0385.0393.0761.0583.1133l.0168.0328c.0187.0367.0369.0729.0545.1081a14.475 14.475 0 0 1 .0597.1206l.009.0184c.0168.0343.0327.0674.0482.0997l.0067.0139c1.2523-.4604 2.2394-.6273 3.0845-.6273 1.0827 0 1.9321.274 2.8083.5566 1.0204.3291 2.076.6697 3.6154.5531 1.0529-.0781 3.4714-1.1283 5.751-2.4973 2.7293-1.6389 3.9327-2.9313 3.8958-3.4386-.0165-.2218-.1208-.4073-.3185-.5663ZM7.6925 1.547H6.4412v1.2513h1.2513V1.5471Zm-1.8758 0H4.5654v1.2513h1.2513V1.5471Zm-1.8799 0H2.6856v1.2513h1.2512V1.5471Zm21.2727 0h-1.2512v1.2513h1.2512V1.5471Zm-1.8757 0h-1.2513v1.2513h1.2513V1.5471Zm-1.8758 0h-1.2513v1.2513h1.2513V1.5471Z"/>
    </symbol>

    <symbol id="servie" viewBox="0 0 21 25">
        <path d="M11.7465 14.5492c2.4289 0 4.4047-1.9758 4.4047-4.4047s-1.9758-4.405-4.4047-4.405-4.405 1.9758-4.405 4.405c0 2.4292 1.9761 4.4047 4.405 4.4047Zm0-8.266c2.1289 0 3.8611 1.7321 3.8611 3.8613 0 2.1289-1.7322 3.8611-3.8611 3.8611s-3.8611-1.7322-3.8611-3.8611c0-2.1292 1.7322-3.8614 3.8611-3.8614Z"/>
        <path d="M11.7469 13.3273c.0003 0 .0003 0 0 0 .0003 0 .0003 0 0 0h.0006c1.3094-.0003 2.3747-1.4281 2.3747-3.1828 0-1.7409-1.0486-3.1578-2.3436-3.1809-.0022-.0002-.0042-.0002-.0064-.0005-.0083 0-.0166-.0017-.025-.0017-1.3097 0-2.3752 1.4278-2.3752 3.1828s1.0652 3.1831 2.3749 3.1831Zm1.8314-3.1828c0 1.0761-.45 2.0022-1.0922 2.4125.1264-.2347.2286-.5195.2461-.8453.0322-.6094-.2344-1.2014-.7928-1.7594-.443-.4434-.6563-.8945-.6344-1.3417.0267-.5389.3858-.9458.5408-1.0978.9636.0745 1.7325 1.2245 1.7325 2.6317Zm-2.5702-2.4128c-.1264.2347-.2289.5197-.2462.8456-.0322.6094.2345 1.2014.7928 1.7594.4431.4431.6564.8944.6342 1.3417-.0267.5389-.3858.9461-.5406 1.0977-.9639-.0744-1.7327-1.2244-1.7327-2.6316 0-1.0764.45-2.0025 1.0925-2.4128Z"/>
        <path d="M19.2333 18.4506h-2.8097a.8806.8806 0 0 0 .0692-.2859l1.0278-14.3972h.3105a.2719.2719 0 0 0 .272-.272V2.714c0-.5986-.4806-1.0853-1.0762-1.0995l-.1958-.6533C16.6586.3864 16.1394 0 15.5392 0h-7.585c-.6 0-1.1192.3864-1.2917.9614l-.1958.653c-.5956.0142-1.0764.5006-1.0764 1.0995v.7817c0 .1502.1216.2719.272.2719h.3116l.8539 11.9714c-.9514.5011-1.7967.7839-2.512.8347-1.336.0922-2.1152.6525-2.546 1.1381-.0495-.067-.1254-.1131-.215-.1131H.2718a.2719.2719 0 0 0-.2719.272v6.8444c0 .1503.1217.2719.272.2719h1.2827a.2718.2718 0 0 0 .272-.2719v-.0342c.1764.0223.3722.0598.5897.1025.4986.0984 1.0994.2167 1.825.2167.1364 0 .2775-.0042.4228-.0136 2.6583-.1658 3.783-.7442 5.3397-1.5442.7697-.3955 1.6422-.8439 2.8697-1.3266 2.2717-.8906 4.715-1.055 6.0275-1.1434a44.128 44.128 0 0 0 .4336-.0305 1.2721 1.2721 0 0 0 .83-.3978c.2147-.2353.3334-.5347.3334-.8436 0-.6892-.5675-1.2497-1.2648-1.2497ZM7.1833 1.1175a.7998.7998 0 0 1 .7709-.5736h7.5852a.8002.8002 0 0 1 .7709.5736l.1483.4944H7.035l.1483-.4944ZM5.934 2.7139c0-.3078.2503-.558.558-.558h10.5094a.5586.5586 0 0 1 .5578.558v.5097H5.9339V2.714Zm3.6778 14.96h6.3708l-.0325.4536a.3517.3517 0 0 1-.2967.3231H8.7417l.87-.7767Zm7.3636-13.9058-.954 13.3619h-5.8072c.285-.2703.4505-.63.4616-1.0222.0114-.4011-.1364-.78-.4175-1.0692a.219.219 0 0 0-.0216-.0244c-.5175-.5148-1.3295-.587-1.9309-.1723a16.7707 16.7707 0 0 1-.5377.3542 14.1504 14.1504 0 0 1-.4159.2545L6.519 3.7681h10.4564ZM1.2831 24.443H.544v-6.3006h.739v6.3006Zm18.483-4.2692a.7267.7267 0 0 1-.4736.2255 40.345 40.345 0 0 1-.4281.0303c-1.3416.0903-3.8394.2584-6.1897 1.1797-1.2528.4925-2.138.9478-2.9191 1.3489-1.4981.77-2.5806 1.3261-5.1256 1.4853-.8486.055-1.5467-.0833-2.1078-.1939-.2533-.05-.4825-.0953-.695-.118v-5.5325c.1014-.232.6864-1.3559 2.527-1.4831.83-.0592 1.7986-.3872 2.8783-.975a.6704.6704 0 0 0 .063-.033c.4276-.2345.859-.5023 1.319-.8184a.9743.9743 0 0 1 1.225.0961.2583.2583 0 0 0 .0186.0209c.1841.1841.2816.4277.2744.6855-.0072.2567-.1178.4931-.3111.6659l-1.9397 1.7316-.0278.0228a.2718.2718 0 0 0 .1728.4819h11.2066c.3975 0 .7209.3167.7209.7059 0 .2214-.1039.3814-.1881.4736Z"/>
    </symbol>

    <symbol id="soft" viewBox="0 0 18 25">
        <path d="M12.4567 10.0037a.3972.3972 0 0 0-.4019.3923c.0008-.0032.001.0079.0014.0132.0006.0061.0004.0151.0006.0225a3.1975 3.1975 0 0 1-.0053.1526 2.6422 2.6422 0 0 1-.0243.2145 3.6941 3.6941 0 0 1-.0934.4336 4.078 4.078 0 0 1-.1476.427c-.0265.0712-.0608.1391-.0912.2092-.0324.0691-.0685.1365-.1027.2054l-.0077.0155a.259.259 0 0 0 .1007.3385.2593.2593 0 0 0 .3449-.0757c.0486-.0702.0993-.1395.1463-.2113.0453-.0729.2607-.4475.2607-.4475.0414-.0764.0759-.1565.1132-.2356a4.373 4.373 0 0 0 .1837-.4962 3.4259 3.4259 0 0 0 .0684-.2619c.0099-.0448.0454-.2708.0465-.2942a.3968.3968 0 0 0-.2407-.3698.3951.3951 0 0 0-.1516-.0321Zm-1.0035 3.5052a.4052.4052 0 1 0-.6173-.525.4052.4052 0 0 0 .6173.525Z"/>
        <path d="M16.9142 0h-3.0813a2.9183 2.9183 0 0 0-2.8473 2.3224l-.0315.1594a18.9247 18.9247 0 0 0-3.3273-.283c-4.1892 0-7.5855 1.2525-7.5855 2.7974H.0398s-.3805 3.1953 1.212 6.3336C2.648 14.0817 3.392 17.013 3.124 19.4204a6.7154 6.7154 0 0 1-.2615 1.2209c-.125.409-.2515 1.3664.1075 2.5688l.0015-.0005C3.1856 24.2136 5.188 25 7.6268 25c2.4389 0 4.4413-.7864 4.6557-1.7904.359-1.2024.2325-2.1594.1075-2.5683a6.7642 6.7642 0 0 1-.2615-1.221c-.2679-2.4073.476-5.3386 1.8724-8.0905 1.5929-3.1383 1.212-6.3336 1.212-6.3336h-.0005c0-.9397-1.2565-1.7712-3.1838-2.2784l.0355-.1794a1.8144 1.8144 0 0 1 1.7688-1.4385h3.0813a.5499.5499 0 1 0 0-1.0999ZM7.6268 2.9563a20.2859 20.2859 0 0 1 3.1864.2396l-.0001.0004-.7234 3.6618c.0014-.0002.0027 0 .0041-.0002a21.1925 21.1925 0 0 1-2.467.1397c-3.7223 0-6.74-.905-6.74-2.0209 0-1.116 3.0177-2.0204 6.74-2.0204Zm1.8286 7.1113c-.5212.4402-1.1042.882-1.965 1.2776-1.1704.5377-2.4415.6075-3.778.2077a6.6613 6.6613 0 0 1-1.5448-.6863.4378.4378 0 0 1 .0935-.1482c.2008-.2177.8174-.5684 2.6908-.4695 2.0134.1062 3.4997-.0039 4.5078-.203l-.0043.0217ZM.8177 7.2866a.621.621 0 0 1 .8965-.629 7.01 7.01 0 0 0 1.0324.4025c1.3124.404 3.0458.626 4.8802.626a21.2236 21.2236 0 0 0 2.3275-.1247c-.0012.0001-.0024.0005-.0036.0007l-.354 1.791a8.4544 8.4544 0 0 1-.6982.1313c-1.05.1552-2.4028.1951-3.9124.1155-1.674-.0882-2.764.154-3.2398.7199a1.0987 1.0987 0 0 0-.1426.2162c-.4382-1.0644-.667-2.291-.786-3.2494Zm12.6038 3.7487c-1.5229 3.0018-2.2119 6.0052-1.9389 8.4565.0534.4544.1491.9028.286 1.3394.028.0925.2649.9405-.109 2.1924l-.0075.025-.0055.0255c-.0435.205-.3985.5324-1.0925.8009-.791.306-1.8309.475-2.9273.475-1.0964 0-2.1359-.169-2.9273-.475-.694-.2685-1.0484-.5959-1.0924-.8009l-.1375-.553c-.188-.9729-.0095-1.6104.0145-1.6899a7.343 7.343 0 0 0 .286-1.3394c.2565-2.3036-.3362-5.0946-1.6727-7.9138.447.2447.9181.4427 1.4058.5906a6.4503 6.4503 0 0 0 1.8716.2855 5.6835 5.6835 0 0 0 2.387-.5184 8.4038 8.4038 0 0 0 1.4993-.8847L7.1953 21.5071c-1.7771.0682-3.1549.5516-3.1549 1.1382 0 .6333 1.6058 1.1468 3.5866 1.1468s3.5866-.5135 3.5866-1.1468c0-.5582-1.2474-1.023-2.8993-1.1255l2.2872-11.579c.831-.6952 1.7179-1.2738 3.6553-1.5235-.1688.8745-.4301 1.82-.8353 2.618Zm1.0129-3.7462c-.0184.148-.0397.3028-.0637.462a.3263.3263 0 0 0-.0404.002c-1.7272.2019-2.7271.6528-3.5114 1.1989a.3076.3076 0 0 0-.0209-.0057l.3066-1.5517h-.0002a12.205 12.205 0 0 0 1.4031-.3345 6.9541 6.9541 0 0 0 1.0345-.402.6206.6206 0 0 1 .8924.631Zm-.067-2.3124c0 .717-1.246 1.3469-3.1243 1.7056l.0025-.0007.646-3.2693v-.0002c1.5111.3705 2.4758.9337 2.4758 1.5646Z"/>
    </symbol>

    <symbol id="user" viewBox="0 0 18 20">
        <path d="M8.5714 10a5.0002 5.0002 0 0 0 4.6194-3.0866 4.9997 4.9997 0 0 0-1.0839-5.449A4.9995 4.9995 0 0 0 6.6579.3807 5 5 0 0 0 8.5715 10Zm0-8.5714a3.5714 3.5714 0 1 1 0 7.1429 3.5714 3.5714 0 0 1 0-7.143Zm.7143 9.9999H7.8571A7.8571 7.8571 0 0 0 0 19.2857a.714.714 0 0 0 .7143.7142h15.7143a.7139.7139 0 0 0 .7142-.7142 7.8572 7.8572 0 0 0-7.857-7.8572Zm-7.8143 7.1429a6.4285 6.4285 0 0 1 6.3857-5.7143h1.4286a6.4284 6.4284 0 0 1 6.3857 5.7143h-14.2Z"/>
    </symbol>

    <symbol id="voir_carte" viewBox="0 0 18 25">
        <path d="M15.8066 0H.4386A.4385.4385 0 0 0 0 .4386v20.6137a.4381.4381 0 0 0 .2707.4052.4376.4376 0 0 0 .1679.0334h8.8456v3.0706a.4388.4388 0 0 0 .695.3559l1.6974-1.222 1.6974 1.222a.4386.4386 0 0 0 .695-.3559v-3.0706h1.7376a1.6589 1.6589 0 0 0 1.657-1.6568V1.6571A1.6588 1.6588 0 0 0 15.8066 0ZM.8772.8772H2.193v19.7365H.8772V.8772Zm12.3146 22.828-1.2588-.9063a.4393.4393 0 0 0-.5127 0l-1.2589.9063v-2.2143h3.0304v2.2143Zm3.3946-3.8711a.7804.7804 0 0 1-.7798.7796H3.0702V.8772h12.7364a.7807.7807 0 0 1 .7798.78V19.834Z"/>
        <path d="M12.0906 5.8701c-.9659 0-1.7516.9881-1.7516 2.2029 0 1.0231.56 1.8777 1.313 2.1243v4.8834a.4383.4383 0 0 0 .4386.4386.4383.4383 0 0 0 .4386-.4386v-4.8834c.7529-.2466 1.313-1.1012 1.313-2.1243 0-1.2148-.7857-2.2029-1.7516-2.2029Zm0 3.5285c-.4739 0-.8744-.607-.8744-1.3257 0-.7187.4005-1.3256.8744-1.3256.4739 0 .8744.6069.8744 1.3256 0 .7188-.4005 1.3257-.8744 1.3257ZM8.8788 5.8701a.4385.4385 0 0 0-.4386.4386v2.2157a.8744.8744 0 1 1-1.7488 0V6.3087a.4386.4386 0 0 0-.8772 0v2.2157a1.7496 1.7496 0 0 0 1.313 1.689v4.8673a.4386.4386 0 0 0 .8772 0v-4.8673a1.7497 1.7497 0 0 0 1.313-1.689V6.3087a.4385.4385 0 0 0-.4386-.4386Z"/>
        <path d="M7.5658 8.4456a.4383.4383 0 0 0 .4386-.4386V6.3087a.4386.4386 0 0 0-.8772 0V8.007a.4385.4385 0 0 0 .4386.4386Z"/>
    </symbol>

    <symbol id="voir_commande" viewBox="0 0 39 25">
        <path d="M19.4446 25c-5.9236 0-11.5291-2.5097-15.7875-7.0667-.5236-.5597-.493-1.4389.0667-1.9625.5611-.5236 1.4389-.493 1.9639.0667 3.7264 3.9889 8.6111 6.1847 13.7569 6.1847 6.6153 0 12.707-3.618 16.4445-9.7222-3.7361-6.1042-9.8292-9.7222-16.4445-9.7222-6.8583 0-13.1555 3.8903-16.8472 10.4069-.3778.6681-1.2278.9042-1.893.5236-.6681-.3777-.9014-1.225-.5237-1.893C4.371 4.4167 11.5738 0 19.4446 0c7.8723 0 15.0736 4.4167 19.2639 11.8153a1.388 1.388 0 0 1 0 1.368C34.5182 20.5819 27.3169 25 19.4446 25Z"/>
        <path d="M19.4449 19.4443c-3.8291 0-6.9444-3.1153-6.9444-6.9444 0-3.8292 3.1153-6.9445 6.9444-6.9445 3.8292 0 6.9445 3.1153 6.9445 6.9445 0 3.8291-3.1153 6.9444-6.9445 6.9444Zm0-11.1111c-2.2972 0-4.1666 1.8694-4.1666 4.1667 0 2.2972 1.8694 4.1666 4.1666 4.1666 2.2973 0 4.1667-1.8694 4.1667-4.1666 0-2.2973-1.8694-4.1667-4.1667-4.1667Z"/>
    </symbol>

    <symbol id="voir_depenses" viewBox="0 0 25 25">
        <path d="M13.825 11.2135H9.3883c-.1602 0-.3139-.0506-.4272-.1408-.1133-.0902-.177-.2124-.177-.3399 0-.1276.0637-.2498.177-.34.1133-.0902.267-.1408.4272-.1408h4.4367c.3135 0 .614-.0991.8357-.2755.2216-.1763.3461-.4155.3461-.665 0-.2493-.1245-.4885-.3461-.6649-.2217-.1764-.5222-.2754-.8357-.2754h-2.6508a2.9312 2.9312 0 0 1-.9159-.1438c-.2905-.0954-.5545-.2354-.7769-.4121-.2224-.1767-.3988-.3865-.5192-.6175-.1203-.231-.1823-.4785-.1823-.7286 0-.25.062-.4976.1823-.7286.1204-.231.2969-.4408.5192-.6175.2224-.1766.4864-.3167.7769-.412a2.9315 2.9315 0 0 1 .9159-.1438h4.437c.1603 0 .3139.0506.4272.1408.1133.0901.177.2124.177.34 0 .1274-.0637.2497-.177.3399-.1133.0902-.2669.1408-.4272.1408h-4.437a1.4496 1.4496 0 0 0-.4531.0709c-.1438.0471-.2744.1163-.3844.2037-.1101.0874-.1974.1911-.257.3054a.7768.7768 0 0 0-.0902.3604c0 .1237.0306.2462.0902.3604.0596.1143.1469.218.257.3054.11.0874.2406.1566.3844.2037.1437.0471.2977.0712.4531.071h2.6508c.6339 0 1.2418.2003 1.6901.557.4482.3567.7.8404.7 1.3449 0 .5044-.2518.9882-.7 1.3449-.4483.3566-1.0562.557-1.6901.557Z"/>
        <path d="M12.4999 12.454a.7399.7399 0 0 1-.2312-.0366.63.63 0 0 1-.196-.1042.4895.4895 0 0 1-.131-.156.3952.3952 0 0 1-.0459-.184V3.8077c0-.1275.0636-.2498.1769-.34.1133-.0901.267-.1408.4272-.1408s.3139.0507.4272.1408c.1133.0902.177.2125.177.34v8.1655a.3965.3965 0 0 1-.046.184.487.487 0 0 1-.131.156.63.63 0 0 1-.196.1042.7399.7399 0 0 1-.2312.0366Z"/>
        <path d="M24.3958 25a.7422.7422 0 0 1-.2311-.0366.6324.6324 0 0 1-.196-.1043l-1.952-1.5531-1.952 1.5531a.6319.6319 0 0 1-.1959.1043.7399.7399 0 0 1-.2312.0366.7394.7394 0 0 1-.2312-.0366.6324.6324 0 0 1-.196-.1043l-1.952-1.5531-1.9519 1.5531a.6324.6324 0 0 1-.196.1043.7399.7399 0 0 1-.2312.0366.7399.7399 0 0 1-.2312-.0366.6324.6324 0 0 1-.196-.1043l-1.9519-1.5531-1.9524 1.5531a.6307.6307 0 0 1-.1959.1043.7399.7399 0 0 1-.2312.0366.7394.7394 0 0 1-.2312-.0366.632.632 0 0 1-.196-.1043l-1.952-1.5531-1.952 1.5531a.632.632 0 0 1-.1959.1043.7396.7396 0 0 1-.2312.0366.7396.7396 0 0 1-.2312-.0366.6322.6322 0 0 1-.196-.1043l-1.952-1.5531-1.9519 1.5531c-.0845.0673-.1921.1131-.3093.1316a.7484.7484 0 0 1-.349-.0273c-.1105-.0364-.2048-.098-.2712-.1771-.0664-.079-.1018-.172-.1018-.2671V.4808a.397.397 0 0 1 .046-.184.4899.4899 0 0 1 .1309-.156.6325.6325 0 0 1 .196-.1042A.7407.7407 0 0 1 .6042 0h23.7916a.74.74 0 0 1 .2313.0366.6324.6324 0 0 1 .196.1042.4907.4907 0 0 1 .131.156.398.398 0 0 1 .0459.184v24.0384c0 .1275-.0637.2498-.177.34-.1133.0901-.2669.1408-.4272.1408ZM7.7416 22.1454a.7398.7398 0 0 1 .2312.0365.6313.6313 0 0 1 .196.1044l1.9519 1.5531 1.9523-1.5531a.6324.6324 0 0 1 .196-.1043.7422.7422 0 0 1 .2311-.0366.7423.7423 0 0 1 .2312.0366.6324.6324 0 0 1 .196.1043l1.952 1.5531 1.952-1.5531a.6319.6319 0 0 1 .1959-.1043.7428.7428 0 0 1 .2312-.0366.7423.7423 0 0 1 .2312.0366.6324.6324 0 0 1 .196.1043l1.952 1.5531 1.952-1.5531a.6307.6307 0 0 1 .1959-.1043.7428.7428 0 0 1 .2312-.0366.7428.7428 0 0 1 .2312.0366.6324.6324 0 0 1 .196.1043l1.3478 1.0723V.9616H1.2083v22.397l1.3478-1.0723a.6322.6322 0 0 1 .196-.1043.7425.7425 0 0 1 .2312-.0366.7425.7425 0 0 1 .2312.0366.6322.6322 0 0 1 .196.1043l1.952 1.5531 1.952-1.5531a.6312.6312 0 0 1 .1958-.1044.7427.7427 0 0 1 .2313-.0365Z"/>
        <path d="M19.5624 16.1659H5.4371c-.1602 0-.3139-.0507-.4272-.1408-.1133-.0902-.177-.2125-.177-.34 0-.1275.0637-.2498.177-.3399.1133-.0902.267-.1409.4272-.1409h14.1253c.1602 0 .3139.0507.4272.1409.1133.0901.177.2124.177.3399 0 .1275-.0637.2498-.177.34-.1133.0901-.267.1408-.4272.1408Zm0 3.1451H5.4371c-.1602 0-.3139-.0506-.4272-.1408-.1133-.0902-.177-.2124-.177-.3399 0-.1276.0637-.2498.177-.34.1133-.0902.267-.1408.4272-.1408h14.1253c.1602 0 .3139.0506.4272.1408.1133.0902.177.2124.177.34 0 .1275-.0637.2497-.177.3399-.1133.0902-.267.1408-.4272.1408Z"/>
    </symbol>

    <symbol id="voir_employés" viewBox="0 0 33 25">
        <path fill-rule="evenodd" d="M25.9222 9.5862a3.9135 3.9135 0 0 1-.4558.3796l-.0129.008a3.8184 3.8184 0 0 1-2.2046.6976 3.8438 3.8438 0 0 1-.8338-.0924 3.78 3.78 0 0 1-.5773-.1768 3.4587 3.4587 0 0 0-.1267.9246c0 .9409.3797 1.7925.9927 2.4123l.0114.0096c.6198.6198 1.4778 1.0042 2.4236 1.0042.9456 0 1.8023-.3844 2.4234-1.0042a3.4135 3.4135 0 0 0 1.0025-2.4219c0-.2449-.0242-.4833-.0731-.7122-.5173-.0064-1.0088-.1135-1.4566-.3049a3.83 3.83 0 0 1-1.1128-.7235Zm.31-.339-.0292.0357c.2887.2692.6262.4883.9945.6456a3.4167 3.4167 0 0 0 1.1777.2675l-.0033-.008-.0033-.0098-.0066-.0194-.0047-.0113-.0017-.0065-.0275-.0714-.0017-.0015-.0129-.0358-.0018-.0016-.0128-.034-.0033-.005-.0164-.0373-.0047-.0113-.0292-.0648-.0015-.005-.0343-.0697-.0178-.0341-.0016-.0032-.0161-.0309-.0033-.0064a2.3651 2.3651 0 0 0-.1007-.1769l-.0015-.0033a3.3796 3.3796 0 0 0-.5078-.6456 3.3955 3.3955 0 0 0-.7721-.5807 3.7193 3.7193 0 0 1-.2483.4866c-.0438.0747-.0924.146-.1428.219v.0017l-.0373.0518-.005.0065-.0063.008-.0049.0066-.0048.0081-.0066.0066-.0047.008-.0048.0065-.0065.0081-.0051.0065-.0062.008-.005.0066-.0048.0065-.0113.0146-.0066.0081-.0047.0065-.0066.008-.0048.0066-.0066.008-.0047.0066-.0065.0065v.0016l-.0048.0065-.0067.0065Zm-3.2688 7.4052-.1005 1.9352h4.4237l-.0683-1.9888-2.0908 1.8688a.1996.1996 0 0 1-.2759.0016l-1.8882-1.8168Zm4.6509-.1168.0761 2.2451a.198.198 0 0 1-.1929.2044l-4.8437.0015a.1992.1992 0 0 1-.1996-.1995l.1183-2.2694-4.1185 1.7941v3.5818h13.2368v-3.5818l-4.0765-1.7762Zm-1.0367-1.6466a3.8232 3.8232 0 0 1-1.4388.2791 3.8417 3.8417 0 0 1-1.5475-.3244v1.859l1.403 1.3497 1.5833-1.4162V14.889ZM5.1051 10.0112c.1703.0681.3472.1233.5305.1639.2367.0535.4867.0811.7444.0811a3.419 3.419 0 0 0 1.9662-.6197l.0113-.0081a3.4126 3.4126 0 0 0 .5337-.4672l.0015-.0016.0034-.0032.0015-.0033.005-.0048.0047-.0033.0065-.008.0048-.005.0018-.0032.0355-.0406.0018-.0015.0065-.0049.0062-.008.0343-.0405.0063-.0081.005-.0066.0034-.0031.0062-.0081.0065-.0081.0033-.0033.0033-.0048.0065-.0081.0065-.0081.003-.0033.0033-.0048.0084-.008.0062-.0082v-.002l.0065-.0081.0065-.0081.0066-.0081.0063-.0081.0065-.0097.0047-.0065.0018-.0016.0065-.0081.0063-.0081.0032-.0048.0033-.005.0066-.008a3.5148 3.5148 0 0 0 .18-.2692 3.6789 3.6789 0 0 0 .1865-.3553l.0033-.008.0373-.0877a3.4308 3.4308 0 0 0-.9408-.2287l-.0211-.0017h-.0033l-.0114-.0016-.026-.0015-.0095-.0016-.047-.0033H8.474l-.0131-.0015h-.0225l-.0131-.0017H8.396l-.0063-.0015h-.047l-.0098-.0016h-.1071l-.0244.0015h-.034l-.031.0016h-.003l-.0342.0017h-.0095l-.0409.0015-.0176.0016-.0244.0016-.0098.0016-.0325.0015-.0015.0016-.0325.0017-.0113.0015-.0227.0017-.0212.0032-.0113.0016-.0307.0032H7.83l-.0325.0049-.0065.0015-.026.0033-.0178.0016-.0423.0081h-.0063l-.0325.0065h-.0033l-.0423.008-.0194.0033-.0226.0049-.0405.008-.0018.0016c-.652.1413-1.2344.4705-1.6886.9247a3.4187 3.4187 0 0 0-.7425 1.1081Zm3.9483-.425a3.9108 3.9108 0 0 1-.456.3796l-.0128.008a3.8185 3.8185 0 0 1-2.2046.6976 3.8538 3.8538 0 0 1-.8338-.0924 3.8958 3.8958 0 0 1-.5775-.1768 3.4678 3.4678 0 0 0-.1248.9246c0 .9458.3829 1.8023 1.0025 2.4219.6198.6198 1.4778 1.0042 2.4236 1.0042.9456 0 1.8039-.3844 2.4234-1.0042.6198-.6196 1.0043-1.4761 1.0043-2.4219 0-.2449-.0259-.4818-.0748-.7122a3.8274 3.8274 0 0 1-1.4566-.3049 3.8498 3.8498 0 0 1-1.1129-.7235Zm.287-.3099-.0048.0065c.2888.2693.6246.4884.9927.6457a3.4193 3.4193 0 0 0 1.1777.2675 4.4198 4.4198 0 0 0-.0468-.1265v-.0015a4.243 4.243 0 0 0-.0828-.1898l-.0018-.0049-.0162-.0324v-.0016a3.4197 3.4197 0 0 0-.6651-.936 3.4386 3.4386 0 0 0-.7737-.5807 3.675 3.675 0 0 1-.2467.4866 4.4163 4.4163 0 0 1-.1427.219l-.0015.0016-.0373.0519-.005.0065-.0048.008-.0065.0066-.0048.0081-.0047.0065-.0066.0081-.005.0065-.0047.008-.0065.0065-.0049.0082-.0065.0065-.0047.0065-.0114.0146-.0047.008-.0065.0065-.005.0081h-.0018l-.0048.0066-.0066.008-.0048.0065-.005.0066-.0015.0015-.005.0066-.0063.0064-.005.0065-.0113.0146-.0065.0081Zm-3.2459 7.3761-.1004 1.9352h4.4236l-.0682-1.9888-2.0908 1.8688a.1996.1996 0 0 1-.276.0016l-1.8882-1.8168Zm4.6507-.1168.0763 2.2451a.198.198 0 0 1-.1928.2044l-4.844.0015a.1992.1992 0 0 1-.1994-.1995l.1183-2.2694-4.117 1.7941v3.5818h13.2368v-3.5818l-4.0782-1.7762Zm-1.0365.1005V14.889a3.8175 3.8175 0 0 1-1.4388.2791c-.55 0-1.074-.1168-1.5475-.326v1.8606l1.403 1.3497 1.5833-1.4163Zm3.8544-14.5265c.1702.0698.3487.125.5305.1655a3.471 3.471 0 0 0 .7444.0795c.7333 0 1.4113-.2287 1.9662-.6181l.0113-.0098a3.4586 3.4586 0 0 0 .532-.4639l.0178-.0194.0066-.008.0048-.005.0032-.0031.0066-.0082.0065-.0065.003-.0048.0051-.0033.0066-.0081.0062-.008.0033-.0033.005-.0048.0063-.0081.0066-.0081.0017-.0016.0063-.0066.0066-.008.0065-.0081.0066-.008.0081-.0081.0047-.0065.0017-.0016.0063-.0081.0066-.0081.0033-.0049.0033-.0033.0065-.008.0066-.0097.003-.0033.005-.0049.0063-.008.0066-.0082.0017-.0015.0047-.0066.0066-.008.0066-.0098.0063-.008.0065-.0082.0048-.0064.0017-.0017.0065-.0097.0064-.008.0033-.005.0033-.0032.0065-.0097.0066-.0081.0015-.0032.005-.0049.0307-.0438.0066-.0097.0065-.0081.0049-.0065c.0404-.06.081-.12.1182-.1849a3.3794 3.3794 0 0 0 .2271-.4494 3.4332 3.4332 0 0 0-.9408-.2304l-.0212-.0015h-.0015l-.0131-.0016h-.0048l-.0211-.0016h-.008l-.0341-.0032h-.0146l-.005-.0017h-.0209l-.0098-.0015h-.0226l-.0099-.0016h-.042L16.8251 0h-.1996l-.0291.0016h-.0048l-.0342.0016h-.0096l-.039.0033-.0194.0015-.0244.0016h-.008l-.0343.0032h-.0015l-.0325.0033h-.0114l-.0211.0032-.0211.0016-.0129.0016-.0309.0048h-.0016l-.034.0033-.0065.0016-.0259.0032-.0163.0033a3.2223 3.2223 0 0 0-.1282.021l-.0194.0049-.0212.0048-.0113.0017-.0307.0064h-.0018a3.424 3.424 0 0 0-1.6885.9248 3.429 3.429 0 0 0-.7428 1.1073Zm3.9482-.4234a3.6313 3.6313 0 0 1-.4558.378l-.0114.0082a3.8265 3.8265 0 0 1-2.2061.6975 3.8058 3.8058 0 0 1-1.4096-.2677 3.3972 3.3972 0 0 0-.1266.923 3.412 3.412 0 0 0 1.0025 2.422 3.413 3.413 0 0 0 2.4235 1.0041c.9408 0 1.7941-.3797 2.4139-.9928l.0096-.0098c.6198-.6213 1.0042-1.4778 1.0042-2.4235a3.4 3.4 0 0 0-.0748-.7104 3.846 3.846 0 0 1-2.5694-1.0285Zm.3732-.4184a2.956 2.956 0 0 1-.0909.1135 3.4042 3.4042 0 0 0 2.1704.9132l-.0031-.008-.0033-.0098-.0065-.0179-.0033-.0113-.0032-.0065-.0066-.0194-.0047-.0146-.0015-.0032-.0083-.018-.0064-.016V2.168l-.0066-.0179-.008-.0179v-.0015l-.0146-.034-.0017-.005-.0066-.013-.0062-.0178-.0033-.008-.0051-.0099-.0128-.0275-.0033-.008-.008-.018-.0051-.013-.0033-.0048-.008-.0162-.008-.0163v-.0016l-.0081-.0178-.0098-.0163V1.902l-.008-.0163-.0081-.0178-.0017-.0032-.008-.013-.0081-.0179-.0032-.0048a2.578 2.578 0 0 0-.0599-.1088l-.0018-.0031-.0194-.0325V1.683l-.0196-.0325-.0015-.0016-.0179-.0309-.0033-.0048-.0226-.0341-.0047-.0098a3.5905 3.5905 0 0 0-.4592-.5676 3.4768 3.4768 0 0 0-.7721-.5808 3.7729 3.7729 0 0 1-.3698.6748l-.0015.0032-.031.0438-.0048.0081-.0048.0065-.0065.008-.005.0065-.0047.0082-.0048.0065-.0018.0015-.0047.0066-.0047.008-.0066.0065-.0048.0066v.0015l-.005.0066-.0065.008-.0048.0065-.0066.008-.0047.0066-.0066.0081-.0053.0067Zm-3.332 7.483-.1004 1.9352h4.4236l-.0665-1.9888-2.0926 1.8704a.1995.1995 0 0 1-.2759 0l-1.8882-1.8169Zm4.6506-.1168.0763 2.2466a.1987.1987 0 0 1-.1913.2045h-4.8455a.1991.1991 0 0 1-.1979-.1995l.1168-2.2695-2.4219 1.0561a3.8417 3.8417 0 0 1 .3731 1.6545c0 1.035-.4104 1.9743-1.077 2.6652H22.373c-.6667-.691-1.0773-1.6302-1.0773-2.6652 0-.5807.1299-1.1307.3602-1.6237l-2.4528-1.069Zm-1.0347.1021V6.9876a3.8304 3.8304 0 0 1-1.4406.279c-.55 0-1.0739-.115-1.5474-.3244v1.859l1.4048 1.3513 1.5832-1.4162ZM1.4099 23.67a.2005.2005 0 0 1-.1996-.1995.2004.2004 0 0 1 .1996-.1995h21.8765a.2003.2003 0 0 1 .1993.1995.2005.2005 0 0 1-.1993.1995H1.4099ZM14.22 25a.1993.1993 0 0 1-.1994-.1995.2003.2003 0 0 1 .1994-.1995h15.138a.2015.2015 0 0 1 .1996.1995.2005.2005 0 0 1-.1996.1995H14.22Zm16.6873 0a.1995.1995 0 0 1-.1996-.1995.2005.2005 0 0 1 .1996-.1995h1.8914a.2003.2003 0 0 1 .1994.1995.1993.1993 0 0 1-.1994.1995h-1.8914Zm-30.359-.0389a.2003.2003 0 0 1-.1993-.1995c0-.1104.089-.1996.1993-.1996h7.1733a.1993.1993 0 0 1 .1994.1996.2003.2003 0 0 1-.1994.1995H.5483Zm-.1492-4.0603a.2003.2003 0 0 1-.1995.1995A.1995.1995 0 0 1 0 20.9008v-3.6353a.1986.1986 0 0 1 .1346-.1882l3.963-1.6432a.1992.1992 0 0 1 .2595.107c.0423.1022-.0066.2191-.107.2596L.399 17.3985v3.5023ZM21.974 10.0112a3.396 3.396 0 0 0 1.2749.245 3.4191 3.4191 0 0 0 1.9661-.6197l.0113-.0081a3.4825 3.4825 0 0 0 .5337-.4672v-.0016l.0033-.0032.003-.0033.005-.0048.0034-.0033.0079-.008.0033-.005.0033-.0032.0063-.008.0083-.0082.0033-.0032.003-.0049.0083-.008.0063-.0082.0018-.0015.0047-.0049.0066-.008.008-.008v-.0017l.0066-.0065.0065-.008.0065-.0082.0081-.008.0066-.0082.0048-.0065.0015-.0032.0065-.008.0081-.0082.0032-.0033.0033-.0048.0066-.008.0066-.0082.0032-.0032.0031-.0049.0065-.008.0065-.0081.0015-.0016.0051-.0081.0063-.0081.0065-.0081.0065-.0082.0066-.0096.0066-.0065.0015-.0016.0048-.0081.0066-.0082.0047-.0048.0017-.0048.0066-.008a2.8508 2.8508 0 0 0 .18-.2694 3.7058 3.7058 0 0 0 .1881-.3552l.0032-.0081.0373-.0877a3.4302 3.4302 0 0 0-.9408-.2287l-.0212-.0016h-.0029l-.0116-.0017-.0275-.0015-.008-.0015-.047-.0033h-.0113l-.0132-.0015h-.0241l-.0116-.0017h-.0291l-.0063-.0016h-.0471l-.0098-.0015h-.1071l-.0244.0015h-.0341l-.0307.0016h-.0032l-.0344.0017h-.0095l-.0405.0015-.0179.0016-.0259.0016-.0083.0016-.034.0015v.0016l-.0325.0017-.0113.0015-.0226.0016-.0211.0033-.0114.0015-.0307.0033h-.0033l-.0324.0048-.0081.0016-.0259.0033-.0164.0016-.0421.0081h-.0065l-.0324.0065h-.0034l-.042.008-.0196.0033-.0226.0049-.039.008h-.0033v.0016h-.0031a3.4278 3.4278 0 0 0-1.6872.9247 3.4262 3.4262 0 0 0-.7412 1.1075Z" clip-rule="evenodd"/>
    </symbol>

    <symbol id="voir_recettes" viewBox="0 0 26 25">
        <path d="M25.628 15.0802c-.7556-1.0526-1.5215-1.0694-3.4392-.0603l-3.7168 2.2724c-.5509.2931-1.6815.381-2.778.3996.1948-.4057.1077-.8897-.2604-1.4397-.3409-.5086-.8052-.9129-1.3439-1.1892.8931-.7259 1.4275-1.8065 1.4275-2.994 0-2.1388-1.74-3.8793-3.8793-3.8793-2.1392 0-3.8793 1.7405-3.8793 3.8793 0 .6384.1586 1.2479.4427 1.7914-.0056-.0039-.0116-.0073-.0168-.0117-1.5474-1.1668-4.1328-1.3314-5.1668-1.3491v-1.3047H0V25h3.0172v-1.2931h5.6035c.8793 0 1.7664-.0672 2.6362-.1991l5.5875-.8496a2.918 2.918 0 0 0 .5931-.0681c.5147-.0724 1.0065-.3181 1.4233-.7112l6.5332-5.0879.0099-.0082c.509-.4211.6073-1.1694.2241-1.7026Zm-15.641-.4901c-.8573-.5612-1.3663-1.4974-1.3663-2.5211 0-1.6638 1.3539-3.0172 3.0172-3.0172 1.6634 0 3.0173 1.3534 3.0173 3.0172 0 1.1147-.5996 2.116-1.5742 2.6461-.0534-.0103-.1077-.0155-.1616-.0237-.0539-.0082-.1069-.0177-.1616-.0237a3.8429 3.8429 0 0 0-.4225-.025h-1.681a4.2793 4.2793 0 0 1-.6672-.0526ZM2.1553 24.138H.862V12.0569h1.293V24.138Zm22.7034-8.0224-6.5444 5.0961-.0332.0289c-.2888.2763-.6219.4478-1.006.5034a2.147 2.147 0 0 1-.4647.0526l-5.6831.859a16.7145 16.7145 0 0 1-2.5065.1897H3.0172V13.363c.9557.0198 3.3216.1741 4.6483 1.1741.5759.4345 1.266.7293 2.0022.8707l.0064.0039.082.0142c.0043.0009.0081.0009.0124.0017.1414.0242.2845.0436.4289.0561.0048.0004.0095.0013.0138.0017.1466.0125.294.0198.4427.0198h1.681c.2371 0 .4742.028.7043.0832l.0276.0069c.678.1681 1.2673.5668 1.6496 1.1371.1814.2702.253.4948.1922.6004-.1151.1991-.6491.3216-1.1909.3453a27.972 27.972 0 0 0-.478-.0052h-4.188c-1.3495 0-2.1551.6444-2.1551 1.7241a.431.431 0 0 0 .431.4311.431.431 0 0 0 .431-.4311c0-.2133 0-.862 1.2931-.862h4.1785a5.434 5.434 0 0 0 .5224.0056l.2293.0038c2.0228.0375 3.9198.0272 4.9172-.5038l3.7147-2.2716c1.7776-.934 1.9565-.6836 2.3134-.1862.1194.1655.0887.3987-.0686.5328Z"/>
        <path d="M13.7931 12.0691c0-1.1883-.9668-2.1552-2.1552-2.1552-1.1883 0-2.1551.9669-2.1551 2.1552 0 1.1884.9668 2.1552 2.1551 2.1552 1.1884 0 2.1552-.9668 2.1552-2.1552Zm-2.1552 1.2931c-.7129 0-1.2931-.5802-1.2931-1.2931 0-.7129.5802-1.2931 1.2931-1.2931.713 0 1.2931.5802 1.2931 1.2931 0 .7129-.5801 1.2931-1.2931 1.2931Zm6.4655-5.6036c2.1393 0 3.8793-1.7405 3.8793-3.8793 0-2.1388-1.74-3.8793-3.8793-3.8793-2.1392 0-3.8793 1.7405-3.8793 3.8793 0 2.1388 1.7401 3.8793 3.8793 3.8793Zm0-6.8965c1.6634 0 3.0173 1.3534 3.0173 3.0172s-1.3539 3.0173-3.0173 3.0173c-1.6633 0-3.0172-1.3535-3.0172-3.0173 0-1.6638 1.3539-3.0172 3.0172-3.0172Z"/>
        <path d="M18.1035 6.0346c1.1883 0 2.1551-.9668 2.1551-2.1552 0-1.1883-.9668-2.1552-2.1551-2.1552-1.1884 0-2.1552.9669-2.1552 2.1552 0 1.1884.9668 2.1552 2.1552 2.1552Zm0-3.4483c.7129 0 1.2931.5802 1.2931 1.2931 0 .713-.5802 1.2931-1.2931 1.2931-.713 0-1.2931-.5802-1.2931-1.293 0-.713.5801-1.2932 1.2931-1.2932Z"/>
    </symbol>

</svg>