<svg xmlns="http://www.w3.org/2000/svg">

    <symbol id="balance" fill="none" viewBox="0 0 335 291">
        <path fill="#E6E6E6" d="M1.87656 66.6339c-.65598.178-1.212007.5998-1.546087 1.1729-.33407924.573-.4189417 1.2505-.2359674 1.8839L43.0633 217.751c.1845.633.6217 1.17 1.2156 1.492.594.323 1.2961.404 1.9525.228l158.4046-42.796c.656-.178 1.212-.599 1.546-1.172.334-.573.419-1.251.236-1.884L163.45 25.5579c-.185-.6329-.622-1.1694-1.216-1.4917-.594-.3224-1.296-.4042-1.953-.2277L1.87656 66.6339Z"/>
        <path fill="#fff" d="m48.2188 212.479 150.9502-40.781-40.882-140.8683L7.33737 71.611 48.2188 212.479Z"/>
        <path fill="#E6E6E6" d="M27.3015 90.421c-1.0072.2721-1.4224 1.8862-.9256 3.5979.4968 1.7118 1.7204 2.8831 2.7275 2.6111l68.846-18.5998c1.0071-.2721 1.4223-1.8862.9255-3.5979-.4968-1.7118-1.7203-2.8831-2.7275-2.6111L27.3015 90.421Zm5.5411 19.105c-1.0071.272-1.4223 1.886-.9256 3.598.4968 1.712 1.7204 2.883 2.7275 2.611L103.49 97.1352c1.008-.2721 1.423-1.8862.926-3.598-.497-1.7117-1.72-2.883-2.727-2.611L32.8426 109.526Zm5.477 18.884c-1.0071.272-1.4224 1.886-.9256 3.598.4968 1.712 1.7204 2.883 2.7275 2.611l68.8455-18.6c1.008-.272 1.423-1.886.926-3.598-.497-1.711-1.72-2.883-2.727-2.611l-68.8464 18.6Zm5.5491 19.105c-1.0071.272-1.4223 1.886-.9256 3.597.4968 1.712 1.7204 2.884 2.7275 2.611l68.8464-18.599c1.007-.272 1.422-1.886.925-3.598-.497-1.712-1.72-2.883-2.727-2.611l-68.8463 18.6Zm87.2163-84.9125c-.423.1138-.819.3069-1.164.5683-.346.2614-.635.5859-.85.9551-.216.3691-.354.7756-.406 1.1963-.053.4206-.019.8471.099 1.2551.119.408.319.7895.591 1.1226.271.3331.608.6114.991.8189.382.2075.804.3402 1.24.3904.436.0502.878.017 1.301-.0977l12.87-3.4771c.853-.2306 1.577-.7788 2.011-1.524.435-.7452.545-1.6264.306-2.4498-.239-.8234-.807-1.5214-1.58-1.9406-.772-.4192-1.685-.5252-2.539-.2946l-12.87 3.4771Zm5.437 18.7344c-.423.1138-.819.3069-1.165.5683-.345.2614-.634.5859-.849.955-.216.3692-.354.7757-.406 1.1964-.053.4206-.019.8471.099 1.2551.119.408.319.7894.591 1.1226.271.3331.608.6114.99.8189.383.2075.805.3401 1.241.3903.436.0503.878.0171 1.301-.0976l12.87-3.4771c.853-.2306 1.577-.7788 2.011-1.524.435-.7452.545-1.6265.306-2.4498-.239-.8234-.807-1.5214-1.58-1.9406-.772-.4192-1.686-.5252-2.539-.2946l-12.87 3.4771Zm5.433 18.7341c-.423.114-.818.307-1.163.569-.345.261-.633.586-.848.955-.216.369-.353.775-.406 1.195-.052.421-.018.847.1 1.255.119.407.319.789.59 1.122.271.333.607.611.99.818.382.208.803.341 1.239.391.435.051.877.018 1.3-.096l12.87-3.477c.853-.231 1.577-.779 2.011-1.524.435-.745.545-1.6266.306-2.45-.239-.8234-.807-1.5214-1.58-1.9406-.772-.4192-1.685-.5252-2.539-.2946l-12.87 3.4772Zm5.441 18.734c-.852.232-1.575.78-2.008 1.525-.434.745-.544 1.625-.305 2.448.239.823.806 1.52 1.578 1.94.771.419 1.684.526 2.537.296l12.87-3.477c.853-.231 1.575-.78 2.009-1.524.434-.745.543-1.626.304-2.449-.238-.822-.806-1.52-1.578-1.939-.771-.42-1.684-.526-2.537-.297l-12.87 3.477Z"/>
        <path fill="#F1893C" d="M152.596 151.278c-.539.145-1.043.391-1.483.724-.44.333-.808.747-1.083 1.217-.275.471-.45.989-.517 1.525-.067.536-.024 1.079.127 1.599s.406 1.006.752 1.43c.346.425.775.779 1.262 1.044.488.264 1.025.433 1.581.497s1.119.022 1.657-.124l16.4-4.431c1.087-.294 2.009-.992 2.563-1.942.553-.949.693-2.072.389-3.121-.305-1.049-1.029-1.939-2.013-2.473-.984-.534-2.148-.669-3.235-.375l-16.4 4.43Z"/>
        <path fill="#E6E6E6" d="M169.469 135.3 48.114 168.086l.302 1.04 121.355-32.785-.302-1.041Z"/>
        <path fill="#A0616A" d="m291.363 275.231-9.733 2.271-13.707-35.141 14.364-3.351 9.076 36.221Z"/>
        <path fill="#2F2E41" d="m264.838 290.926-.066-.262c-.772-3.094-.24-6.357 1.479-9.072 1.719-2.716 4.484-4.663 7.688-5.414l19.043-4.442 2.989 11.928-31.133 7.262Z"/>
        <path fill="#A0616A" d="m248.282 281.629-10.013-.001-4.764-37.265 14.778.001-.001 37.265Z"/>
        <path fill="#2F2E41" d="m250.7 290.87-32.03-.001v-.27c0-3.183 1.311-6.236 3.643-8.487 2.333-2.25 5.497-3.515 8.796-3.515l19.592.001-.001 12.272Zm-17.208-23.789-9.722-111.795 40.247-7.158.159-.028 11.779 7.306-4.1 41.144 18.878 64.146-16.3 4.139-18.908-59.492-4.327-18.091-2.218 23.508 1.647 57.974-17.135-1.653Z"/>
        <path fill="#F1893C" d="m222.529 157.821-.106-.13L236.33 56.6575l.018-.1324.098-.0946c.205-.1978 5.078-4.8437 10.09-4.8437.725 0 1.414-.0177 2.075-.0339 3.835-.0962 6.865-.1731 10.465 3.3015 3.669 3.5392 15.638 16.4634 15.638 34.1643 0 17.1333 1.617 70.3763 1.633 70.9123l.023.752-.653-.411c-.162-.1-16.26-9.99-29.762-.796-4.219 2.874-8.01 3.881-11.251 3.881-7.543 0-12.11-5.456-12.175-5.536Z"/>
        <path fill="#A0616A" d="M254.025 43.2501c9.721-5.1273 13.294-16.8874 7.979-26.267-5.314-9.37955-17.502-12.82667-27.224-7.69933-9.721 5.12733-13.294 16.88753-7.979 26.26703 5.314 9.3796 17.502 12.8267 27.224 7.6993ZM213.688 179.534c.95-.709 1.726-1.611 2.275-2.642.548-1.03.856-2.164.902-3.322.045-1.157-.173-2.31-.639-3.378-.467-1.067-1.17-2.023-2.061-2.8l11.392-25.927-14.916 2.649-8.532 24.214c-1.253 1.531-1.881 3.451-1.765 5.399.116 1.947.969 3.785 2.396 5.167 1.427 1.381 3.33 2.209 5.348 2.327 2.018.118 4.011-.482 5.6-1.687Z"/>
        <path fill="#F1893C" d="m202.688 159.366 3.668-7.472c-.226-.132-.413-.319-.541-.542-3.428-5.731 17.275-53.3234 18.655-56.4802-.211-1.7169-2.384-19.9111-.795-26.0438 1.871-7.2193 5.711-10.5839 12.843-11.2503 7.865-.7126 9.986 9.5919 10.007 9.6966l.007 26.4909-9.026 30.4938-20.585 40.517-14.233-5.41Z"/>
        <path fill="#2F2E41" d="M246.964 33.5589c-2.404.3019-4.218-2.072-5.06-4.2665-.841-2.1944-1.482-4.7491-3.573-5.9345-2.856-1.6195-6.511.3283-9.777-.206-3.689-.6034-6.087-4.3754-6.275-7.9808-.188-3.6054 1.299-7.07296 2.758-10.39708l.509 4.13112c-.068-1.40014.237-2.79373.887-4.04746.65-1.25374 1.622-2.32568 2.824-3.1133l-.657 6.0618c.412-3.39597 4.203-6.02739 7.671-5.32364l-.103 3.61183c4.26-.48881 8.558-.97831 12.831-.60591 4.274.37241 8.577 1.6769 11.815 4.39219 4.845 4.06165 6.614 10.74965 6.02 16.91555-.594 6.1659-3.232 11.9583-5.981 17.5538-.692 1.4078-1.648 2.9964-3.253 3.1758-1.441.1611-2.76-1.0013-3.208-2.3328-.448-1.3315-.229-2.778.039-4.1538.406-2.0783.917-4.2026.535-6.2851-.381-2.0826-1.933-4.1405-4.109-4.3958-2.176-.2552-4.402 2.1444-3.356 4.0028l-.537-.8022Z"/>
        <path fill="#3F3D56" d="M334.786 290.914H190.427v-1.138H335l-.214 1.138Z"/>
    </symbol>

    <symbol id="connexion" fill="none" viewBox="0 0 335 201">
        <path fill="#F2F2F2" d="M256.484 198.018c-4.289-3.624-6.894-9.349-6.211-14.922.683-5.573 4.915-10.697 10.404-11.88 5.489-1.184 11.746 2.092 13.413 7.454.917-10.337 1.975-21.108 7.471-29.911 4.976-7.971 13.595-13.675 22.937-14.695 9.341-1.021 19.177 2.833 25.003 10.206 5.826 7.373 7.252 18.092 3.172 26.557-3.006 6.236-8.544 10.877-14.346 14.652-18.749 12.098-41.236 17.017-63.324 13.854l1.481-1.315Z"/>
        <path fill="#fff" d="M320.263 137.111c-7.708 6.278-14.779 13.3-21.111 20.963-9.91 11.953-17.929 25.353-23.778 39.736-.429 1.049 1.275 1.506 1.699.468 9.57-23.374 24.848-43.976 44.436-59.921.879-.717-.374-1.957-1.246-1.246Z"/>
        <path fill="#F2F2F2" d="M107.842 197.034c5.891-4.978 9.469-12.841 8.531-20.496-.939-7.655-6.751-14.692-14.29-16.318-7.5388-1.626-16.1328 2.874-18.4226 10.239-1.2602-14.199-2.7124-28.992-10.2612-41.083-6.8352-10.949-18.6739-18.783-31.5045-20.184-12.8305-1.402-26.3394 3.892-34.34139 14.019-8.001939 10.127-9.96118 24.849-4.35683 36.476 4.12853 8.565 11.73472 14.939 19.70412 20.125 25.4252 16.544 56.9651 23.444 86.9754 19.027"/>
        <path fill="#fff" d="M20.2413 113.377C30.828 122 40.5403 131.645 49.2376 142.17c8.6986 10.516 16.3568 21.85 22.867 33.843 3.6389 6.728 6.9079 13.65 9.7922 20.734.5881 1.441-1.752 2.069-2.3336.644-5.1089-12.49-11.4295-24.449-18.8713-35.706-7.4056-11.215-15.8817-21.686-25.3093-31.266-5.3323-5.415-10.9583-10.533-16.8525-15.331-1.2082-.983.513-2.686 1.7112-1.711Z"/>
        <path fill="#F2F2F2" d="M240.468 199.845H99.9224V55.6408C99.9224 24.9603 124.883 0 155.563 0h29.265c30.68 0 55.64 24.9603 55.64 55.6408V199.845Z"/>
        <path fill="#CCC" d="M211.204 199.845H99.9223V55.6408c-.0307-11.7561 3.6917-23.215 10.6257-32.7085.256-.3484.511-.6923.774-1.0324 3.354-4.3989 7.345-8.2729 11.842-11.4942.254-.1848.509-.3664.768-.54804 3.763-2.60398 7.833-4.73268 12.118-6.33766.255-.09645.514-.19309.773-.28579 3.876-1.3831 7.893-2.33051 11.978-2.824749.254-.034598.514-.061671.774-.088744 3.981-.42567 7.996-.42567 11.977 0 .259.027073.519.054143.776.089114 4.084.494272 8.101 1.441569 11.975 2.824399.259.0927.518.18933.774.28597 4.232 1.58473 8.255 3.68167 11.977 6.24403.259.17767.518.35927.773.54087 2.521 1.7993 4.888 3.8038 7.079 5.9931 1.756 1.756 3.393 3.6278 4.899 5.6029.262.339.517.6828.773 1.0307 6.934 9.4935 10.657 20.9527 10.626 32.709V199.845Z"/>
        <path fill="#F1893C" d="M202.155 135.348c3.403 0 6.161-2.759 6.161-6.161 0-3.403-2.758-6.161-6.161-6.161-3.403 0-6.161 2.758-6.161 6.161 0 3.402 2.758 6.161 6.161 6.161Z"/>
        <path fill="#FFB8B8" d="M228.955 195.526h-4.721l-2.246-18.209h6.968l-.001 18.209Z"/>
        <path fill="#2F2E41" d="M220.862 194.177h9.104v5.732H215.13c0-.753.148-1.498.436-2.194.288-.695.71-1.327 1.243-1.859.532-.533 1.164-.955 1.859-1.243.696-.288 1.441-.436 2.194-.436Z"/>
        <path fill="#FFB8B8" d="M252.443 195.526h-4.72l-2.246-18.209h6.967l-.001 18.209Z"/>
        <path fill="#2F2E41" d="M244.35 194.177h9.105v5.732h-14.837c0-.753.148-1.498.437-2.194.288-.695.71-1.327 1.242-1.859.532-.533 1.164-.955 1.86-1.243.695-.288 1.441-.436 2.193-.436Z"/>
        <path fill="#FFB8B8" d="M205.273 130.407c-.339-.5-.565-1.069-.661-1.666-.096-.597-.06-1.208.105-1.789.166-.582.457-1.12.853-1.577.396-.457.888-.822 1.44-1.068l16.048-44.2305 7.896 4.3094-18.323 42.2681c.353.955.343 2.006-.028 2.955-.371.948-1.077 1.727-1.984 2.19-.907.462-1.952.576-2.937.32-.985-.257-1.842-.866-2.409-1.712Zm44.759 8.311c-.525-.3-.977-.713-1.325-1.207-.348-.495-.584-1.059-.69-1.655-.106-.595-.08-1.206.075-1.791.156-.584.438-1.127.826-1.591l-4.971-46.7881 8.986.4106 2.066 46.0225c.736.704 1.188 1.653 1.27 2.668.083 1.014-.21 2.024-.822 2.838-.612.813-1.502 1.374-2.5 1.575-.998.202-2.035.03-2.915-.482Zm-14.336-66.8341c5.223 0 9.457-4.2342 9.457-9.4574 0-5.2232-4.234-9.4574-9.457-9.4574-5.223 0-9.457 4.2342-9.457 9.4574 0 5.2232 4.234 9.4574 9.457 9.4574Z"/>
        <path fill="#F1893C" d="M249.972 128.077h-28.513l.035-.222c.051-.331 5.081-33.2836 1.371-44.064-.372-1.0594-.34-2.2191.092-3.2558.431-1.0367 1.231-1.8772 2.245-2.3597 5.303-2.4972 15.482-5.5722 24.074 1.8903 1.264 1.1162 2.252 2.5113 2.884 4.0748.632 1.5636.892 3.2528.758 4.934l-2.946 39.0024Z"/>
        <path fill="#F1893C" d="m226.935 99.4413-12.836-2.6042 6.017-14.2586c.36-1.381 1.253-2.5628 2.483-3.2862 1.231-.7234 2.698-.9294 4.079-.5726 1.382.3567 2.566 1.247 3.293 2.4755.726 1.2286.936 2.695.582 4.0778l-3.618 14.1683Zm16.441 4.8357-.772-17.6903c-.585-3.3255 1.318-6.4691 4.246-6.983 2.929-.5119 5.788 1.7945 6.376 5.1443l2.901 16.53-12.751 2.999Z"/>
        <path fill="#2F2E41" d="M249.023 125.959c4.588 17.473 5.088 39.688 3.85 63.92l-6.161-.77-11.166-46.207-6.161 46.977-6.931-.385c-2.071-25.425-4.087-47.252-.77-61.609l27.339-1.926Zm-7.096-56.2236c-1.764 1.8794-5.041.8705-5.27-1.697-.018-.1993-.017-.3999.003-.599.119-1.1373.776-2.1698.619-3.3707-.036-.2988-.147-.5836-.324-.8274-1.406-1.8827-4.706.8421-6.033-.8623-.813-1.045.143-2.6904-.481-3.8585-.824-1.5416-3.265-.7811-4.796-1.6253-1.703-.9394-1.601-3.5523-.48-5.1416 1.367-1.9382 3.764-2.9724 6.131-3.1215 2.368-.1491 4.719.4908 6.929 1.3521 2.511.9786 5.001 2.331 6.546 4.5389 1.879 2.6851 2.06 6.2949 1.12 9.4346-.572 1.9099-2.523 4.243-3.964 5.7777Z"/>
        <path fill="#3F3D56" d="M323.441 200.093H39.1556c-.1213-.001-.2376-.049-.3233-.135-.0857-.086-.1338-.202-.1338-.324 0-.121.0481-.238.1338-.324.0857-.086.202-.134.3233-.134H323.441c.122 0 .238.048.324.134.085.086.133.203.133.324 0 .122-.048.238-.133.324-.086.086-.202.134-.324.135Z"/>
        <path fill="#fff" d="M180.592 158.066h-50.058c-.659.004-1.293-.254-1.762-.717-.469-.464-.735-1.094-.741-1.753V43.864c.006-.6593.272-1.2896.741-1.7527.469-.4631 1.103-.7211 1.762-.7176h50.058c.659-.0035 1.293.2545 1.762.7176.469.4631.736 1.0934.741 1.7527v111.732c-.005.659-.272 1.289-.741 1.753-.469.463-1.103.721-1.762.717Z"/>
        <path fill="#CCC" d="M183.095 77.5466h-55.064v.7701h55.064v-.7701Zm.192 43.9394h-55.063v.77h55.063v-.77Z"/>
        <path fill="#CCC" d="M146.129 41.3937h-.77V158.451h.77V41.3937Zm19.253 0h-.77V158.451h.77V41.3937Z"/>
    </symbol>

    <symbol id="modifier_informations" fill="none" viewBox="0 0 335 175">
        <path fill="#E6E6E6" d="M312.163 170.6c-.432 1.118-.97 2.191-1.607 3.206-.177.28-.362.556-.56.824H293.58c-.116-.086-.227-.177-.342-.264-.577-.045-1.15-.103-1.71-.164.057-.05.119-.099.177-.149-.297.025-.593.05-.89.062.235.029.474.058.713.087-.177.144-.359.288-.544.428h-.717l.482-.515c-.383.012-.762.021-1.145.012l1.199-.321 1.293-.346c.05.041.103.082.153.124 2.208-1.941 4.004-4.306 5.28-6.955 1.276-2.648 2.006-5.526 2.148-8.463.141-2.936-.309-5.871-1.325-8.63-1.015-2.759-2.575-5.285-4.587-7.429 3.238 2.172 6.011 4.968 8.158 8.222 2.147 3.255 3.625 6.905 4.348 10.736.372 1.873.427 3.795.165 5.687.144-.161.288-.322.428-.486 2.087-2.529 3.592-5.486 4.407-8.661.814-3.176.919-6.492.307-9.713 1.598 3.557 2.473 7.397 2.574 11.295.1 3.899-.576 7.778-1.989 11.413Z"/>
        <path fill="#2F2E41" d="M230.272 32.785c6.391 0 11.572-5.1806 11.572-11.5712 0-6.3906-5.181-11.57122-11.572-11.57122-6.39 0-11.571 5.18062-11.571 11.57122s5.181 11.5712 11.571 11.5712Z"/>
        <path fill="#FFB8B8" d="M267.797 169.807h-5.052l-2.403-19.485h7.456l-.001 19.485Z"/>
        <path fill="#2F2E41" d="M259.136 168.363h9.743v6.134h-15.877c0-.805.159-1.603.467-2.347.308-.744.76-1.42 1.33-1.99.569-.57 1.245-1.022 1.99-1.33.744-.308 1.542-.467 2.347-.467Z"/>
        <path fill="#FFB8B8" d="m216.264 169.146-4.877-1.316 2.751-19.439 7.199 1.942-5.073 18.813Z"/>
        <path fill="#2F2E41" d="m208.278 165.498 9.407 2.536-1.597 5.923-15.329-4.134c.423-1.57 1.453-2.909 2.863-3.72 1.411-.811 3.085-1.029 4.656-.605Zm17.559-85.8497-15.042 85.2407 7.714 1.543 24.3-60.17 18.128 59.785 9.257-1.158s-4.243-85.6264-17.743-92.9548l-26.614 7.7141Z"/>
        <path fill="#FFB8B8" d="M201.982 110.142c.542-.27 1.019-.656 1.396-1.13.377-.474.646-1.024.787-1.614.141-.589.152-1.201.03-1.795-.121-.593-.371-1.153-.732-1.64l8.296-12.1648-7.65-.1188-6.706 11.5706c-.777.66-1.284 1.583-1.427 2.593-.142 1.01.091 2.037.655 2.886.565.85 1.421 1.463 2.407 1.723s2.034.15 2.944-.31Zm54.769-15.0428c.542-.2699 1.019-.6554 1.396-1.1294.377-.4739.646-1.0248.787-1.6139.142-.589.152-1.2019.031-1.7954-.121-.5935-.371-1.1532-.732-1.6397l8.296-12.1652-7.651-.1188-6.705 11.5705c-.777.6605-1.285 1.5831-1.427 2.593-.142 1.0099.091 2.0369.655 2.8864.564.8495 1.421 1.4625 2.407 1.7229.986.2603 2.033.1499 2.943-.3104Zm-26.183-60.0233c5.589 0 10.12-4.5311 10.12-10.1205 0-5.5893-4.531-10.1204-10.12-10.1204-5.59 0-10.121 4.5311-10.121 10.1204 0 5.5894 4.531 10.1205 10.121 10.1205Z"/>
        <path fill="#F1893C" d="M252.451 40.6921c-.385-1.5428-6.942-1.1571-6.942-1.1571s-7.384-1.6975-7.314-1.4852c-6.222-.4789-13.812 1.857-14.917 2.2112-2.262.624-6.583 2.5326-9.699 3.9364-.434.1955-.773.5543-.943.9984-.171.4441-.159.9376.032 1.3732l9.505 21.7011 1.35 14.0783 31.243-9.6426c-7.714-3.0857-1.929-30.4709-2.315-32.0137Z"/>
        <path fill="#F1893C" d="m249.752 41.0776 2.564-.644 14.021 27.6435.771 15.8142-8.871-6.9427v-6.1713l-9.257-11.957.772-17.7427Zm-33.751 2.1215-2.969 1.3196c-.155.0687-.29.1744-.394.3077-.104.1334-.174.2903-.203.4569l-5.884 33.5936-5.785 16.9711 7.714 3.8571 8.871-21.2139 3.086-15.4282-4.436-19.8639Z"/>
        <path fill="#2F2E41" d="M219.955 20.1847c2.054-.6745 4.221.3829 6.228 1.1878 1.977.7933 4.09 1.3649 6.217 1.24 2.127-.125 4.278-1.0233 5.564-2.7222 1.286-1.6989 1.513-4.2451.24-5.9538-.838-1.1248-2.176-1.7666-3.514-2.1845-2.861-.8929-6.063-.9238-8.783.3359-2.719 1.2598-4.851 3.921-5.075 6.9096"/>
        <path fill="#2F2E41" d="M229.964 12.1232c-.69-4.67105 1.869-9.5209 5.361-11.260674 3.492-1.739779 7.589-.713468 10.735 1.877284 3.146 2.59075 5.44 6.57195 7.147 10.80399 1.706 4.2321 2.888 8.7649 4.279 13.1786 1.235 3.9199 2.685 7.8422 5.031 10.8402 2.346 2.9979 5.757 4.9488 9.026 4.1251-2.685 3.6107-7.626 2.9855-10.691-.1029-3.065-3.0884-4.658-7.9156-5.912-12.6145-1.254-4.6988-2.346-9.6153-4.772-13.5092-4.316-6.92721-12.786-9.00838-18.835-4.6279"/>
        <path fill="#3F3D56" d="M335 173.806H0v.824h335v-.824ZM175.757 94.7361H29.5504c-1.1707-.0013-2.2931-.467-3.1209-1.2948-.8278-.8278-1.2935-1.9502-1.2947-3.1209V55.4859c.0012-1.1707.4669-2.293 1.2947-3.1209.8278-.8278 1.9502-1.2934 3.1209-1.2947H175.757c1.171.0013 2.293.4669 3.121 1.2947.828.8279 1.293 1.9502 1.295 3.1209v34.8345c-.002 1.1707-.467 2.2931-1.295 3.1209-.828.8278-1.95 1.2935-3.121 1.2948ZM29.5504 52.0516c-.9105.0011-1.7834.3633-2.4273 1.0071-.6438.6438-1.006 1.5167-1.0071 2.4272v34.8345c.0011.9105.3633 1.7834 1.0071 2.4273.6439.6438 1.5168 1.006 2.4273 1.0071H175.757c.911-.0011 1.783-.3633 2.427-1.0071.644-.6439 1.006-1.5168 1.007-2.4273V55.4859c-.001-.9105-.363-1.7834-1.007-2.4272-.644-.6438-1.516-1.006-2.427-1.0071H29.5504Z"/>
        <path fill="#E6E6E6" d="M168.644 87.3768H36.6659c-.0646.0002-.1285-.0124-.1882-.037-.0597-.0246-.114-.0607-.1597-.1062-.0457-.0456-.0819-.0998-.1067-.1594-.0247-.0596-.0375-.1235-.0375-.1881 0-.0645.0128-.1284.0375-.1881.0248-.0596.061-.1137.1067-.1593.0457-.0456.1-.0817.1597-.1063.0597-.0245.1236-.0371.1882-.0369H168.644c.065-.0002.129.0124.189.0369.059.0246.113.0607.159.1063.046.0456.082.0997.107.1593.025.0597.037.1236.037.1881 0 .0646-.012.1285-.037.1881-.025.0596-.061.1138-.107.1594-.046.0455-.1.0816-.159.1062-.06.0246-.124.0372-.189.037Z"/>
        <path fill="#F1893C" d="M50.6482 71.186H39.8544c-.1298.0004-.2543.0523-.346.1443-.0917.0919-.1432.2165-.1432.3464s.0515.2544.1432.3464c.0917.092.2162.1438.346.1442h4.9063v8.6756c-.0086.6288.2228 1.2372.6472 1.7013.4244.4641 1.0098.7489 1.6368.7964.0307.0014.0623.0019.0944.0019.3857-.0072.7638-.1082 1.1017-.2944.3379-.1862.6253-.4519.8373-.7741.0779-.1041.1112-.2348.0927-.3634-.0185-.1287-.0873-.2447-.1913-.3227-.1039-.0779-.2346-.1114-.3633-.0931-.1286.0183-.2448.087-.3229.1908-.125.2079-.3022.3795-.514.4979-.2118.1183-.4508.1792-.6934.1768-.3749-.0348-.7225-.211-.9721-.4929-.2496-.2819-.3826-.6482-.3718-1.0245v-8.6756h4.9062c.0646.0002.1285-.0124.1882-.037.0597-.0245.114-.0606.1597-.1062.0457-.0456.082-.0997.1067-.1594.0247-.0596.0375-.1235.0375-.188 0-.0646-.0128-.1285-.0375-.1881-.0247-.0596-.061-.1138-.1067-.1594-.0457-.0455-.1-.0817-.1597-.1062-.0597-.0246-.1236-.0371-.1882-.037Z"/>
        <path fill="#E6E6E6" d="M87.4445 113.871c2.1678 0 3.9251-1.758 3.9251-3.925 0-2.168-1.7573-3.925-3.9251-3.925-2.1677 0-3.925 1.757-3.925 3.925 0 2.167 1.7573 3.925 3.925 3.925Z"/>
        <path fill="#F1893C" d="M102.654 113.871c2.167 0 3.925-1.758 3.925-3.925 0-2.168-1.758-3.925-3.925-3.925-2.168 0-3.9255 1.757-3.9255 3.925 0 2.167 1.7575 3.925 3.9255 3.925Z"/>
        <path fill="#E6E6E6" d="M117.864 113.871c2.168 0 3.925-1.758 3.925-3.925 0-2.168-1.757-3.925-3.925-3.925-2.167 0-3.925 1.757-3.925 3.925 0 2.167 1.758 3.925 3.925 3.925Z"/>
        <path fill="#3F3D56" d="M52.9388 82.9765c.1603-.0055.3121-.0731.4234-.1884.1114-.1153.1737-.2693.1737-.4297 0-.1603-.0623-.3143-.1737-.4296-.1113-.1153-.2631-.1829-.4234-.1884-.1602.0055-.312.0731-.4234.1884-.1113.1153-.1736.2693-.1736.4296 0 .1604.0623.3144.1736.4297.1114.1153.2632.1829.4234.1884Zm3.9258 0c.1602-.0055.3121-.0731.4234-.1884.1114-.1153.1737-.2693.1737-.4297 0-.1603-.0623-.3143-.1737-.4296-.1113-.1153-.2632-.1829-.4234-.1884-.1602.0055-.312.0731-.4234.1884-.1114.1153-.1736.2693-.1736.4296 0 .1604.0622.3144.1736.4297.1114.1153.2632.1829.4234.1884Zm3.9238 0c.1603-.0055.3121-.0731.4234-.1884.1114-.1153.1737-.2693.1737-.4297 0-.1603-.0623-.3143-.1737-.4296-.1113-.1153-.2631-.1829-.4234-.1884-.1602.0055-.312.0731-.4234.1884-.1113.1153-.1736.2693-.1736.4296 0 .1604.0623.3144.1736.4297.1114.1153.2632.1829.4234.1884Z"/>
    </symbol>

    <symbol id="register" fill="none" viewBox="0 0 335 202">
        <path fill="#F1F1F1" d="M17.4783 200.966c-.0224-.099-2.1898-9.983 2.2366-18.192 4.4265-8.208 13.875-11.828 13.97-11.864l.4318-.162.102.45c.0224.099 2.1898 9.982-2.2366 18.191-4.4262 8.209-13.875 11.829-13.9699 11.865l-.432.162-.1019-.45Zm16.0462-29.12c-1.8926.815-9.3623 4.378-13.1008 11.311-3.7389 6.933-2.6108 15.133-2.2511 17.16 1.8918-.812 9.3585-4.369 13.1007-11.31 3.7387-6.933 2.6111-15.132 2.2512-17.161Z"/>
        <path fill="#F1F1F1" d="M28.5995 186.51c-7.9545 4.786-11.0181 14.291-11.0181 14.291s9.8333 1.747 17.7878-3.039c7.9545-4.786 11.018-14.291 11.018-14.291s-9.8332-1.747-17.7877 3.039Z"/>
        <path fill="#9F616A" d="M149.06 109.791c.122-.626.104-1.271-.051-1.89s-.444-1.196-.846-1.691c-.402-.495-.908-.895-1.482-1.174-.573-.278-1.201-.427-1.839-.437l-3.684-9.2631-6.175.8656 5.386 13.0085c.055 1.073.501 2.088 1.255 2.853.753.765 1.761 1.227 2.833 1.298 1.071.072 2.131-.252 2.98-.91.849-.658 1.426-1.604 1.623-2.66Z"/>
        <path fill="#F1893C" d="m137.683 106.536-1.913-4.563-11.924-22.6972.648-41.9984.125-.0165c7.63-1.0081 12.792 34.1473 13.008 35.6444l7.534 25.7662 1.793 5.6795-9.271 2.185Z"/>
        <path fill="#9F616A" d="M119.362 195.096h5.797l2.758-22.362-8.556.001.001 22.361Z"/>
        <path fill="#2F2E41" d="m117.883 193.204 11.417-.001h.001c1.929 0 3.78.767 5.144 2.131 1.365 1.365 2.132 3.215 2.132 5.145v.237h-18.694v-7.512Z"/>
        <path fill="#9F616A" d="m66.0555 186.263 4.7569 3.315 15.0479-16.769-7.0203-4.892-12.7845 18.346Z"/>
        <path fill="#2F2E41" d="m65.9246 183.865 9.3674 6.527.0004.001c1.5831 1.103 2.6631 2.79 3.0024 4.69.3394 1.899-.0897 3.856-1.1929 5.439l-.1352.194-15.3371-10.687 4.295-6.164Zm50.2504 5.975-.25-41.949-3.648-26.377-6.801 23.196-.013.019-24.6459 35.78-9.5899-4.858.0525-.125c.5861-1.394 14.3959-34.134 18.1078-34.134.3242.023.649-.033.9465-.164s.5587-.332.7612-.586c1.0895-1.455.2023-4.542.1932-4.573-1.0626-4.406 1.6091-5.907 2.1413-6.157l1.4312-29.546.1484.011 38.8007 2.721-1.627 36.94-3.502 48.399-.12.013-12.386 1.39Z"/>
        <path fill="#F1893C" d="m134.403 109.645-.168-.014-41.7292-3.363.103-13.8076 2.0424-36.0512.0116-.025 8.3182-18.0576 5.896-2.6699 8.602-.4527.021.0052 7.851 1.9451 8.167 58.6261.885 13.8646Z"/>
        <path fill="#9F616A" d="M118.827 30.5761c5.324-2.9105 7.281-9.5862 4.371-14.9105-2.911-5.3243-9.587-7.28108-14.911-4.3705-5.324 2.9105-7.281 9.5862-4.37 14.9105 2.91 5.3243 9.586 7.2811 14.91 4.3705Z"/>
        <path fill="#2F2E41" d="M102.508 23.6936v-4.2808s-3.4525-4.0659.345-5.09c0 0 1.036-10.24192 10.011-5.46238 0 0 12.428-2.04837 11.047 5.12098 0 0 3.107-1.8717 2.072 2.9078l-2.003 7.699s.967-5.0857-2.14-5.7685l-1.726-1.0242s-4.833 4.7795-12.083-1.0242c0 0-3.107-.7415-2.762 2.331.346 3.0726-2.761 4.5913-2.761 4.5913Z"/>
        <path fill="#9F616A" d="M112.413 99.3341c.007-.6377-.126-1.2692-.389-1.85-.264-.5808-.652-1.0967-1.136-1.5115-.484-.4147-1.054-.7182-1.668-.8891-.615-.1708-1.259-.2048-1.888-.0996l-5.287-8.4522-5.9194 1.9597 7.6324 11.8316c.247 1.045.869 1.963 1.747 2.58.879.618 1.953.892 3.02.77s2.052-.631 2.768-1.431c.717-.799 1.116-1.834 1.12-2.9079Z"/>
        <path fill="#F1893C" d="m98.76 96.6698-9.5635-19.4166.0085-.0472c.0385-.215 3.8882-21.5899 6.8324-29.4467 2.963-7.9066 7.0186-9.4941 7.1896-9.5578l.086-.0318 3.636 3.4881-5.037 33.6234 5.43 16.216-8.582 5.1726Z"/>
        <path fill="#F1F1F1" d="M335 0h-18.517v18.517H335V0ZM190.084 72.0554h-18.517v18.5171h18.517V72.0554Z"/>
        <path fill="#fff" d="M181.96 82.4583h146.395V8.34631H181.96V82.4583Z"/>
        <path fill="#E5E5E5" d="M329.563 83.666H180.752V7.13867h148.811V83.666Zm-146.395-2.4153h143.98V9.55394h-143.98V81.2507Z"/>
        <path fill="#E5E5E5" d="M312.167 34.3434H199.532v3.7353h112.635v-3.7353Zm0 9.0586H199.532v3.7353h112.635V43.402Z"/>
        <path fill="#F1893C" d="M312.167 56.7771h-20.932v3.2416h20.932v-3.2416Z"/>
        <path fill="#CBCBCB" d="M153.772 201.399H.402545c-.106762 0-.209151-.042-.284643-.117C.0424105 201.206 0 201.104 0 200.997c0-.107.0424105-.209.117902-.285.075492-.075.177881-.118.284643-.118H153.772c.107 0 .209.043.285.118.075.076.118.178.118.285 0 .107-.043.209-.118.285-.076.075-.178.117-.285.117Z"/>
    </symbol>
    
</svg>