<svg id="alcool" viewBox="0 0 21 25">
  <path d="M16.6464 9.8548h-1.7345v-.546c.5791-.66.8927-1.4021.8927-2.1747 0-1.2516-.6474-2.4629-1.8247-3.4176a4.6788 4.6788 0 0 0-4.1922-2.633c-.073 0-.1451.0036-.2265.009a5.1963 5.1963 0 0 0-8.3746 3.7948C.4096 5.5557 0 6.3303 0 7.1341c0 .778.3232 1.5117.8913 2.1581V20.829c0 .01.0004.02.0014.03C.92 23.1451 4.054 25 7.9023 25c3.8014 0 6.9058-1.8099 7.0071-4.0577a.2948.2948 0 0 0 .0026-.0387v-.1147h1.7344a3.908 3.908 0 0 0 3.9041-3.9041v-3.1259a3.9088 3.9088 0 0 0-3.9041-3.904ZM14.3285 20.829c0 1.9783-2.8828 3.5876-6.4262 3.5876-3.5434 0-6.4262-1.6093-6.4262-3.5876a.2833.2833 0 0 0-.0013-.0282V9.8553c.2749.2265.5676.4304.8753.6097l.0012 10.364c0 1.2803 2.374 2.7124 5.551 2.7124 3.1771 0 5.5509-1.4321 5.5509-2.7124V10.4776a6.5407 6.5407 0 0 0 .8753-.6047v10.956Zm-9.3482.0194v-7.5469a.2917.2917 0 1 1 .5835 0v7.5469a.2917.2917 0 1 1-.5835 0Zm2.6302.3591V13.571a.2916.2916 0 0 1 .4034-.2695.2922.2922 0 0 1 .1801.2695v7.6364a.2917.2917 0 1 1-.5835 0Zm2.6289-.3586v-4.0311a.2917.2917 0 1 1 .5835 0v4.031a.2922.2922 0 0 1-.4034.2696.2926.2926 0 0 1-.1579-.1579.291.291 0 0 1-.0222-.1117v.0001Zm2.3645-10.5818a1.596 1.596 0 0 0-.9012 1.4404v2.4316a.9486.9486 0 1 1-1.8972 0v-1.911a1.0043 1.0043 0 0 0-.32-.7394 1.0382 1.0382 0 0 0-.7744-.277 12.8424 12.8424 0 0 1-.8088.0255c-1.9814 0-3.7803-.4444-5.0994-1.1639a.2791.2791 0 0 0-.0674-.036C1.4068 9.2939.5835 8.2669.5835 7.1342c0-.6568.371-1.3067 1.0728-1.8793a.2916.2916 0 0 0 .1071-.2159 4.613 4.613 0 0 1 7.5212-3.421.3683.3683 0 0 0 .2343.0625c.089-.0066.1781-.0134.2688-.0134a4.0925 4.0925 0 0 1 3.693 2.3586.2918.2918 0 0 0 .0831.1051c1.0687.8482 1.6573 1.9148 1.6573 3.0034 0 1.2023-.954 2.344-2.6172 3.1329Zm2.308 2.3438h1.7345a1.1494 1.1494 0 0 1 1.1482 1.1481v3.1259a1.1494 1.1494 0 0 1-1.1482 1.1482h-1.7345v-5.4222Zm5.0551 4.274a3.3243 3.3243 0 0 1-3.3206 3.3206h-1.7317v-1.5889h1.7317a1.7333 1.7333 0 0 0 1.2239-.5078 1.7333 1.7333 0 0 0 .5078-1.2239V13.759a1.7334 1.7334 0 0 0-1.7317-1.7316h-1.7317v-1.589h1.7317a3.3243 3.3243 0 0 1 3.3206 3.3206v3.1259Z"/>
</svg>
