<svg id="annulée" viewBox="0 0 25 25">
  <path d="M17.8571 7.1429H3.5714v1.7857h14.2857V7.1429Zm3.5715 3.141V0H0v21.4286h10.2839c1.4411 2.1526 3.8938 3.5705 6.6804 3.5714 4.4384-.0018 8.0339-3.5973 8.0357-8.0357-.0009-2.7866-1.4188-5.2393-3.5714-6.6804ZM10.283 12.5c-.3678.55-.6634 1.1509-.8875 1.7857h-5.824v1.7857h5.4089c-.0322.2938-.0518.5902-.0518.8929 0 .9411.1696 1.8402.467 2.6786h-7.61V1.7857H19.643v7.6098c-.8384-.2973-1.7375-.467-2.6786-.467-1.9134 0-3.667.6706-5.0464 1.7858H3.5714V12.5h6.7116Zm6.6813 10.6098c-3.3938-.008-6.1393-2.7535-6.1473-6.1455.008-3.3938 2.7535-6.1393 6.1473-6.1464 3.392.0071 6.1375 2.7526 6.1455 6.1464-.008 3.392-2.7535 6.1375-6.1455 6.1455Z"/>
  <path d="m13.3929 18.7501 1.7857 1.7857 1.7857-1.7857 1.7857 1.7857 1.7857-1.7857-1.7857-1.7857 1.7857-1.7857-1.7857-1.7858-1.7857 1.7858-1.7857-1.7858-1.7857 1.7858 1.7857 1.7857-1.7857 1.7857Z"/>
</svg>
