<svg id="cuisinier" viewBox="0 0 17 25">
  <path d="M12.9292 11.2068V6.8965H3.4464v4.3103a2.5862 2.5862 0 0 0 2.5862 2.5862h4.3104a2.5861 2.5861 0 0 0 2.5862-2.5862ZM10.343 7.7586h.862v1.724h-.862v-1.724Zm-4.3104 1.724h-.862v-1.724h.862v1.724ZM9.912 11.638a1.293 1.293 0 0 1-1.293 1.2931h-.8621a1.2932 1.2932 0 0 1-1.2931-1.2931v-.4311h.862v.4311a.4312.4312 0 0 0 .431.431h.8621a.4311.4311 0 0 0 .431-.431v-.4311h.8621v.4311ZM14.6563 0H1.7253v1.7241h12.931V0Zm-.8624 8.6207v1.7242h.4311a.431.431 0 0 0 .431-.431v-.8621a.4311.4311 0 0 0-.431-.431h-.4311Zm-.8647-6.0345H3.4464v3.4483h9.4828V2.5862ZM8.19 17.0646l1.2932-1.2931v-1.1163H6.897v1.1163l1.293 1.2931Zm7.4521.0517a2.496 2.496 0 0 0-1.7759-.737h-3.7759l-4.056 4.056V25h7.7586v-4.7414h.8621V25h1.7241v-6.1078a2.496 2.496 0 0 0-.737-1.7759Zm-7.8837 7.0216h-.862v-.8621h.862v.8621Zm0-1.7241h-.862v-.8621h.862v.8621ZM2.1563 10.3449h.431V8.6207h-.431a.431.431 0 0 0-.431.431v.8621a.431.431 0 0 0 .431.4311Z"/>
  <path d="M6.2888 16.3793H2.5129A2.5171 2.5171 0 0 0 0 18.8922V25h1.7242v-4.7414h.8621V25h2.5862v-4.7414a.4313.4313 0 0 1 .125-.3061l2.2845-2.2801-1.2931-1.2931Z"/>
</svg>
