<svg id="desserts" viewBox="0 0 15 25">
  <path d="M8.0375 18.489c-.4332.0301-.8852.039-1.3238.0262a.2732.2732 0 1 0-.016.546 14.0613 14.0613 0 0 0 1.3777-.0272.2729.2729 0 0 0 .2529-.2914.273.273 0 0 0-.2908-.2536Z"/>
  <path d="M14.0485 11.1708c0-.5681-.3785-1.0985-1.0345-1.5484-.3476.4425-.863.8398-1.5295 1.171-1.2003.597-2.7845.9257-4.4605.9257a12.171 12.171 0 0 1-1.819-.1341.2732.2732 0 0 1 .0416-.5433c.014 0 .028.001.0418.003.5745.0862 1.1547.129 1.7356.1281 2.7234 0 5.0202-.9073 5.7348-2.1468v-.0005a.4494.4494 0 0 1 .0129-.0248 1.6158 1.6158 0 0 0 .2165-.794c0-.6993-.4866-1.3414-1.3011-1.8484-.0005.0004 0 .0004.0005.001-.2642.4474-.6798.8521-1.2311 1.1873-.0178.0105-.0357.0214-.0536.0318a.2734.2734 0 1 1-.2786-.4703c.5756-.3396 1.0007-.7727 1.2088-1.2594a.0136.0136 0 0 0-.0005.0045.411.411 0 0 1 .0223-.083 1.7043 1.7043 0 0 0-.0248-1.3234c-.2637-.6416-.8105-1.4605-1.4148-2.2461A24.1405 24.1405 0 0 0 8.1513.1572a.528.528 0 0 0-.8994.3034c-.0655.4638-.2587.9197-.656 1.2147-.1.0717-.2083.1307-.3228.1758-1.319.5392-2.557 1.4744-2.557 1.4744a2.9424 2.9424 0 0 0-.8388.8253 1.8068 1.8068 0 0 0-.3059.9878 1.722 1.722 0 0 0 .1222.6316.3757.3757 0 0 1 .0213.0785c.4986 1.1646 2.2387 2.0247 4.309 2.0247.4004.0003.8-.0328 1.195-.0989a.2734.2734 0 0 1 .0893.5394 7.7727 7.7727 0 0 1-1.2842.1057c-1.2877 0-2.5069-.3104-3.432-.873-.5513-.3352-.967-.74-1.2311-1.1874l.001-.001c-.815.5065-1.3022 1.1491-1.3022 1.8484.0027.279.0775.5525.217.794a.385.385 0 0 1 .013.0249v.0005c.3113.5403.9247 1.017 1.7416 1.384a.2732.2732 0 0 1-.221.4996 8.2578 8.2578 0 0 1-.2463-.1162c-.667-.3313-1.182-.7285-1.5296-1.171.0005-.0005.0015-.001.002-.002C.3794 10.0713 0 10.6022 0 11.1708c.0044.2784.09.5496.2465.78v3.8603c0 .812.6612 1.5654 1.8627 2.1237 2.0818 1.3279 2.075 5.5354 2.0747 5.5804C4.184 24.3617 5.405 25 7.024 25c1.6194 0 2.8406-.6383 2.8406-1.4875a12.0507 12.0507 0 0 1 .2593-2.325c.2372-1.1078.7443-2.5684 1.814-3.2521 1.2022-.5583 1.8639-1.3121 1.8639-2.1243v-3.8606a1.4282 1.4282 0 0 0 .2467-.7797Zm-3.7072-6.1062a.3404.3404 0 0 1-.2595.4585.341.341 0 0 1-.337-.532.3407.3407 0 0 1 .5965.0735ZM8.481 2.9565a3.493 3.493 0 0 0-.1251-.1083.6857.6857 0 0 0-.0343-.0253.3477.3477 0 0 1 .434-.5433c.017.0149.1788.1842.2091.2205.0611.072.1185.1455.1723.2205.1072.1486.2054.3035.294.4638.0417.081.233.4892.233.4892.0367.0824.0645.1678.0963.2517.0298.084.0556.1699.083.2548a.227.227 0 0 1-.4217.1659l-.006-.0134c-.0347-.074-.0665-.149-.1023-.2215-.0377-.072-.0715-.1455-.1132-.215a4.2922 4.2922 0 0 0-.2568-.4073 4.0776 4.0776 0 0 0-.299-.368 2.9964 2.9964 0 0 0-.1633-.1643Zm4.6752 12.8547c0 .5425-.5507 1.1068-1.5109 1.5483a.3224.3224 0 0 0-.0525.0303c-2.3838 1.52-2.3753 5.9402-2.3738 6.1254 0 .3422-.8551.8393-2.195.8393-1.3396 0-2.1945-.4971-2.1945-.8366.0012-.1509.0066-3.0322-1.2267-4.948a9.9677 9.9677 0 0 0 1.781.3888.2733.2733 0 0 0 .251-.4374.2734.2734 0 0 0-.1807-.1044c-1.0726-.1391-2.008-.4143-2.6342-.7748a.2802.2802 0 0 0-.0456-.0204 3.315 3.315 0 0 0-.3065-.2238.3268.3268 0 0 0-.0616-.0369C1.444 16.9193.8921 16.3545.8921 15.8112V13.012c1.3312.8915 3.6314 1.4457 6.132 1.4457a16.2736 16.2736 0 0 0 2.1591-.142v.801a.4378.4378 0 0 0 .7476.3096.438.438 0 0 0 .1283-.3096v-.9459c.3242-.0642.6367-.1386.9352-.2224v1.6483a.4379.4379 0 0 0 .8758 0v-1.9368a6.531 6.531 0 0 0 1.2861-.6479v2.7992Z"/>
</svg>
