<svg id="edit" viewBox="0 0 26 25">
  <path d="M19.3089 25H3.8618a3.8632 3.8632 0 0 1-2.7307-1.1303A3.8574 3.8574 0 0 1 0 21.1411V5.7054a3.858 3.858 0 0 1 1.131-2.7287 3.8632 3.8632 0 0 1 2.7308-1.1303h5.149c.3414 0 .6688.1356.9102.3768a1.286 1.286 0 0 1 .3771.9095 1.286 1.286 0 0 1-.377.9096 1.2877 1.2877 0 0 1-.9103.3768h-5.149c-.3414 0-.6688.1355-.9103.3767a1.2858 1.2858 0 0 0-.377.9096V21.141c0 .3411.1356.6683.377.9095.2415.2412.5689.3768.9103.3768h15.4471c.3414 0 .6688-.1356.9102-.3768a1.2857 1.2857 0 0 0 .377-.9095v-5.1453a1.2874 1.2874 0 0 1 2.5746 0v5.1453a3.8575 3.8575 0 0 1-1.1311 2.7286A3.8634 3.8634 0 0 1 19.3089 25Z"/>
  <path d="m16.2184 4.2518-6.372 6.4316a.5271.5271 0 0 0-.1673.2958L8.392 15.8929a.6172.6172 0 0 0 .1673.6174.6054.6054 0 0 0 .4506.1287.4137.4137 0 0 0 .1673 0l4.9173-1.2863a.5282.5282 0 0 0 .2961-.1672l6.3719-6.393-4.544-4.5407Zm8.2382-1.8265L22.5901.5602a1.9573 1.9573 0 0 0-2.7418 0l-1.828 1.8651 4.5698 4.5664 1.8665-1.8266a1.9544 1.9544 0 0 0 0-2.7398Z"/>
</svg>
