<svg id="en_préparation" viewBox="0 0 29 25">
  <path d="M28.7768 14.6513a.4798.4798 0 0 0-.0639-.195.4802.4802 0 0 0-.3287-.2296.4806.4806 0 0 0-.205.0071 22.301 22.301 0 0 0-3.1023 1.0851l.9543-8.5346a.48.48 0 0 0-.2808-.492l-1.1418-1.3702a4.3163 4.3163 0 0 0-3.3241-1.5567h-2.5254V1.923A1.9256 1.9256 0 0 0 16.836 0h-4.8077a1.925 1.925 0 0 0-1.9231 1.923v1.4424H7.5798a4.3158 4.3158 0 0 0-3.3241 1.5569L3.1139 6.2924a.4803.4803 0 0 0-.2808.492l.9543 8.5346a22.3141 22.3141 0 0 0-3.1022-1.085.481.481 0 0 0-.5977.4174c-.0214.2122-.506 5.2199 1.0559 7.4552a6.2575 6.2575 0 0 0 2.9118 2.3339 4.102 4.102 0 0 0 1.3956.2596 3.288 3.288 0 0 0 .3589-.0253A.4756.4756 0 0 0 6.259 25h16.3461a.476.476 0 0 0 .4494-.3253c.1191.015.2389.0234.3589.0253a4.1127 4.1127 0 0 0 1.3956-.2596 6.2577 6.2577 0 0 0 2.9118-2.3339c1.5618-2.2353 1.0772-7.243 1.0559-7.4552Zm-17.71-12.7282a.9628.9628 0 0 1 .9615-.9615h4.8077a.9628.9628 0 0 1 .9615.9615v1.4423h-.9615V1.923h-4.8077v1.4423h-.9615V1.923Zm4.8076 1.4423h-2.8846v-.4808h2.8846v.4808ZM4.9942 5.5384A3.3561 3.3561 0 0 1 7.5798 4.327h13.7047a3.3567 3.3567 0 0 1 2.5856 1.2116l.5931.7115H4.401l.5932-.7115ZM4.8034 15.754l-.955-8.5424h21.1675l-.9616 8.5986a7.118 7.118 0 0 0-2.5123 1.9802 6.2557 6.2557 0 0 0-1.1893 3.5363 3.4078 3.4078 0 0 0 1.1358 2.6916c.0079.0072.0168.0132.0247.0203h-5.1575a5.7223 5.7223 0 0 0 1.4082-2.009 5.7233 5.7233 0 0 0 .4372-2.4141c0-2.7273-3.2652-6.5547-3.4042-6.7164a.4969.4969 0 0 0-.7291 0c-.139.1615-3.4041 3.9889-3.4041 6.7164a5.722 5.722 0 0 0 1.8454 4.4231H7.351c.008-.0071.0169-.0131.0247-.0203a3.4082 3.4082 0 0 0 1.1358-2.6916 6.256 6.256 0 0 0-1.1893-3.5363 7.1152 7.1152 0 0 0-2.512-1.98.4927.4927 0 0 0-.0068-.0566v.0002Zm19.7794 6.6545c-.6667.9535-1.7442 1.4005-2.3518.9759a1.16 1.16 0 0 1-.4258-.9878 2.768 2.768 0 0 1 .5336-1.5564c.4775-.6836 1.8482-1.246 2.7438-1.5376.0342.9414-.0224 2.4218-.4998 3.1059Zm-11.5193-.7489c0-.8338.8015-2.0799 1.3686-2.8317.5673.7517 1.3686 1.9977 1.3686 2.8317 0 1.1639-.6267 2.147-1.3686 2.147-.7418 0-1.3683-.9831-1.3683-2.147h-.0003Zm1.7332-3.9152a.4963.4963 0 0 0-.3646-.1591.4973.4973 0 0 0-.3645.1591c-.2012.2338-1.9656 2.3311-1.9656 3.9152 0 .1063.0041.2112.0115.3144a5.7028 5.7028 0 0 1-.4883-2.3585c0-1.8798 1.9736-4.5828 2.8072-5.6411.8336 1.0582 2.8071 3.7613 2.8071 5.6411a5.7019 5.7019 0 0 1-.4885 2.3586 4.3954 4.3954 0 0 0 .0115-.3144c0-1.5842-1.7644-3.6815-1.9656-3.9153h-.0002Zm-8.1635 5.6403c-.608.4254-1.6852-.022-2.3517-.9759-.4774-.6841-.534-2.165-.4998-3.1063.8952.2911 2.2652.8531 2.7438 1.5381.3316.4527.5177.9955.5337 1.5564a1.1597 1.1597 0 0 1-.426.9877Zm-4.7015-1.8284C.8552 20.0149.9246 16.6687 1.0023 15.324c1.2893.3897 4.455 1.4757 5.5317 3.0166a5.6345 5.6345 0 0 1 .951 2.235c-.0561-.0956-.1067-.1933-.1713-.2856-.907-1.2991-3.5546-2.0076-3.8536-2.0841a.481.481 0 0 0-.5976.4173c-.031.3071-.2763 3.0368.6308 4.3354.0613.0879.1277.1683.1936.2492a5.6406 5.6406 0 0 1-1.7552-1.6516Zm25.0009 0a5.6385 5.6385 0 0 1-1.7553 1.6516c.0658-.0811.1322-.1613.1936-.2492.9071-1.2986.6618-4.0283.6308-4.3354a.4807.4807 0 0 0-.3926-.4245.4807.4807 0 0 0-.205.0072c-.2989.0765-2.9466.785-3.8537 2.0841-.0646.0923-.1151.19-.1713.2856a5.6356 5.6356 0 0 1 .9511-2.235c1.0766-1.5409 4.2424-2.6269 5.5317-3.0166.0778 1.3447.1472 4.6909-.9293 6.2322Z"/>
  <path d="M20.6824 9.1346h2.8846a.4806.4806 0 0 0 .4808-.4807.4807.4807 0 0 0-.4808-.4808h-2.8846a.481.481 0 0 0-.4808.4808.481.481 0 0 0 .4808.4807Zm2.884.4808h-2.4039a.4806.4806 0 0 0-.4807.4807.4808.4808 0 0 0 .4807.4808h2.4039a.4808.4808 0 0 0 0-.9615Z"/>
</svg>
