<svg id="entrées" viewBox="0 0 23 25">
  <path d="M13.2608 17.8139c-.5524-.2958-1.26-.4734-2.0315-.4734-1.7671 0-3.2001.9318-3.2001 2.0817 0 .9245.9262 1.7083 2.2081 1.9799.3263.0683.6587.1025.992.1018 1.7677 0 3.2006-.9317 3.2006-2.0817 0-.6482-.4551-1.2266-1.1691-1.6083Z"/>
  <path d="M21.9737 3.1385a2374.247 2374.247 0 0 1-1.2818-.8535.4139.4139 0 0 0-.2736-.0672h-.0032l-1.0351.1124a.4144.4144 0 0 0-.3434.1902 27.7659 27.7659 0 0 0-.844 1.3983c-.4507-.2347-.9013-.4695-1.352-.7045a.4137.4137 0 0 0-.2789-.0381h-.0006a.004.004 0 0 1-.0021.0005l-.2564.056c.1903-.566.4006-1.126.631-1.6801a.4147.4147 0 0 0-.2171-.5407C16.2457.807 15.775.6023 15.3046.3975a.4126.4126 0 0 0-.2816-.0177h-.0005c-.0006 0-.0011.0005-.0022.0005l-.998.293a.4145.4145 0 0 0-.3058.2482 27.8325 27.8325 0 0 0-.8834 2.4266A60.2169 60.2169 0 0 0 12.482.8269a.382.382 0 0 0-.2317-.2961 53.2536 53.2536 0 0 0-.7846-.475.3428.3428 0 0 0-.2467-.0506L9.2063.3647a.3579.3579 0 0 0-.2876.4139 56.172 56.172 0 0 1 .3649 2.4382A28.3454 28.3454 0 0 0 8.442.9215a.4149.4149 0 0 0-.3106-.2488c.0022.0005.0048.0005.007.001L7.1382.3804c-.001 0-.0016-.0005-.0021-.0005h-.0006a.4126.4126 0 0 0-.2816.0177 2771.73 2771.73 0 0 1-1.4118.6143.4147.4147 0 0 0-.2172.5407 24.917 24.917 0 0 1 .6024 1.5975l-.1447-.0135a.5954.5954 0 0 0-.2586.0327.897.897 0 0 0-.106.045c-.4507.2347-.9013.4694-1.3519.7044a27.698 27.698 0 0 0-.8442-1.3982.4131.4131 0 0 0-.3477-.1897c.001 0 .0027-.0006.0043-.0006l-1.0351-.1123h-.0032a.4137.4137 0 0 0-.2736.0672c-.4272.2843-.8545.5688-1.2818.8535a.4153.4153 0 0 0-.1188.5702A25.677 25.677 0 0 1 2.3512 8.164a1.6071 1.6071 0 0 0-.2843.8862c.001.1179.0135.2354.0371.351.009.034.0192.0736.0308.1164l2.4006 12.8379C4.7557 23.8316 7.651 25 11.1913 25c3.5409 0 6.4361-1.1684 6.6565-2.6444l2.4089-12.882a.8232.8232 0 0 0 .0176-.0557c.0253-.121.0386-.244.0398-.3676 0-.3778-.15-.7417-.4284-1.083a25.713 25.713 0 0 1 2.2068-4.2586.4156.4156 0 0 0-.1188-.5702Zm-9.0193 1.329a27.4265 27.4265 0 0 1 1.1533-3.367c.4617.2005.9233.4013 1.385.6025a26.0822 26.0822 0 0 0-1.4032 4.4822c.0533-.139-.5838 1.6163-.8679 2.658.0013-.0054.0022-.0111.0037-.0165a59.949 59.949 0 0 0-.2719-4.3653c.0002.0021.0008.004.001.0061Zm.5585 4.9533a27.7095 27.7095 0 0 1 2.0848-5.5896c.2222.1157.4443.2314.6664.3473l.6733.3508a26.0239 26.0239 0 0 0-2.6377 9.1157c-.4141.3322-.9563.5939-1.5781.7532a27.7093 27.7093 0 0 1 .7913-4.9774ZM12.066.9489a59.6382 59.6382 0 0 1 .7481 9.5906c.0009-.0041.0022-.008.0032-.0122a28.0963 28.0963 0 0 0-.5324 3.9635 5.8192 5.8192 0 0 1-.9702.0807c-.1851 0-.3669-.009-.545-.0254a57.797 57.797 0 0 0-.5718-13.285c.6223-.1042 1.245-.2083 1.8681-.3122Zm-4.0152.1516a27.6275 27.6275 0 0 1 1.514 4.8512 56.5724 56.5724 0 0 1 .1282 6.6627 28.0962 28.0962 0 0 0-1.6246-6.4288A26.069 26.069 0 0 0 6.6658 1.703c.4611-.201.9228-.4019 1.385-.6025ZM5.8927 4.1794l.6681-.3482a27.716 27.716 0 0 1 2.0727 5.5425c.409 1.5983.6744 3.23.7932 4.8755-.7684-.2827-1.6533-1.2074-1.6312-1.1747A26.0808 26.0808 0 0 0 5.221 4.5293c.2239-.1166.4477-.2332.6716-.35Zm-4.3815-.576c.4192-.2795.8384-.5586 1.2576-.8374.3433.5335.6682 1.0789.9747 1.636a.42.42 0 0 0 .0298.0785A25.716 25.716 0 0 1 6.18 11.9683a12.9773 12.9773 0 0 1-1.2556-.387 26.0563 26.0563 0 0 0-1.4913-4.4077 26.1888 26.1888 0 0 0-1.9219-3.5703ZM17.161 22.2271a.5515.5515 0 0 0-.0042.0252c-.0657.4401-.6984.9497-1.6511 1.33-1.1614.4636-2.6936.7189-4.3144.7189-1.6205 0-3.1526-.2553-4.3139-.7189-.9527-.3803-1.5853-.8899-1.651-1.33a.712.712 0 0 0-.0042-.0252l-1.994-10.6635c.8515.499 1.9915.9158 3.2985 1.2059a.7851.7851 0 0 1 .5235.4164c.324.6298.9112 1.1607 1.6981 1.5353.7542.3591 1.6416.5489 2.5664.5489.9369 0 1.834-.1943 2.5941-.562.7955-.3847 1.3821-.9286 1.6962-1.5727a.787.787 0 0 1 .5212-.4282c1.1925-.2854 2.2362-.6797 3.0288-1.1437l-1.994 10.6636Zm.0528-10.5589c-.3872.1325-.8034.2523-1.2444.358a25.7167 25.7167 0 0 1 2.4158-7.5459.4158.4158 0 0 0 .0297-.0777 27.7795 27.7795 0 0 1 .9749-1.6367c.419.2788.8381.5578 1.2574.8372a26.0556 26.0556 0 0 0-3.4334 8.0651Z"/>
</svg>
