<svg id="gérant" viewBox="0 0 27 25">
  <path fill-rule="evenodd" d="M0 12.7921c.002.042.0053.0836.0082.1254.0026.0367.0046.0738.0078.1103.0044.0484.0103.0964.0159.1445.004.0348.0072.0698.0118.1044.007.0518.0156.103.0238.1543.0049.0305.0089.0614.0142.0917.0143.0806.0302.1606.0478.2401.0076.0343.0167.0679.0248.102.011.0456.0214.0914.0334.1366.0103.0386.022.0765.033.1149.0116.0401.0226.0803.035.1201.0123.0395.026.0785.0392.1177.0126.0377.0247.0757.0382.1131.0143.0399.03.0792.0451.1188.0138.0359.0271.072.0415.1075.0162.0399.0337.0791.0507.1186.015.0346.0295.0692.0451.1034.018.0395.0371.0784.056.1174.0161.0333.032.0668.0487.0998.0198.039.0406.0774.0612.1159.0172.0322.0343.0645.052.0963.0215.0384.044.0762.0663.1139.0184.0312.0366.0624.0555.0931.0232.0376.0472.0747.0712.1117.0195.03.0389.0602.0588.0897.0248.037.0504.0733.0761.1095.0205.029.041.0579.062.0864.0265.036.0536.0714.0808.1068.0216.0278.043.0557.065.083a6.463 6.463 0 0 0 .1535.1837c.027.031.0545.0615.0822.092l3.6427-3.6232L0 12.7921Z" clip-rule="evenodd"/>
  <path fill-rule="evenodd" d="M4.454 18.1637c.0624.015.1252.0292.1882.0422a3.442 3.442 0 0 1 .201-.2357l.0074-.008a3.9695 3.9695 0 0 1 .1809-.1809c.0116-.0109.0231-.0219.035-.0327a4.912 4.912 0 0 1 .076-.0683l.009-.0078c.4095-.3586.9437-.7019 1.6503-1.1006.4745-.2681 1.0253-.56 1.664-.896l.4939-.2605 1.4101-.7455c.088-.047.1772-.0948.2674-.1433l.1086-.0584.0003-.0001.0028-.0013c.0079-.0041.0161-.0073.0243-.0107a.2906.2906 0 0 1 .1732-.0153.2914.2914 0 0 1 .1294.0645l.2045.1784a5.7872 5.7872 0 0 0 .401-1.6531l.0018-.0228a5.5973 5.5973 0 0 0 .0121-.1683c.0007-.0136.0016-.0271.0024-.0407.003-.0591.005-.1183.0061-.1773.0004-.0184.0005-.0368.0007-.0553a5.9045 5.9045 0 0 0-.0002-.1458c-.0002-.0145-.0003-.0291-.0006-.0436a5.8278 5.8278 0 0 0-.4883-2.2087c-.0064-.0146-.0127-.0293-.0193-.0439a5.5502 5.5502 0 0 0-.1213-.2529c-.006-.0117-.0119-.0234-.018-.035-.54-1.0415-1.3861-1.9013-2.4193-2.4608l-.0014-.0007a6.0302 6.0302 0 0 0-.1227-.0646l-.0044-.0022a5.642 5.642 0 0 0-.1215-.0602l-.007-.0034a6.0324 6.0324 0 0 0-.1207-.0561l-.0092-.0041a5.8576 5.8576 0 0 0-.1202-.0524l-.0109-.0046a5.7594 5.7594 0 0 0-.1206-.0491l-.0117-.0046a5.7799 5.7799 0 0 0-.121-.046l-.013-.0047a5.7379 5.7379 0 0 0-.1216-.0427l-.0133-.0045a5.9358 5.9358 0 0 0-.1232-.04l-.013-.004a5.5203 5.5203 0 0 0-.1249-.037 5.6945 5.6945 0 0 0-.14-.038l-.0118-.0033a6.3166 6.3166 0 0 0-.1299-.0316l-.0102-.0023a5.522 5.522 0 0 0-.1337-.0291l-.0076-.0016a6.3168 6.3168 0 0 0-.1426-.0273 5.8899 5.8899 0 0 0-.7428-.0838l.0035 5.8215c0 .0021-.0005.004-.0006.006a.2842.2842 0 0 1-.0049.0499c0 .0005 0 .001-.0002.0016a.2956.2956 0 0 1-.0148.0489c-.0018.0046-.004.009-.006.0136a.2833.2833 0 0 1-.018.0335c-.0026.0043-.0051.0087-.008.0129a.287.287 0 0 1-.0314.0382c-.0005.0005-.0009.0012-.0015.0017 0 .0002-.0002.0002-.0002.0003l-.0004.0004-4.1395 4.1174a5.8212 5.8212 0 0 0 2.154 1.233l.0129.004c.0552.0173.1108.0336.1666.0492.0124.0035.0248.0068.0373.0102.0549.015.11.0296.1655.043.0002.0005.0007.0006.0012.0008Z" clip-rule="evenodd"/>
  <path fill-rule="evenodd" d="M5.5597 6.678C2.8635 6.81.6408 8.7641.112 11.3258l-.0003.0015a5.7486 5.7486 0 0 0-.067.3958 5.9465 5.9465 0 0 0-.0228.1916 6.4499 6.4499 0 0 0-.0056.0632 5.9627 5.9627 0 0 0-.0162.2244c0 .002 0 .004-.0002.006l5.563-.0004-.0033-5.53Zm9.884 5.5309c1.8662 0 3.1182-1.4269 3.8399-2.624.8422-1.3971 1.3865-3.2245 1.3865-4.6553C20.6701 2.2114 18.3255 0 15.4437 0c-2.8819 0-5.2264 2.2114-5.2264 4.9296 0 1.4309.5442 3.2582 1.3864 4.6553.7216 1.1971 1.9736 2.624 3.84 2.624Zm10.2152 6.5523c-.6108-.9224-1.9025-1.6098-4.4761-2.9794-.3983-.2119-.844-.4491-1.3187-.704l-4.3181 3.7606a.2919.2919 0 0 1-.3833-.0002l-3.9595-3.4542c-.0003-.0003-.0008-.0005-.0011-.0009l-.3499-.3053-.1306.0701-.0278.015-.0085.0044-.0016.0009-.0068.0037-.0161.0086-.0135.0072-.0119.0063-.2633.1403c-.0035.002-.008.0043-.0105.0056l-.0194.0103c-.465.2473-.895.4733-1.2892.6805a78.8623 78.8623 0 0 1-.1503.079l-.0034.0018-.0341.0179c-.2085.1096-.407.2142-.5964.3144l-.0045.0024-.0322.017-.1727.0917-.0121.0065c-.0525.0279-.104.0555-.155.0828l-.0731.0392-.089.0479-.0167.009-.1317.0713-.0843.046-.0306.0169c-.6146.3365-1.0669.6062-1.4175.8486a6.8725 6.8725 0 0 0-.2161.1556l-.0023.0017a6.6291 6.6291 0 0 0-.1286.0998c-.012.0095-.0242.0191-.0356.0284a5.2192 5.2192 0 0 0-.156.133l-.0033.0028-.0043.0038a3.155 3.155 0 0 0-.0865.0803l-.0062.0059-.0168.0164a3.7376 3.7376 0 0 0-.0684.0684l-.0122.0125a2.9478 2.9478 0 0 0-.0681.0731l-.0187.0211a3.247 3.247 0 0 0-.0566.0662c-.005.006-.0098.0117-.0146.0177-.0064.0079-.0129.0158-.0191.0237a3.641 3.641 0 0 0-.0546.0706 2.9788 2.9788 0 0 0-.052.0725c-.0037.0054-.0077.0107-.0114.0161-.0021.0031-.0046.0059-.0068.0088a2.5293 2.5293 0 0 0-.05.0768c-.5492.8827-.5351 2.1353-.5071 4.6308.0053.4773.0113 1.0093.0138 1.591h21.7699c-.0013-.5869.0015-1.1227.004-1.6034.0133-2.4804.02-3.7251-.5829-4.6355Zm-9.7425 4.8623h-1.1245v-1.113h1.1245v1.113Zm0-2.2239h-1.1245v-1.1133h1.1245v1.1133Z" clip-rule="evenodd"/>
</svg>
