<svg id="menus" viewBox="0 0 44 25">
  <path d="M25.4587 11.0407a3.3694 3.3694 0 0 1-1.0383-.2733c-.1116-.0737-.4814-.3627-.1637-.8056.4362-.7528.1847-1.9631-1.2413-2.253a7.878 7.878 0 0 0-1.2607-2.4845c-.7708-1.0107-1.7859-1.808-3.0172-2.3695-1.4592-.6656-3.235-1.003-5.2778-1.003-2.0429 0-3.8186.3374-5.2778 1.003-1.2313.5615-2.2464 1.3588-3.0172 2.3695a7.8669 7.8669 0 0 0-1.2455 2.4345c-1.7338.15-2.0613 1.4926-1.591 2.303.3702.5156-.1942.8246-.1947.8246a3.3952 3.3952 0 0 1-.9965.2543c-1.579.1565-1.7622 2.9961 1.0604 3.5636v1.5355c0 .5725.4267 1.1136 1.1847 1.5924.0016.9103.0417 2.6756 1.2692 4.2587 1.549 1.9968 4.4577 3.009 8.6465 3.009s7.0976-1.0122 8.646-3.009c1.1966-1.5425 1.2654-3.2574 1.2692-4.1866.8312-.4961 1.3023-1.0627 1.3023-1.6645v-1.561c2.6995-.6217 2.5001-3.3838.9434-3.5381Zm-11.999-8.484c8.9523 0 9.2108 6.6197 9.2108 7.3745 0 .6272-.9553 1.3053-2.5554 1.814-1.7726.5636-4.1362.874-6.6554.874-2.5192 0-4.8828-.3104-6.6554-.874-1.6001-.5087-2.5554-1.1868-2.5554-1.814 0-.7548.2585-7.3746 9.2108-7.3746Zm5.8432 13.2955a9.3568 9.3568 0 0 0-.6365 1.1464c-.0602.1225-.1166.2418-.1703.3546-.0553.116-.1062.2234-.1523.3177l-.7205 1.4644a.574.574 0 0 1-.1933.2261.574.574 0 0 1-.2806.0987.5809.5809 0 0 1-.5237-.2381l-.5422-.7427c-.1415-.1947-.3101-.4685-.488-.7585a48.8169 48.8169 0 0 0-.1935-.3134c-.3825-.6153-.8004-1.241-1.2707-1.6317a3.411 3.411 0 0 0 1.3916-.5814 1.0642 1.0642 0 0 1 1.2551.0162c.3996.2933 1.0562.5791 2.1177.6365.1431.0076.2784.0089.4072.0052ZM2.9543 14.6951a7.3527 7.3527 0 0 0 1.3403-.0663 1.075 1.075 0 0 1 .9824.3811c.3323.4104 1.0268.9114 2.423.8371 1.0675-.0574 1.7246-.3464 2.1236-.6408a1.0773 1.0773 0 0 1 1.2638-.0287c.1717.121.354.2261.5448.3141l-.0021.0057.0743.0267c.1488.0648.3017.1197.4578.1644l1.1877.4265c.4061.1458.8528.7346 1.2432 1.3337a30.8003 30.8003 0 0 1-1.2367.0244c-3.1365 0-5.9568-.4543-7.9097-1.177a10.1147 10.1147 0 0 1-.8344-.3508c-.7753-.3715-1.346-.7943-1.658-1.2501Zm9.6732 4.9852-.4113.2404c-.7164.2998-1.2435.8863-1.7063 1.4762l-.6951.8841a.5907.5907 0 0 1-.9775-.0737l-.8658-1.5269c-.0526-.093-.113-.2061-.1771-.3258-.2307-.4315-.5048-.9433-.8185-1.3041 1.6217.36 3.5578.5868 5.6516.6298Zm8.7595 1.8785c-1.408 1.8157-4.1297 2.7363-8.0892 2.7363-3.9594 0-6.6811-.9206-8.0891-2.7363-.932-1.2015-1.0898-2.5563-1.1164-3.4401.2626.124.5499.2423.8584.3545l1.3177.8692c.3094.2316.6672.9007.9044 1.3445.0662.1237.1286.2405.1856.3411l.8659 1.5272a1.294 1.294 0 0 0 1.1276.656 1.2917 1.2917 0 0 0 1.0171-.4947l.6952-.8843c.4082-.5203.8654-1.034 1.4418-1.2687a.3527.3527 0 0 0 .0449-.0221l1.471-.86a33.8154 33.8154 0 0 0 1.997-.0956l.0375.0515a1.2786 1.2786 0 0 0 1.0393.5297c.0379 0 .0764-.0016.1149-.0049a1.2788 1.2788 0 0 0 1.0453-.7162l.0629-.1274c1.6775-.2651 3.1153-.6609 4.1823-1.145-.0314.8843-.2011 2.2082-1.1141 3.3853Zm.6468-5.5822c-.257.1204-.5351.235-.8344.3438a15.2855 15.2855 0 0 1-1.6466.4874c.2169-.405.4565-.7878.6843-.9749l.2738-.2248a2.0816 2.0816 0 0 0 .8072-.5982 1.0757 1.0757 0 0 1 .4417-.3191 1.0757 1.0757 0 0 1 .5413-.062c.484.0695.9739.0895 1.4619.0597-.3197.4714-.916.9076-1.7292 1.2881Z"/>
  <path d="M9.9051 6.5266c.223.1287.4682.2217.6488.2217.1061 0 .19-.0322.2338-.108.1185-.2052-.1857-.5033-.5397-.7076-.354-.2044-.7642-.3188-.8826-.1137-.04.0694-.0533.1907.111.3745.1251.1322.2697.2445.4287.333Zm8.2342.8741c.1562.0934.3258.1625.5029.2047a.7179.7179 0 0 0 .1467.0169c.1373 0 .2023-.0548.233-.108.0401-.0694.0534-.1906-.1109-.3744a1.9895 1.9895 0 0 0-.9317-.538c-.2414-.0504-.3397.0218-.3797.0912-.04.0694-.0533.1907.111.3744a1.787 1.787 0 0 0 .4287.3332Zm-3.2327-.9212c.1897 0 .4495-.21.656-.4607.2599-.3155.4403-.7013.2574-.8519-.1828-.1506-.5269.1004-.7867.4158-.2599.3156-.4402.7013-.2574.852a.1996.1996 0 0 0 .1307.0448Zm-1.8855 1.7751c-.0403.0699-.0536.1922.1124.378a2.016 2.016 0 0 0 .9441.545.7307.7307 0 0 0 .1485.0171c.1386 0 .2041-.0552.235-.1087.0404-.07.0537-.1923-.1123-.378a1.811 1.811 0 0 0-.4345-.3376c-.3584-.207-.7736-.323-.8932-.1158Zm-4.222.9401a.7333.7333 0 0 0 .1485-.017 1.8121 1.8121 0 0 0 .5096-.2076c.3584-.2069.6665-.5084.5469-.7156-.1196-.2071-.5347-.0911-.8931.1159-.3584.207-.6665.5084-.547.7155.031.0536.0965.1088.2351.1088Zm3.2085-4.4678c.1828 0 .4313-.0943.6573-.2248.3583-.207.6664-.5084.5468-.7156-.0403-.0699-.1396-.1424-.3835-.0917a2.0165 2.0165 0 0 0-.9441.5452c-.166.1857-.1527.308-.1124.378.0442.0765.1288.1089.2359.1089Zm26.378 4.5357a.3677.3677 0 0 0-.3721.3632c.0007-.0029.0009.0073.0013.0123.0005.0056.0003.014.0005.0208a2.9206 2.9206 0 0 1-.0049.1413 2.4679 2.4679 0 0 1-.0224.1986 3.4398 3.4398 0 0 1-.0865.4015 3.7737 3.7737 0 0 1-.1367.3953c-.0246.066-.0563.1289-.0845.1937-.0299.064-.0634.1265-.095.1902l-.0072.0144a.2402.2402 0 0 0 .4126.2433c.045-.065.0919-.1291.1355-.1956.0419-.0675.2414-.4144.2414-.4144.0383-.0707.0703-.1449.1048-.2181a4.0425 4.0425 0 0 0 .17-.4594c.0243-.079.045-.1598.0634-.2426.0091-.0415.042-.2507.0431-.2724a.3678.3678 0 0 0-.3633-.3721Zm-.9289 3.2456a.3752.3752 0 1 0-.5717-.4861.3752.3752 0 0 0 .5717.4861Z"/>
  <path d="M42.5134 0h-2.853a2.7019 2.7019 0 0 0-2.6364 2.1503l-.0292.1476a17.5238 17.5238 0 0 0-3.0808-.2619c-3.8789 0-7.0237 1.1597-7.0237 2.5901h-.0014s-.3522 2.9586 1.1222 5.8645c1.293 2.548 1.9818 5.2622 1.7337 7.4912a6.2202 6.2202 0 0 1-.2421 1.1305c-.1158.3787-.2329 1.2652.0995 2.3785l.0014-.0004c.1981.9295 2.0522 1.6577 4.3104 1.6577 2.2582 0 4.1122-.7282 4.3108-1.6577.3324-1.1134.2153-1.9994.0996-2.3781a6.2562 6.2562 0 0 1-.2422-1.1305c-.2481-2.229.4408-4.9432 1.7337-7.4912 1.4749-2.9059 1.1222-5.8645 1.1222-5.8645h-.0005c0-.87-1.1634-1.64-2.9479-2.1096l.0328-.1662a1.6803 1.6803 0 0 1 1.6379-1.3318h2.853a.5092.5092 0 1 0 0-1.0185Zm-8.5995 2.7373a18.7825 18.7825 0 0 1 2.9504.2219l-.0001.0003-.6698 3.3906c.0013-.0002.0025 0 .0038-.0002a19.6172 19.6172 0 0 1-2.2842.1294c-3.4466 0-6.2408-.838-6.2408-1.8712 0-1.0333 2.7942-1.8708 6.2408-1.8708h-.0001Zm1.6932 6.5845c-.4826.4077-1.0224.8168-1.8195 1.183-1.0837.4978-2.2606.5625-3.4981.1923a6.1659 6.1659 0 0 1-1.4303-.6354.4056.4056 0 0 1 .0865-.1373c.1859-.2016.7569-.5262 2.4915-.4347 1.8642.0984 3.2405-.0036 4.1739-.188l-.004.0201Zm-7.9978-2.575a.5754.5754 0 0 1 .83-.5824 6.491 6.491 0 0 0 .956.3727c1.2152.374 2.8202.5796 4.5187.5796a19.6501 19.6501 0 0 0 2.1551-.1154l-.0034.0006-.3278 1.6584a7.823 7.823 0 0 1-.6465.1216c-.9721.1437-2.2247.1806-3.6225.1069-1.55-.0817-2.5593.1425-2.9999.6666a1.0157 1.0157 0 0 0-.1319.2002c-.4058-.9856-.6177-2.1214-.7278-3.0088Zm11.6701 3.4711c-1.4101 2.7794-2.048 5.5603-1.7953 7.8301.0495.4207.1381.8359.2648 1.2402.0259.0856.2454.8707-.1009 2.0299l-.0069.0232-.0051.0236c-.0403.1898-.369.493-1.0115.7416-.7324.2833-1.6953.4398-2.7105.4398s-1.9777-.1565-2.7105-.4398c-.6425-.2486-.9708-.5518-1.0115-.7416l-.1273-.512c-.1741-.9009-.0088-1.4911.0134-1.5648a6.7952 6.7952 0 0 0 .2648-1.2402c.2375-2.1329-.3112-4.7172-1.5488-7.3275a6.8569 6.8569 0 0 0 1.3017.5469 5.9752 5.9752 0 0 0 1.733.2643 5.2635 5.2635 0 0 0 2.2101-.48 7.774 7.774 0 0 0 1.3883-.8192l-1.9127 9.6815c-1.6455.0632-2.9213.5108-2.9213 1.0539 0 .5865 1.4868 1.0619 3.3209 1.0619s3.3209-.4754 3.3209-1.0619c0-.5168-1.1549-.9471-2.6845-1.0421l2.1178-10.7212c.7694-.6438 1.5907-1.1795 3.3845-1.4107-.1562.8097-.3982 1.6851-.7734 2.4241Zm.9379-3.4688a17.1197 17.1197 0 0 1-.059.4279.3012.3012 0 0 0-.0374.0017c-1.5993.187-2.5251.6045-3.2513 1.1102a.3271.3271 0 0 0-.0194-.0053l.284-1.4368h-.0003a11.298 11.298 0 0 0 1.2992-.3097 6.4406 6.4406 0 0 0 .9579-.3722.5744.5744 0 0 1 .7813.2818.5747.5747 0 0 1 .045.3024Zm-.062-2.141c0 .6639-1.1537 1.247-2.8929 1.5792.0008-.0001.0016-.0005.0023-.0006l.5981-3.0272v-.0001c1.3992.343 2.2925.8645 2.2925 1.4487Z"/>
</svg>
