<svg id="payée" viewBox="0 0 25 25">
  <path d="M14.281 5.7584h4.0741a.379.379 0 0 1 0 .7577H14.281a.3787.3787 0 1 1 0-.7577Zm-2.4887.7577h.47a.379.379 0 0 0 .3788-.3788.379.379 0 0 0-.3788-.379h-.47a.379.379 0 0 0 0 .7578Zm2.4887-2.5253h4.0741a.3786.3786 0 0 0 .3583-.3783.3787.3787 0 0 0-.3583-.3783H14.281a.3791.3791 0 0 0-.3584.3783.379.379 0 0 0 .3584.3783Zm-2.4887 5.0495h3.0631a.3786.3786 0 0 0 .3583-.3783.3787.3787 0 0 0-.3583-.3783h-3.0631a.3786.3786 0 0 0-.3583.3783.3787.3787 0 0 0 .3583.3783Zm0 2.5243h2.0532a.379.379 0 0 0 0-.7566h-2.0532a.3787.3787 0 0 0 0 .7566Zm0 2.5253h2.0532a.379.379 0 0 0 0-.7577h-2.0532a.379.379 0 0 0-.2679.1109.3792.3792 0 0 0 0 .5358.3787.3787 0 0 0 .2679.111Zm3.4442 2.1454a.379.379 0 0 0-.3789-.3778h-3.0653a.3775.3775 0 0 0-.281.1033.3776.3776 0 0 0-.1184.275.378.378 0 0 0 .2483.3556.3775.3775 0 0 0 .1511.0227h3.0631a.379.379 0 0 0 .2679-.1109.3792.3792 0 0 0 .1109-.2679h.0023ZM11.7923 3.9908h.47a.3786.3786 0 0 0 .3583-.3783.3787.3787 0 0 0-.3583-.3783h-.47a.3787.3787 0 0 0-.2545.6388.3786.3786 0 0 0 .2545.1178Zm6.5628 16.9152H14.281a.3789.3789 0 1 0 0 .7577h4.0741a.3787.3787 0 1 0 0-.7577Zm-6.0928 0h-.47a.379.379 0 0 0-.2679.1109.379.379 0 0 0 .2679.6468h.47a.379.379 0 0 0 0-.7577Zm1.6409-2.1454a.3774.3774 0 0 0 .3778.3777h4.0741a.3792.3792 0 0 0 .281-.1032.378.378 0 0 0 .1183-.2751.3799.3799 0 0 0-.1183-.275.3783.3783 0 0 0-.281-.1033H14.281a.3768.3768 0 0 0-.2675.1111.3768.3768 0 0 0-.1103.2678Zm-1.6409-.3789h-.47a.3788.3788 0 0 0-.2545.6389.3782.3782 0 0 0 .2545.1177h.47a.3787.3787 0 0 0 0-.7566Zm8.1859-.9832v7.2149a.3807.3807 0 0 1-.3855.3766.3799.3799 0 0 1-.19-.0533l-2.3009-1.3954c-.0444 0-2.5109 1.5821-2.4987 1.451.0067.1277-2.4509-1.4443-2.4975-1.451l-2.302 1.3954a.3805.3805 0 0 1-.3803.0037.3805.3805 0 0 1-.1941-.327v-6.7638h-6.895A2.8076 2.8076 0 0 1 0 15.0454V6.6339a.3822.3822 0 0 1 .58-.3211l2.222 1.3899 2.0476-1.2788V2.8064A2.8242 2.8242 0 0 1 7.6526 0h9.9925a2.8063 2.8063 0 0 1 2.8031 2.8042v4.7885a4.9205 4.9205 0 0 1 4.5028 4.9029 4.9207 4.9207 0 0 1-4.5028 4.9029ZM4.8496 15.0454V7.3171L2.9997 8.4704a.3789.3789 0 0 1-.401 0L.7577 7.317v7.7283a2.0458 2.0458 0 0 0 .5821 1.4778 2.0474 2.0474 0 0 0 1.4639.6163 2.0472 2.0472 0 0 0 1.4638-.6163 2.0466 2.0466 0 0 0 .582-1.4778ZM9.6992 2.8042A2.0488 2.0488 0 0 0 7.6527.7577a2.0476 2.0476 0 0 0-2.0454 2.0465v12.2412a2.7951 2.7951 0 0 1-.8888 2.0465h4.9807V2.8042Zm9.9913 14.5943a4.9209 4.9209 0 0 1-4.5028-4.9029 4.9209 4.9209 0 0 1 4.5028-4.903V2.8043A2.0475 2.0475 0 0 0 17.6451.7577H9.567a2.794 2.794 0 0 1 .8888 2.0465v21.1359a21.6234 21.6234 0 0 1 2.1187-1.2221c-.0089-.1311 2.4531 1.4443 2.4975 1.4443l2.3032-1.3865a.3766.3766 0 0 1 .3921 0l1.9232 1.1655v-6.5428Zm.3789-9.0659a4.1662 4.1662 0 0 0-2.946 7.1123 4.1659 4.1659 0 0 0 5.892 0 4.1663 4.1663 0 0 0-2.946-7.1123Zm0 3.7875c-.6166 0-.9288-.2733-.9288-.81-.0223-.8954 1.4943-1.0988 1.8009-.2766a.3786.3786 0 0 0 .4961.2027.3785.3785 0 0 0 .2027-.496 1.6385 1.6385 0 0 0-1.1976-.9544c.0189-.2944.0122-.6921-.3789-.6977-.3911-.0056-.3977.4033-.3788.6966a1.5564 1.5564 0 1 0 .3788 3.0897c.62 0 .9333.2733.9333.81.0222.8954-1.4943 1.0988-1.801.2766a.3776.3776 0 0 0-.4955-.2022c-.7122.4855.4333 1.3754.9844 1.4443-.0178.2933-.0123.6911.3788.6977.3911.0067.3978-.4021.3789-.6955a1.5551 1.5551 0 0 0 .7532-2.7554 1.5557 1.5557 0 0 0-1.1287-.3321l.0022.0023Z"/>
</svg>
