<svg id="plats" viewBox="0 0 29 25">
  <path d="M27.4954 9.924a3.641 3.641 0 0 1-1.1213-.2951c-.1206-.0796-.52-.3917-.1768-.8701.471-.813.1994-2.1202-1.3407-2.4332a8.5063 8.5063 0 0 0-1.3615-2.6833c-.8325-1.0916-1.9288-1.9526-3.2586-2.559C18.6606.3643 16.7428 0 14.5365 0s-4.1241.3644-5.7 1.0832c-1.3298.6065-2.4262 1.4675-3.2586 2.5591a8.4963 8.4963 0 0 0-1.3452 2.6292c-1.8725.1621-2.2261 1.612-1.7183 2.4873.4.5568-.2096.8906-.2102.8906a3.6662 3.6662 0 0 1-1.0762.2746c-1.7054.169-1.9032 3.2358 1.1453 3.8487v1.6583c0 .6184.4608 1.2028 1.2794 1.7198.0017.9831.045 2.8896 1.3707 4.5994C6.6964 23.9068 9.8378 25 14.3617 25s7.6653-1.0932 9.3376-3.2498c1.2923-1.6658 1.3667-3.5179 1.3708-4.5215.8976-.5358 1.4065-1.1477 1.4065-1.7977v-1.6859c2.9154-.6714 2.7001-3.6545 1.0188-3.821ZM14.5365.7612c9.6685 0 9.9476 7.1493 9.9476 7.9646 0 .6773-1.0317 1.4097-2.7597 1.9591-1.9145.6087-4.4672.9439-7.1879.9439s-5.2734-.3352-7.1879-.9439c-1.728-.5494-2.7598-1.2818-2.7598-1.9591 0-.8153.2792-7.9646 9.9477-7.9646Zm6.3106 14.3592a10.1036 10.1036 0 0 0-.6874 1.2382c-.065.1323-.1259.2611-.1838.3829-.0598.1253-.1148.2412-.1646.3431l-.7782 1.5816a.6188.6188 0 0 1-.5117.3507.6284.6284 0 0 1-.5657-.257l-.5855-.8022c-.1528-.2102-.3349-.5059-.527-.8192a58.2065 58.2065 0 0 0-.209-.3385c-.4131-.6645-.8644-1.3403-1.3724-1.7622a3.683 3.683 0 0 0 1.5029-.6279 1.1496 1.1496 0 0 1 1.3556.0175c.4315.3168 1.1406.6254 2.2871.6875.1545.0082.3007.0095.4397.0055ZM3.1907 13.8707a7.9263 7.9263 0 0 0 1.4474-.0716 1.1614 1.1614 0 0 1 1.061.4117c.359.4432 1.109.9843 2.6168.9041 1.153-.0621 1.8626-.3742 2.2936-.6922a1.1638 1.1638 0 0 1 1.3649-.031c.1854.1307.3823.2443.5884.3393l-.0023.0062.0803.0288c.1607.07.3258.1293.4943.1775l1.2828.4606c.4385.1575.921.7934 1.3426 1.4405-.438.0175-.8832.0263-1.3356.0263-3.3874 0-6.4334-.4907-8.5425-1.2712-.3232-.1201-.6236-.2463-.9011-.3789-.8373-.4012-1.4536-.8577-1.7906-1.3501Zm10.447 5.384-.4442.2597c-.7737.3238-1.3429.9573-1.8427 1.5943l-.7508.9549a.6372.6372 0 0 1-.5491.2414.6368.6368 0 0 1-.5067-.3211l-.935-1.649c-.0568-.1004-.1221-.2226-.1913-.3519-.2491-.466-.5451-1.0187-.884-1.4084 1.7516.3888 3.8425.6338 6.1038.6801Zm9.4603 2.0289c-1.5207 1.9609-4.4601 2.9552-8.7363 2.9552-4.2763 0-7.2157-.9943-8.7364-2.9552-1.0065-1.2976-1.1769-2.7609-1.2056-3.7153.2837.1339.5938.2616.927.3828l1.4232.9388c.334.25.7205.9727.9767 1.452.0715.1336.139.2598.2005.3684l.9351 1.6494a1.3975 1.3975 0 0 0 1.2178.7085 1.395 1.395 0 0 0 1.0985-.5344l.7509-.955c.4408-.5618.9345-1.1167 1.5571-1.3701a.3973.3973 0 0 0 .0485-.024l1.5887-.9287a36.4545 36.4545 0 0 0 2.1568-.1033l.0404.0557a1.3808 1.3808 0 0 0 1.1225.572c.041 0 .0825-.0017.1241-.0052a1.3818 1.3818 0 0 0 1.1289-.7735l.068-.1376c1.8116-.2864 3.3645-.7138 4.5168-1.2367-.0339.955-.2172 2.3849-1.2032 3.6562Zm.6985-6.0288c-.2775.13-.5779.2537-.9011.3712a16.4683 16.4683 0 0 1-1.7783.5264c.2342-.4374.493-.8508.7389-1.0528l.2958-.2428a2.2477 2.2477 0 0 0 .8718-.646 1.1623 1.1623 0 0 1 1.0616-.4117 7.771 7.771 0 0 0 1.5789.0645c-.3453.5092-.9893.9803-1.8676 1.3912Z"/>
  <path d="M10.6972 5.0487c.2408.139.5056.2395.7007.2395.1146 0 .2052-.0347.2525-.1167.1279-.2216-.2006-.5435-.5829-.7642s-.8253-.3443-.9532-.1227c-.0432.0749-.0576.2059.1198.4044.1352.1428.2913.264.4631.3597Zm8.8932.9441c.1687.101.3518.1755.5431.2211a.7747.7747 0 0 0 .1584.0182c.1483 0 .2185-.0591.2517-.1166.0432-.075.0576-.2059-.1198-.4044a2.1486 2.1486 0 0 0-1.0062-.581c-.2607-.0545-.3669.0236-.4101.0985-.0432.075-.0576.206.1198.4044.1351.1428.2913.2641.4631.3598Zm-3.4916-.9949c.2048 0 .4854-.2268.7085-.4976.2806-.3407.4754-.7574.278-.92-.1975-.1627-.5691.1084-.8497.4491-.2807.3407-.4754.7574-.278.92a.2155.2155 0 0 0 .1412.0485Zm-2.0362 1.917c-.0436.0755-.058.2076.1214.4082a2.1773 2.1773 0 0 0 1.0196.5887.7902.7902 0 0 0 .1604.0184c.1497 0 .2204-.0596.2538-.1174.0436-.0755.058-.2077-.1213-.4083a1.957 1.957 0 0 0-.4693-.3645c-.3871-.2235-.8354-.3489-.9646-.1251ZM9.5031 7.9302a.791.791 0 0 0 .1604-.0184 1.9579 1.9579 0 0 0 .5504-.2241c.387-.2235.7197-.5491.5906-.7728s-.5775-.0985-.9646.125c-.387.2236-.7198.5491-.5906.7729.0334.0579.1041.1174.2538.1174Zm3.465-4.8252c.1974 0 .4658-.1018.7098-.2427.3871-.2235.7198-.5491.5907-.7728-.0436-.0755-.1508-.1539-.4142-.099a2.178 2.178 0 0 0-1.0197.5887c-.1793.2006-.1649.3327-.1213.4082.0477.0827.139.1177.2547.1177Z"/>
</svg>
