<svg id="prendre_commande" viewBox="0 0 26 25">
  <path d="M12.3946 24.0385H1.5498a9.0413 9.0413 0 0 0 1.939-5.6214V.9615h16.7305v9.2051a.4804.4804 0 0 0 .4808.4807.4804.4804 0 0 0 .4807-.4807V.4808A.4808.4808 0 0 0 20.7001 0H3.0081a.4806.4806 0 0 0-.4808.4808V18.417a8.0959 8.0959 0 0 1-2.3865 5.7622.4806.4806 0 0 0 .34.8207h11.9138a.4808.4808 0 0 0 0-.9615Z"/>
  <path d="M17.3686 6.0557H6.3398a.4808.4808 0 0 0 0 .9615h11.0288a.481.481 0 0 0 .4808-.4808.481.481 0 0 0-.4808-.4807Zm.4808 3.7381a.4801.4801 0 0 0-.1408-.34.4796.4796 0 0 0-.34-.1408H6.3398a.4808.4808 0 1 0 0 .9615h11.0288a.4796.4796 0 0 0 .4442-.2967.4801.4801 0 0 0 .0366-.184Zm-4.7936 3.2574a.4801.4801 0 0 0-.1408-.34.4801.4801 0 0 0-.34-.1408H6.3398a.481.481 0 0 0-.4808.4808.481.481 0 0 0 .4808.4808h6.2352a.4801.4801 0 0 0 .34-.1408.4801.4801 0 0 0 .1408-.34Zm-6.716 2.7767a.4806.4806 0 0 0-.34.8207.4806.4806 0 0 0 .34.1408h3.9215a.4806.4806 0 1 0 0-.9615H6.3398Zm17.2024-1.4373a6.2094 6.2094 0 0 0-9.0726.304 6.2083 6.2083 0 0 0-1.4403 3.0261l-.3821-.3821a.4808.4808 0 1 0-.6798.6799l1.1063 1.1062a.4821.4821 0 0 0 .6805 0l1.1065-1.1062a.4808.4808 0 0 0-.6798-.6799l-.1092.1092a5.248 5.248 0 0 1 1.8674-2.8131 5.2486 5.2486 0 1 1-.5058 7.8651.4811.4811 0 0 0-.6799 0 .4812.4812 0 0 0 0 .6799 6.2146 6.2146 0 0 0 8.7869-.0023 6.2149 6.2149 0 0 0 .002-8.7868h-.0001Z"/>
  <path d="M19.148 14.6226a.48.48 0 0 0-.4442.2967.4805.4805 0 0 0-.0366.184v3.6819a.4878.4878 0 0 0 .1413.3403l1.7424 1.7424a.4806.4806 0 0 0 .8184-.3406.4806.4806 0 0 0-.1386-.3392l-1.6019-1.602v-3.4828a.4805.4805 0 0 0-.4808-.4807Z"/>
</svg>
