<svg id="serveur" viewBox="0 0 27 25">
  <path d="M3.3017 15.6203c-.4331-.4175-.6205-.517-.7393-.517-.052 0-.0907.0189-.1312.0388-.643.3214-2.2471 1.4401-2.3923 1.7511l-.0008.0018c-.0797.1681-.028.3165.0967.6363.067.1716.1428.366.202.603.2676 1.0706.2134 2.3244.161 3.537-.0535 1.2391-.104 2.4095.1849 3.2652.0121.0359.0243.0428.043.0497.12.0447.4336-.0171.779-.2195.33-.1951.9695-.501 1.71-.8552 1.1581-.554 3.3138-1.5852 3.5117-1.9359.1003-.226.0408-.5937-.1843-1.1189-.5398-1.2593-2.4468-4.4775-3.2404-5.2364Zm.3363 6.2322c-.3455.0376-.6608-.2102-.6984-.5557-.0451-.353.2102-.6684.5557-.7059.353-.0376.6683.2103.7059.5558.0375.3529-.2103.6682-.5632.7058ZM17.388 1.147 13.9472 0l-3.441 1.147v3.2154h6.8818V1.147Zm3.8734 8.846 1.5641-3.128H4.4434l1.564 3.128h15.254Zm4.5688 4.3243c-.4504-.3625-1.305-.496-1.8712-.4158-1.6202.2225-4.0551 1.5228-5.4199 2.618a1.2303 1.2303 0 0 1-.2722.3535c-.3989.3588-1.048.4938-1.8095.4938-1.2441 0-2.7884-.3604-4.0318-.6947-.0877-.0236-.1623-.0437-.2215-.059a.3127.3127 0 1 1 .157-.6056c.0606.0157.137.0362.2269.0605.5864.1575 1.678.4509 2.7716.5951 1.5897.2093 2.2309-.0232 2.489-.2552a.592.592 0 0 0 .1542-.2126c.0006-.0012.0008-.0023.0014-.0035.0057-.0131.0105-.0268.0155-.0405.003-.0088.006-.0175.0087-.0268l.0017-.0061c.0308-.1095.0412-.2521.0116-.4413-.0545-.3467-.3052-.6766-.7459-.9838-2.0532-1.4323-7.08-1.7716-8.5788-1.4706l-.0014.0003c-1.3105.2571-3.1273 1.3223-4.4538 2.1001l-.2498.1463a6.402 6.402 0 0 1 .0887.1081c.355.4419.784 1.0766 1.2092 1.7578l.0017.0027c.0345.0554.069.111.1035.1669l.0051.0084a35.511 35.511 0 0 1 .3192.5273l.0952.1609.0035.0061a43.0151 43.0151 0 0 1 .1901.3266l.018.0313c.0284.0494.0567.0986.0845.1476l.0126.0223c.025.044.0498.0878.0743.1313l.0174.0308c.026.0461.0515.0918.0767.1372l.0212.038a51.3087 51.3087 0 0 1 .091.165l.0619.1133.0179.033a40.1668 40.1668 0 0 1 .0877.1631c.022.0411.0436.0818.0647.1217.0052.0099.0103.0195.0153.0293.0186.0352.0367.07.0546.1043l.0145.0279c.02.0385.0393.0761.0583.1133l.0168.0328c.0187.0367.0369.0729.0545.1081a14.475 14.475 0 0 1 .0597.1206l.009.0184c.0168.0343.0327.0674.0482.0997l.0067.0139c1.2523-.4604 2.2394-.6273 3.0845-.6273 1.0827 0 1.9321.274 2.8083.5566 1.0204.3291 2.076.6697 3.6154.5531 1.0529-.0781 3.4714-1.1283 5.751-2.4973 2.7293-1.6389 3.9327-2.9313 3.8958-3.4386-.0165-.2218-.1208-.4073-.3185-.5663ZM7.6925 1.547H6.4412v1.2513h1.2513V1.5471Zm-1.8758 0H4.5654v1.2513h1.2513V1.5471Zm-1.8799 0H2.6856v1.2513h1.2512V1.5471Zm21.2727 0h-1.2512v1.2513h1.2512V1.5471Zm-1.8757 0h-1.2513v1.2513h1.2513V1.5471Zm-1.8758 0h-1.2513v1.2513h1.2513V1.5471Z"/>
</svg>
