<svg id="servie" viewBox="0 0 21 25">
  <path d="M11.7465 14.5492c2.4289 0 4.4047-1.9758 4.4047-4.4047s-1.9758-4.405-4.4047-4.405-4.405 1.9758-4.405 4.405c0 2.4292 1.9761 4.4047 4.405 4.4047Zm0-8.266c2.1289 0 3.8611 1.7321 3.8611 3.8613 0 2.1289-1.7322 3.8611-3.8611 3.8611s-3.8611-1.7322-3.8611-3.8611c0-2.1292 1.7322-3.8614 3.8611-3.8614Z"/>
  <path d="M11.7469 13.3273c.0003 0 .0003 0 0 0 .0003 0 .0003 0 0 0h.0006c1.3094-.0003 2.3747-1.4281 2.3747-3.1828 0-1.7409-1.0486-3.1578-2.3436-3.1809-.0022-.0002-.0042-.0002-.0064-.0005-.0083 0-.0166-.0017-.025-.0017-1.3097 0-2.3752 1.4278-2.3752 3.1828s1.0652 3.1831 2.3749 3.1831Zm1.8314-3.1828c0 1.0761-.45 2.0022-1.0922 2.4125.1264-.2347.2286-.5195.2461-.8453.0322-.6094-.2344-1.2014-.7928-1.7594-.443-.4434-.6563-.8945-.6344-1.3417.0267-.5389.3858-.9458.5408-1.0978.9636.0745 1.7325 1.2245 1.7325 2.6317Zm-2.5702-2.4128c-.1264.2347-.2289.5197-.2462.8456-.0322.6094.2345 1.2014.7928 1.7594.4431.4431.6564.8944.6342 1.3417-.0267.5389-.3858.9461-.5406 1.0977-.9639-.0744-1.7327-1.2244-1.7327-2.6316 0-1.0764.45-2.0025 1.0925-2.4128Z"/>
  <path d="M19.2333 18.4506h-2.8097a.8806.8806 0 0 0 .0692-.2859l1.0278-14.3972h.3105a.2719.2719 0 0 0 .272-.272V2.714c0-.5986-.4806-1.0853-1.0762-1.0995l-.1958-.6533C16.6586.3864 16.1394 0 15.5392 0h-7.585c-.6 0-1.1192.3864-1.2917.9614l-.1958.653c-.5956.0142-1.0764.5006-1.0764 1.0995v.7817c0 .1502.1216.2719.272.2719h.3116l.8539 11.9714c-.9514.5011-1.7967.7839-2.512.8347-1.336.0922-2.1152.6525-2.546 1.1381-.0495-.067-.1254-.1131-.215-.1131H.2718a.2719.2719 0 0 0-.2719.272v6.8444c0 .1503.1217.2719.272.2719h1.2827a.2718.2718 0 0 0 .272-.2719v-.0342c.1764.0223.3722.0598.5897.1025.4986.0984 1.0994.2167 1.825.2167.1364 0 .2775-.0042.4228-.0136 2.6583-.1658 3.783-.7442 5.3397-1.5442.7697-.3955 1.6422-.8439 2.8697-1.3266 2.2717-.8906 4.715-1.055 6.0275-1.1434a44.128 44.128 0 0 0 .4336-.0305 1.2721 1.2721 0 0 0 .83-.3978c.2147-.2353.3334-.5347.3334-.8436 0-.6892-.5675-1.2497-1.2648-1.2497ZM7.1833 1.1175a.7998.7998 0 0 1 .7709-.5736h7.5852a.8002.8002 0 0 1 .7709.5736l.1483.4944H7.035l.1483-.4944ZM5.934 2.7139c0-.3078.2503-.558.558-.558h10.5094a.5586.5586 0 0 1 .5578.558v.5097H5.9339V2.714Zm3.6778 14.96h6.3708l-.0325.4536a.3517.3517 0 0 1-.2967.3231H8.7417l.87-.7767Zm7.3636-13.9058-.954 13.3619h-5.8072c.285-.2703.4505-.63.4616-1.0222.0114-.4011-.1364-.78-.4175-1.0692a.219.219 0 0 0-.0216-.0244c-.5175-.5148-1.3295-.587-1.9309-.1723a16.7707 16.7707 0 0 1-.5377.3542 14.1504 14.1504 0 0 1-.4159.2545L6.519 3.7681h10.4564ZM1.2831 24.443H.544v-6.3006h.739v6.3006Zm18.483-4.2692a.7267.7267 0 0 1-.4736.2255 40.345 40.345 0 0 1-.4281.0303c-1.3416.0903-3.8394.2584-6.1897 1.1797-1.2528.4925-2.138.9478-2.9191 1.3489-1.4981.77-2.5806 1.3261-5.1256 1.4853-.8486.055-1.5467-.0833-2.1078-.1939-.2533-.05-.4825-.0953-.695-.118v-5.5325c.1014-.232.6864-1.3559 2.527-1.4831.83-.0592 1.7986-.3872 2.8783-.975a.6704.6704 0 0 0 .063-.033c.4276-.2345.859-.5023 1.319-.8184a.9743.9743 0 0 1 1.225.0961.2583.2583 0 0 0 .0186.0209c.1841.1841.2816.4277.2744.6855-.0072.2567-.1178.4931-.3111.6659l-1.9397 1.7316-.0278.0228a.2718.2718 0 0 0 .1728.4819h11.2066c.3975 0 .7209.3167.7209.7059 0 .2214-.1039.3814-.1881.4736Z"/>
</svg>
