<svg id="soft" viewBox="0 0 18 25">
  <path d="M12.4567 10.0037a.3972.3972 0 0 0-.4019.3923c.0008-.0032.001.0079.0014.0132.0006.0061.0004.0151.0006.0225a3.1975 3.1975 0 0 1-.0053.1526 2.6422 2.6422 0 0 1-.0243.2145 3.6941 3.6941 0 0 1-.0934.4336 4.078 4.078 0 0 1-.1476.427c-.0265.0712-.0608.1391-.0912.2092-.0324.0691-.0685.1365-.1027.2054l-.0077.0155a.259.259 0 0 0 .1007.3385.2593.2593 0 0 0 .3449-.0757c.0486-.0702.0993-.1395.1463-.2113.0453-.0729.2607-.4475.2607-.4475.0414-.0764.0759-.1565.1132-.2356a4.373 4.373 0 0 0 .1837-.4962 3.4259 3.4259 0 0 0 .0684-.2619c.0099-.0448.0454-.2708.0465-.2942a.3968.3968 0 0 0-.2407-.3698.3951.3951 0 0 0-.1516-.0321Zm-1.0035 3.5052a.4052.4052 0 1 0-.6173-.525.4052.4052 0 0 0 .6173.525Z"/>
  <path d="M16.9142 0h-3.0813a2.9183 2.9183 0 0 0-2.8473 2.3224l-.0315.1594a18.9247 18.9247 0 0 0-3.3273-.283c-4.1892 0-7.5855 1.2525-7.5855 2.7974H.0398s-.3805 3.1953 1.212 6.3336C2.648 14.0817 3.392 17.013 3.124 19.4204a6.7154 6.7154 0 0 1-.2615 1.2209c-.125.409-.2515 1.3664.1075 2.5688l.0015-.0005C3.1856 24.2136 5.188 25 7.6268 25c2.4389 0 4.4413-.7864 4.6557-1.7904.359-1.2024.2325-2.1594.1075-2.5683a6.7642 6.7642 0 0 1-.2615-1.221c-.2679-2.4073.476-5.3386 1.8724-8.0905 1.5929-3.1383 1.212-6.3336 1.212-6.3336h-.0005c0-.9397-1.2565-1.7712-3.1838-2.2784l.0355-.1794a1.8144 1.8144 0 0 1 1.7688-1.4385h3.0813a.5499.5499 0 1 0 0-1.0999ZM7.6268 2.9563a20.2859 20.2859 0 0 1 3.1864.2396l-.0001.0004-.7234 3.6618c.0014-.0002.0027 0 .0041-.0002a21.1925 21.1925 0 0 1-2.467.1397c-3.7223 0-6.74-.905-6.74-2.0209 0-1.116 3.0177-2.0204 6.74-2.0204Zm1.8286 7.1113c-.5212.4402-1.1042.882-1.965 1.2776-1.1704.5377-2.4415.6075-3.778.2077a6.6613 6.6613 0 0 1-1.5448-.6863.4378.4378 0 0 1 .0935-.1482c.2008-.2177.8174-.5684 2.6908-.4695 2.0134.1062 3.4997-.0039 4.5078-.203l-.0043.0217ZM.8177 7.2866a.621.621 0 0 1 .8965-.629 7.01 7.01 0 0 0 1.0324.4025c1.3124.404 3.0458.626 4.8802.626a21.2236 21.2236 0 0 0 2.3275-.1247c-.0012.0001-.0024.0005-.0036.0007l-.354 1.791a8.4544 8.4544 0 0 1-.6982.1313c-1.05.1552-2.4028.1951-3.9124.1155-1.674-.0882-2.764.154-3.2398.7199a1.0987 1.0987 0 0 0-.1426.2162c-.4382-1.0644-.667-2.291-.786-3.2494Zm12.6038 3.7487c-1.5229 3.0018-2.2119 6.0052-1.9389 8.4565.0534.4544.1491.9028.286 1.3394.028.0925.2649.9405-.109 2.1924l-.0075.025-.0055.0255c-.0435.205-.3985.5324-1.0925.8009-.791.306-1.8309.475-2.9273.475-1.0964 0-2.1359-.169-2.9273-.475-.694-.2685-1.0484-.5959-1.0924-.8009l-.1375-.553c-.188-.9729-.0095-1.6104.0145-1.6899a7.343 7.343 0 0 0 .286-1.3394c.2565-2.3036-.3362-5.0946-1.6727-7.9138.447.2447.9181.4427 1.4058.5906a6.4503 6.4503 0 0 0 1.8716.2855 5.6835 5.6835 0 0 0 2.387-.5184 8.4038 8.4038 0 0 0 1.4993-.8847L7.1953 21.5071c-1.7771.0682-3.1549.5516-3.1549 1.1382 0 .6333 1.6058 1.1468 3.5866 1.1468s3.5866-.5135 3.5866-1.1468c0-.5582-1.2474-1.023-2.8993-1.1255l2.2872-11.579c.831-.6952 1.7179-1.2738 3.6553-1.5235-.1688.8745-.4301 1.82-.8353 2.618Zm1.0129-3.7462c-.0184.148-.0397.3028-.0637.462a.3263.3263 0 0 0-.0404.002c-1.7272.2019-2.7271.6528-3.5114 1.1989a.3076.3076 0 0 0-.0209-.0057l.3066-1.5517h-.0002a12.205 12.205 0 0 0 1.4031-.3345 6.9541 6.9541 0 0 0 1.0345-.402.6206.6206 0 0 1 .8924.631Zm-.067-2.3124c0 .717-1.246 1.3469-3.1243 1.7056l.0025-.0007.646-3.2693v-.0002c1.5111.3705 2.4758.9337 2.4758 1.5646Z"/>
</svg>
