<svg id="voir_employé" viewBox="0 0 33 25">
  <path fill-rule="evenodd" d="M25.9222 9.5862a3.9135 3.9135 0 0 1-.4558.3796l-.0129.008a3.8184 3.8184 0 0 1-2.2046.6976 3.8438 3.8438 0 0 1-.8338-.0924 3.78 3.78 0 0 1-.5773-.1768 3.4587 3.4587 0 0 0-.1267.9246c0 .9409.3797 1.7925.9927 2.4123l.0114.0096c.6198.6198 1.4778 1.0042 2.4236 1.0042.9456 0 1.8023-.3844 2.4234-1.0042a3.4135 3.4135 0 0 0 1.0025-2.4219c0-.2449-.0242-.4833-.0731-.7122-.5173-.0064-1.0088-.1135-1.4566-.3049a3.83 3.83 0 0 1-1.1128-.7235Zm.31-.339-.0292.0357c.2887.2692.6262.4883.9945.6456a3.4167 3.4167 0 0 0 1.1777.2675l-.0033-.008-.0033-.0098-.0066-.0194-.0047-.0113-.0017-.0065-.0275-.0714-.0017-.0015-.0129-.0358-.0018-.0016-.0128-.034-.0033-.005-.0164-.0373-.0047-.0113-.0292-.0648-.0015-.005-.0343-.0697-.0178-.0341-.0016-.0032-.0161-.0309-.0033-.0064a2.3651 2.3651 0 0 0-.1007-.1769l-.0015-.0033a3.3796 3.3796 0 0 0-.5078-.6456 3.3955 3.3955 0 0 0-.7721-.5807 3.7193 3.7193 0 0 1-.2483.4866c-.0438.0747-.0924.146-.1428.219v.0017l-.0373.0518-.005.0065-.0063.008-.0049.0066-.0048.0081-.0066.0066-.0047.008-.0048.0065-.0065.0081-.0051.0065-.0062.008-.005.0066-.0048.0065-.0113.0146-.0066.0081-.0047.0065-.0066.008-.0048.0066-.0066.008-.0047.0066-.0065.0065v.0016l-.0048.0065-.0067.0065Zm-3.2688 7.4052-.1005 1.9352h4.4237l-.0683-1.9888-2.0908 1.8688a.1996.1996 0 0 1-.2759.0016l-1.8882-1.8168Zm4.6509-.1168.0761 2.2451a.198.198 0 0 1-.1929.2044l-4.8437.0015a.1992.1992 0 0 1-.1996-.1995l.1183-2.2694-4.1185 1.7941v3.5818h13.2368v-3.5818l-4.0765-1.7762Zm-1.0367-1.6466a3.8232 3.8232 0 0 1-1.4388.2791 3.8417 3.8417 0 0 1-1.5475-.3244v1.859l1.403 1.3497 1.5833-1.4162V14.889ZM5.1051 10.0112c.1703.0681.3472.1233.5305.1639.2367.0535.4867.0811.7444.0811a3.419 3.419 0 0 0 1.9662-.6197l.0113-.0081a3.4126 3.4126 0 0 0 .5337-.4672l.0015-.0016.0034-.0032.0015-.0033.005-.0048.0047-.0033.0065-.008.0048-.005.0018-.0032.0355-.0406.0018-.0015.0065-.0049.0062-.008.0343-.0405.0063-.0081.005-.0066.0034-.0031.0062-.0081.0065-.0081.0033-.0033.0033-.0048.0065-.0081.0065-.0081.003-.0033.0033-.0048.0084-.008.0062-.0082v-.002l.0065-.0081.0065-.0081.0066-.0081.0063-.0081.0065-.0097.0047-.0065.0018-.0016.0065-.0081.0063-.0081.0032-.0048.0033-.005.0066-.008a3.5148 3.5148 0 0 0 .18-.2692 3.6789 3.6789 0 0 0 .1865-.3553l.0033-.008.0373-.0877a3.4308 3.4308 0 0 0-.9408-.2287l-.0211-.0017h-.0033l-.0114-.0016-.026-.0015-.0095-.0016-.047-.0033H8.474l-.0131-.0015h-.0225l-.0131-.0017H8.396l-.0063-.0015h-.047l-.0098-.0016h-.1071l-.0244.0015h-.034l-.031.0016h-.003l-.0342.0017h-.0095l-.0409.0015-.0176.0016-.0244.0016-.0098.0016-.0325.0015-.0015.0016-.0325.0017-.0113.0015-.0227.0017-.0212.0032-.0113.0016-.0307.0032H7.83l-.0325.0049-.0065.0015-.026.0033-.0178.0016-.0423.0081h-.0063l-.0325.0065h-.0033l-.0423.008-.0194.0033-.0226.0049-.0405.008-.0018.0016c-.652.1413-1.2344.4705-1.6886.9247a3.4187 3.4187 0 0 0-.7425 1.1081Zm3.9483-.425a3.9108 3.9108 0 0 1-.456.3796l-.0128.008a3.8185 3.8185 0 0 1-2.2046.6976 3.8538 3.8538 0 0 1-.8338-.0924 3.8958 3.8958 0 0 1-.5775-.1768 3.4678 3.4678 0 0 0-.1248.9246c0 .9458.3829 1.8023 1.0025 2.4219.6198.6198 1.4778 1.0042 2.4236 1.0042.9456 0 1.8039-.3844 2.4234-1.0042.6198-.6196 1.0043-1.4761 1.0043-2.4219 0-.2449-.0259-.4818-.0748-.7122a3.8274 3.8274 0 0 1-1.4566-.3049 3.8498 3.8498 0 0 1-1.1129-.7235Zm.287-.3099-.0048.0065c.2888.2693.6246.4884.9927.6457a3.4193 3.4193 0 0 0 1.1777.2675 4.4198 4.4198 0 0 0-.0468-.1265v-.0015a4.243 4.243 0 0 0-.0828-.1898l-.0018-.0049-.0162-.0324v-.0016a3.4197 3.4197 0 0 0-.6651-.936 3.4386 3.4386 0 0 0-.7737-.5807 3.675 3.675 0 0 1-.2467.4866 4.4163 4.4163 0 0 1-.1427.219l-.0015.0016-.0373.0519-.005.0065-.0048.008-.0065.0066-.0048.0081-.0047.0065-.0066.0081-.005.0065-.0047.008-.0065.0065-.0049.0082-.0065.0065-.0047.0065-.0114.0146-.0047.008-.0065.0065-.005.0081h-.0018l-.0048.0066-.0066.008-.0048.0065-.005.0066-.0015.0015-.005.0066-.0063.0064-.005.0065-.0113.0146-.0065.0081Zm-3.2459 7.3761-.1004 1.9352h4.4236l-.0682-1.9888-2.0908 1.8688a.1996.1996 0 0 1-.276.0016l-1.8882-1.8168Zm4.6507-.1168.0763 2.2451a.198.198 0 0 1-.1928.2044l-4.844.0015a.1992.1992 0 0 1-.1994-.1995l.1183-2.2694-4.117 1.7941v3.5818h13.2368v-3.5818l-4.0782-1.7762Zm-1.0365.1005V14.889a3.8175 3.8175 0 0 1-1.4388.2791c-.55 0-1.074-.1168-1.5475-.326v1.8606l1.403 1.3497 1.5833-1.4163Zm3.8544-14.5265c.1702.0698.3487.125.5305.1655a3.471 3.471 0 0 0 .7444.0795c.7333 0 1.4113-.2287 1.9662-.6181l.0113-.0098a3.4586 3.4586 0 0 0 .532-.4639l.0178-.0194.0066-.008.0048-.005.0032-.0031.0066-.0082.0065-.0065.003-.0048.0051-.0033.0066-.0081.0062-.008.0033-.0033.005-.0048.0063-.0081.0066-.0081.0017-.0016.0063-.0066.0066-.008.0065-.0081.0066-.008.0081-.0081.0047-.0065.0017-.0016.0063-.0081.0066-.0081.0033-.0049.0033-.0033.0065-.008.0066-.0097.003-.0033.005-.0049.0063-.008.0066-.0082.0017-.0015.0047-.0066.0066-.008.0066-.0098.0063-.008.0065-.0082.0048-.0064.0017-.0017.0065-.0097.0064-.008.0033-.005.0033-.0032.0065-.0097.0066-.0081.0015-.0032.005-.0049.0307-.0438.0066-.0097.0065-.0081.0049-.0065c.0404-.06.081-.12.1182-.1849a3.3794 3.3794 0 0 0 .2271-.4494 3.4332 3.4332 0 0 0-.9408-.2304l-.0212-.0015h-.0015l-.0131-.0016h-.0048l-.0211-.0016h-.008l-.0341-.0032h-.0146l-.005-.0017h-.0209l-.0098-.0015h-.0226l-.0099-.0016h-.042L16.8251 0h-.1996l-.0291.0016h-.0048l-.0342.0016h-.0096l-.039.0033-.0194.0015-.0244.0016h-.008l-.0343.0032h-.0015l-.0325.0033h-.0114l-.0211.0032-.0211.0016-.0129.0016-.0309.0048h-.0016l-.034.0033-.0065.0016-.0259.0032-.0163.0033a3.2223 3.2223 0 0 0-.1282.021l-.0194.0049-.0212.0048-.0113.0017-.0307.0064h-.0018a3.424 3.424 0 0 0-1.6885.9248 3.429 3.429 0 0 0-.7428 1.1073Zm3.9482-.4234a3.6313 3.6313 0 0 1-.4558.378l-.0114.0082a3.8265 3.8265 0 0 1-2.2061.6975 3.8058 3.8058 0 0 1-1.4096-.2677 3.3972 3.3972 0 0 0-.1266.923 3.412 3.412 0 0 0 1.0025 2.422 3.413 3.413 0 0 0 2.4235 1.0041c.9408 0 1.7941-.3797 2.4139-.9928l.0096-.0098c.6198-.6213 1.0042-1.4778 1.0042-2.4235a3.4 3.4 0 0 0-.0748-.7104 3.846 3.846 0 0 1-2.5694-1.0285Zm.3732-.4184a2.956 2.956 0 0 1-.0909.1135 3.4042 3.4042 0 0 0 2.1704.9132l-.0031-.008-.0033-.0098-.0065-.0179-.0033-.0113-.0032-.0065-.0066-.0194-.0047-.0146-.0015-.0032-.0083-.018-.0064-.016V2.168l-.0066-.0179-.008-.0179v-.0015l-.0146-.034-.0017-.005-.0066-.013-.0062-.0178-.0033-.008-.0051-.0099-.0128-.0275-.0033-.008-.008-.018-.0051-.013-.0033-.0048-.008-.0162-.008-.0163v-.0016l-.0081-.0178-.0098-.0163V1.902l-.008-.0163-.0081-.0178-.0017-.0032-.008-.013-.0081-.0179-.0032-.0048a2.578 2.578 0 0 0-.0599-.1088l-.0018-.0031-.0194-.0325V1.683l-.0196-.0325-.0015-.0016-.0179-.0309-.0033-.0048-.0226-.0341-.0047-.0098a3.5905 3.5905 0 0 0-.4592-.5676 3.4768 3.4768 0 0 0-.7721-.5808 3.7729 3.7729 0 0 1-.3698.6748l-.0015.0032-.031.0438-.0048.0081-.0048.0065-.0065.008-.005.0065-.0047.0082-.0048.0065-.0018.0015-.0047.0066-.0047.008-.0066.0065-.0048.0066v.0015l-.005.0066-.0065.008-.0048.0065-.0066.008-.0047.0066-.0066.0081-.0053.0067Zm-3.332 7.483-.1004 1.9352h4.4236l-.0665-1.9888-2.0926 1.8704a.1995.1995 0 0 1-.2759 0l-1.8882-1.8169Zm4.6506-.1168.0763 2.2466a.1987.1987 0 0 1-.1913.2045h-4.8455a.1991.1991 0 0 1-.1979-.1995l.1168-2.2695-2.4219 1.0561a3.8417 3.8417 0 0 1 .3731 1.6545c0 1.035-.4104 1.9743-1.077 2.6652H22.373c-.6667-.691-1.0773-1.6302-1.0773-2.6652 0-.5807.1299-1.1307.3602-1.6237l-2.4528-1.069Zm-1.0347.1021V6.9876a3.8304 3.8304 0 0 1-1.4406.279c-.55 0-1.0739-.115-1.5474-.3244v1.859l1.4048 1.3513 1.5832-1.4162ZM1.4099 23.67a.2005.2005 0 0 1-.1996-.1995.2004.2004 0 0 1 .1996-.1995h21.8765a.2003.2003 0 0 1 .1993.1995.2005.2005 0 0 1-.1993.1995H1.4099ZM14.22 25a.1993.1993 0 0 1-.1994-.1995.2003.2003 0 0 1 .1994-.1995h15.138a.2015.2015 0 0 1 .1996.1995.2005.2005 0 0 1-.1996.1995H14.22Zm16.6873 0a.1995.1995 0 0 1-.1996-.1995.2005.2005 0 0 1 .1996-.1995h1.8914a.2003.2003 0 0 1 .1994.1995.1993.1993 0 0 1-.1994.1995h-1.8914Zm-30.359-.0389a.2003.2003 0 0 1-.1993-.1995c0-.1104.089-.1996.1993-.1996h7.1733a.1993.1993 0 0 1 .1994.1996.2003.2003 0 0 1-.1994.1995H.5483Zm-.1492-4.0603a.2003.2003 0 0 1-.1995.1995A.1995.1995 0 0 1 0 20.9008v-3.6353a.1986.1986 0 0 1 .1346-.1882l3.963-1.6432a.1992.1992 0 0 1 .2595.107c.0423.1022-.0066.2191-.107.2596L.399 17.3985v3.5023ZM21.974 10.0112a3.396 3.396 0 0 0 1.2749.245 3.4191 3.4191 0 0 0 1.9661-.6197l.0113-.0081a3.4825 3.4825 0 0 0 .5337-.4672v-.0016l.0033-.0032.003-.0033.005-.0048.0034-.0033.0079-.008.0033-.005.0033-.0032.0063-.008.0083-.0082.0033-.0032.003-.0049.0083-.008.0063-.0082.0018-.0015.0047-.0049.0066-.008.008-.008v-.0017l.0066-.0065.0065-.008.0065-.0082.0081-.008.0066-.0082.0048-.0065.0015-.0032.0065-.008.0081-.0082.0032-.0033.0033-.0048.0066-.008.0066-.0082.0032-.0032.0031-.0049.0065-.008.0065-.0081.0015-.0016.0051-.0081.0063-.0081.0065-.0081.0065-.0082.0066-.0096.0066-.0065.0015-.0016.0048-.0081.0066-.0082.0047-.0048.0017-.0048.0066-.008a2.8508 2.8508 0 0 0 .18-.2694 3.7058 3.7058 0 0 0 .1881-.3552l.0032-.0081.0373-.0877a3.4302 3.4302 0 0 0-.9408-.2287l-.0212-.0016h-.0029l-.0116-.0017-.0275-.0015-.008-.0015-.047-.0033h-.0113l-.0132-.0015h-.0241l-.0116-.0017h-.0291l-.0063-.0016h-.0471l-.0098-.0015h-.1071l-.0244.0015h-.0341l-.0307.0016h-.0032l-.0344.0017h-.0095l-.0405.0015-.0179.0016-.0259.0016-.0083.0016-.034.0015v.0016l-.0325.0017-.0113.0015-.0226.0016-.0211.0033-.0114.0015-.0307.0033h-.0033l-.0324.0048-.0081.0016-.0259.0033-.0164.0016-.0421.0081h-.0065l-.0324.0065h-.0034l-.042.008-.0196.0033-.0226.0049-.039.008h-.0033v.0016h-.0031a3.4278 3.4278 0 0 0-1.6872.9247 3.4262 3.4262 0 0 0-.7412 1.1075Z" clip-rule="evenodd"/>
</svg>
