<svg id="voir_depenses" viewBox="0 0 25 25">
  <path d="M13.825 11.2135H9.3883c-.1602 0-.3139-.0506-.4272-.1408-.1133-.0902-.177-.2124-.177-.3399 0-.1276.0637-.2498.177-.34.1133-.0902.267-.1408.4272-.1408h4.4367c.3135 0 .614-.0991.8357-.2755.2216-.1763.3461-.4155.3461-.665 0-.2493-.1245-.4885-.3461-.6649-.2217-.1764-.5222-.2754-.8357-.2754h-2.6508a2.9312 2.9312 0 0 1-.9159-.1438c-.2905-.0954-.5545-.2354-.7769-.4121-.2224-.1767-.3988-.3865-.5192-.6175-.1203-.231-.1823-.4785-.1823-.7286 0-.25.062-.4976.1823-.7286.1204-.231.2969-.4408.5192-.6175.2224-.1766.4864-.3167.7769-.412a2.9315 2.9315 0 0 1 .9159-.1438h4.437c.1603 0 .3139.0506.4272.1408.1133.0901.177.2124.177.34 0 .1274-.0637.2497-.177.3399-.1133.0902-.2669.1408-.4272.1408h-4.437a1.4496 1.4496 0 0 0-.4531.0709c-.1438.0471-.2744.1163-.3844.2037-.1101.0874-.1974.1911-.257.3054a.7768.7768 0 0 0-.0902.3604c0 .1237.0306.2462.0902.3604.0596.1143.1469.218.257.3054.11.0874.2406.1566.3844.2037.1437.0471.2977.0712.4531.071h2.6508c.6339 0 1.2418.2003 1.6901.557.4482.3567.7.8404.7 1.3449 0 .5044-.2518.9882-.7 1.3449-.4483.3566-1.0562.557-1.6901.557Z"/>
  <path d="M12.4999 12.454a.7399.7399 0 0 1-.2312-.0366.63.63 0 0 1-.196-.1042.4895.4895 0 0 1-.131-.156.3952.3952 0 0 1-.0459-.184V3.8077c0-.1275.0636-.2498.1769-.34.1133-.0901.267-.1408.4272-.1408s.3139.0507.4272.1408c.1133.0902.177.2125.177.34v8.1655a.3965.3965 0 0 1-.046.184.487.487 0 0 1-.131.156.63.63 0 0 1-.196.1042.7399.7399 0 0 1-.2312.0366Z"/>
  <path d="M24.3958 25a.7422.7422 0 0 1-.2311-.0366.6324.6324 0 0 1-.196-.1043l-1.952-1.5531-1.952 1.5531a.6319.6319 0 0 1-.1959.1043.7399.7399 0 0 1-.2312.0366.7394.7394 0 0 1-.2312-.0366.6324.6324 0 0 1-.196-.1043l-1.952-1.5531-1.9519 1.5531a.6324.6324 0 0 1-.196.1043.7399.7399 0 0 1-.2312.0366.7399.7399 0 0 1-.2312-.0366.6324.6324 0 0 1-.196-.1043l-1.9519-1.5531-1.9524 1.5531a.6307.6307 0 0 1-.1959.1043.7399.7399 0 0 1-.2312.0366.7394.7394 0 0 1-.2312-.0366.632.632 0 0 1-.196-.1043l-1.952-1.5531-1.952 1.5531a.632.632 0 0 1-.1959.1043.7396.7396 0 0 1-.2312.0366.7396.7396 0 0 1-.2312-.0366.6322.6322 0 0 1-.196-.1043l-1.952-1.5531-1.9519 1.5531c-.0845.0673-.1921.1131-.3093.1316a.7484.7484 0 0 1-.349-.0273c-.1105-.0364-.2048-.098-.2712-.1771-.0664-.079-.1018-.172-.1018-.2671V.4808a.397.397 0 0 1 .046-.184.4899.4899 0 0 1 .1309-.156.6325.6325 0 0 1 .196-.1042A.7407.7407 0 0 1 .6042 0h23.7916a.74.74 0 0 1 .2313.0366.6324.6324 0 0 1 .196.1042.4907.4907 0 0 1 .131.156.398.398 0 0 1 .0459.184v24.0384c0 .1275-.0637.2498-.177.34-.1133.0901-.2669.1408-.4272.1408ZM7.7416 22.1454a.7398.7398 0 0 1 .2312.0365.6313.6313 0 0 1 .196.1044l1.9519 1.5531 1.9523-1.5531a.6324.6324 0 0 1 .196-.1043.7422.7422 0 0 1 .2311-.0366.7423.7423 0 0 1 .2312.0366.6324.6324 0 0 1 .196.1043l1.952 1.5531 1.952-1.5531a.6319.6319 0 0 1 .1959-.1043.7428.7428 0 0 1 .2312-.0366.7423.7423 0 0 1 .2312.0366.6324.6324 0 0 1 .196.1043l1.952 1.5531 1.952-1.5531a.6307.6307 0 0 1 .1959-.1043.7428.7428 0 0 1 .2312-.0366.7428.7428 0 0 1 .2312.0366.6324.6324 0 0 1 .196.1043l1.3478 1.0723V.9616H1.2083v22.397l1.3478-1.0723a.6322.6322 0 0 1 .196-.1043.7425.7425 0 0 1 .2312-.0366.7425.7425 0 0 1 .2312.0366.6322.6322 0 0 1 .196.1043l1.952 1.5531 1.952-1.5531a.6312.6312 0 0 1 .1958-.1044.7427.7427 0 0 1 .2313-.0365Z"/>
  <path d="M19.5624 16.1659H5.4371c-.1602 0-.3139-.0507-.4272-.1408-.1133-.0902-.177-.2125-.177-.34 0-.1275.0637-.2498.177-.3399.1133-.0902.267-.1409.4272-.1409h14.1253c.1602 0 .3139.0507.4272.1409.1133.0901.177.2124.177.3399 0 .1275-.0637.2498-.177.34-.1133.0901-.267.1408-.4272.1408Zm0 3.1451H5.4371c-.1602 0-.3139-.0506-.4272-.1408-.1133-.0902-.177-.2124-.177-.3399 0-.1276.0637-.2498.177-.34.1133-.0902.267-.1408.4272-.1408h14.1253c.1602 0 .3139.0506.4272.1408.1133.0902.177.2124.177.34 0 .1275-.0637.2497-.177.3399-.1133.0902-.267.1408-.4272.1408Z"/>
</svg>
