<svg id="voir_recettes" viewBox="0 0 26 25">
  <path d="M25.628 15.0802c-.7556-1.0526-1.5215-1.0694-3.4392-.0603l-3.7168 2.2724c-.5509.2931-1.6815.381-2.778.3996.1948-.4057.1077-.8897-.2604-1.4397-.3409-.5086-.8052-.9129-1.3439-1.1892.8931-.7259 1.4275-1.8065 1.4275-2.994 0-2.1388-1.74-3.8793-3.8793-3.8793-2.1392 0-3.8793 1.7405-3.8793 3.8793 0 .6384.1586 1.2479.4427 1.7914-.0056-.0039-.0116-.0073-.0168-.0117-1.5474-1.1668-4.1328-1.3314-5.1668-1.3491v-1.3047H0V25h3.0172v-1.2931h5.6035c.8793 0 1.7664-.0672 2.6362-.1991l5.5875-.8496a2.918 2.918 0 0 0 .5931-.0681c.5147-.0724 1.0065-.3181 1.4233-.7112l6.5332-5.0879.0099-.0082c.509-.4211.6073-1.1694.2241-1.7026Zm-15.641-.4901c-.8573-.5612-1.3663-1.4974-1.3663-2.5211 0-1.6638 1.3539-3.0172 3.0172-3.0172 1.6634 0 3.0173 1.3534 3.0173 3.0172 0 1.1147-.5996 2.116-1.5742 2.6461-.0534-.0103-.1077-.0155-.1616-.0237-.0539-.0082-.1069-.0177-.1616-.0237a3.8429 3.8429 0 0 0-.4225-.025h-1.681a4.2793 4.2793 0 0 1-.6672-.0526ZM2.1553 24.138H.862V12.0569h1.293V24.138Zm22.7034-8.0224-6.5444 5.0961-.0332.0289c-.2888.2763-.6219.4478-1.006.5034a2.147 2.147 0 0 1-.4647.0526l-5.6831.859a16.7145 16.7145 0 0 1-2.5065.1897H3.0172V13.363c.9557.0198 3.3216.1741 4.6483 1.1741.5759.4345 1.266.7293 2.0022.8707l.0064.0039.082.0142c.0043.0009.0081.0009.0124.0017.1414.0242.2845.0436.4289.0561.0048.0004.0095.0013.0138.0017.1466.0125.294.0198.4427.0198h1.681c.2371 0 .4742.028.7043.0832l.0276.0069c.678.1681 1.2673.5668 1.6496 1.1371.1814.2702.253.4948.1922.6004-.1151.1991-.6491.3216-1.1909.3453a27.972 27.972 0 0 0-.478-.0052h-4.188c-1.3495 0-2.1551.6444-2.1551 1.7241a.431.431 0 0 0 .431.4311.431.431 0 0 0 .431-.4311c0-.2133 0-.862 1.2931-.862h4.1785a5.434 5.434 0 0 0 .5224.0056l.2293.0038c2.0228.0375 3.9198.0272 4.9172-.5038l3.7147-2.2716c1.7776-.934 1.9565-.6836 2.3134-.1862.1194.1655.0887.3987-.0686.5328Z"/>
  <path d="M13.7931 12.0691c0-1.1883-.9668-2.1552-2.1552-2.1552-1.1883 0-2.1551.9669-2.1551 2.1552 0 1.1884.9668 2.1552 2.1551 2.1552 1.1884 0 2.1552-.9668 2.1552-2.1552Zm-2.1552 1.2931c-.7129 0-1.2931-.5802-1.2931-1.2931 0-.7129.5802-1.2931 1.2931-1.2931.713 0 1.2931.5802 1.2931 1.2931 0 .7129-.5801 1.2931-1.2931 1.2931Zm6.4655-5.6036c2.1393 0 3.8793-1.7405 3.8793-3.8793 0-2.1388-1.74-3.8793-3.8793-3.8793-2.1392 0-3.8793 1.7405-3.8793 3.8793 0 2.1388 1.7401 3.8793 3.8793 3.8793Zm0-6.8965c1.6634 0 3.0173 1.3534 3.0173 3.0172s-1.3539 3.0173-3.0173 3.0173c-1.6633 0-3.0172-1.3535-3.0172-3.0173 0-1.6638 1.3539-3.0172 3.0172-3.0172Z"/>
  <path d="M18.1035 6.0346c1.1883 0 2.1551-.9668 2.1551-2.1552 0-1.1883-.9668-2.1552-2.1551-2.1552-1.1884 0-2.1552.9669-2.1552 2.1552 0 1.1884.9668 2.1552 2.1552 2.1552Zm0-3.4483c.7129 0 1.2931.5802 1.2931 1.2931 0 .713-.5802 1.2931-1.2931 1.2931-.713 0-1.2931-.5802-1.2931-1.293 0-.713.5801-1.2932 1.2931-1.2932Z"/>
</svg>
