<svg id="voir_commande" viewBox="0 0 39 25">
  <path d="M19.4446 25c-5.9236 0-11.5291-2.5097-15.7875-7.0667-.5236-.5597-.493-1.4389.0667-1.9625.5611-.5236 1.4389-.493 1.9639.0667 3.7264 3.9889 8.6111 6.1847 13.7569 6.1847 6.6153 0 12.707-3.618 16.4445-9.7222-3.7361-6.1042-9.8292-9.7222-16.4445-9.7222-6.8583 0-13.1555 3.8903-16.8472 10.4069-.3778.6681-1.2278.9042-1.893.5236-.6681-.3777-.9014-1.225-.5237-1.893C4.371 4.4167 11.5738 0 19.4446 0c7.8723 0 15.0736 4.4167 19.2639 11.8153a1.388 1.388 0 0 1 0 1.368C34.5182 20.5819 27.3169 25 19.4446 25Z"/>
  <path d="M19.4449 19.4443c-3.8291 0-6.9444-3.1153-6.9444-6.9444 0-3.8292 3.1153-6.9445 6.9444-6.9445 3.8292 0 6.9445 3.1153 6.9445 6.9445 0 3.8291-3.1153 6.9444-6.9445 6.9444Zm0-11.1111c-2.2972 0-4.1666 1.8694-4.1666 4.1667 0 2.2972 1.8694 4.1666 4.1666 4.1666 2.2973 0 4.1667-1.8694 4.1667-4.1666 0-2.2973-1.8694-4.1667-4.1667-4.1667Z"/>
</svg>
