<svg id="voir_carte" viewBox="0 0 18 25">
  <path d="M15.8066 0H.4386A.4385.4385 0 0 0 0 .4386v20.6137a.4381.4381 0 0 0 .2707.4052.4376.4376 0 0 0 .1679.0334h8.8456v3.0706a.4388.4388 0 0 0 .695.3559l1.6974-1.222 1.6974 1.222a.4386.4386 0 0 0 .695-.3559v-3.0706h1.7376a1.6589 1.6589 0 0 0 1.657-1.6568V1.6571A1.6588 1.6588 0 0 0 15.8066 0ZM.8772.8772H2.193v19.7365H.8772V.8772Zm12.3146 22.828-1.2588-.9063a.4393.4393 0 0 0-.5127 0l-1.2589.9063v-2.2143h3.0304v2.2143Zm3.3946-3.8711a.7804.7804 0 0 1-.7798.7796H3.0702V.8772h12.7364a.7807.7807 0 0 1 .7798.78V19.834Z"/>
  <path d="M12.0906 5.8701c-.9659 0-1.7516.9881-1.7516 2.2029 0 1.0231.56 1.8777 1.313 2.1243v4.8834a.4383.4383 0 0 0 .4386.4386.4383.4383 0 0 0 .4386-.4386v-4.8834c.7529-.2466 1.313-1.1012 1.313-2.1243 0-1.2148-.7857-2.2029-1.7516-2.2029Zm0 3.5285c-.4739 0-.8744-.607-.8744-1.3257 0-.7187.4005-1.3256.8744-1.3256.4739 0 .8744.6069.8744 1.3256 0 .7188-.4005 1.3257-.8744 1.3257ZM8.8788 5.8701a.4385.4385 0 0 0-.4386.4386v2.2157a.8744.8744 0 1 1-1.7488 0V6.3087a.4386.4386 0 0 0-.8772 0v2.2157a1.7496 1.7496 0 0 0 1.313 1.689v4.8673a.4386.4386 0 0 0 .8772 0v-4.8673a1.7497 1.7497 0 0 0 1.313-1.689V6.3087a.4385.4385 0 0 0-.4386-.4386Z"/>
  <path d="M7.5658 8.4456a.4383.4383 0 0 0 .4386-.4386V6.3087a.4386.4386 0 0 0-.8772 0V8.007a.4385.4385 0 0 0 .4386.4386Z"/>
</svg>
